/* XPM */
static char * ford_matchMoveUtilities__stabilize_xpm[] = {
"30 30 172 2",
"  	c none",
" a	c #000000",
" b	c #020202",
" c	c #c0c0c0",
" d	c #bbbbbb",
" e	c #c8c8c8",
" f	c #bababa",
" g	c #656565",
" h	c #1f1f1f",
" i	c #0d0d0d",
" j	c #969696",
" k	c #ffffff",
" l	c #b2b2b2",
" m	c #efefef",
" n	c #9b9b9b",
" o	c #090909",
" p	c #414141",
" q	c #d3d3d3",
" r	c #828282",
" s	c #121212",
" t	c #e8e8e8",
" u	c #d1d1d1",
" v	c #7d7d7d",
" w	c #2e2e2e",
" x	c #dadada",
" y	c #989898",
" z	c #626262",
" A	c #313131",
" B	c #393939",
" C	c #6b6b6b",
" D	c #a5a5a5",
" E	c #d4d4d4",
" F	c #424242",
" G	c #515151",
" H	c #010101",
" I	c #474747",
" J	c #383838",
" K	c #070707",
" L	c #5e5e5e",
" M	c #929292",
" N	c #080808",
" O	c #919191",
" P	c #e9e9e9",
" Q	c #4c4c4c",
" R	c #b0b0b0",
" S	c #f0f0f0",
" T	c #bcbcbc",
" U	c #e2e2e2",
" V	c #939393",
" W	c #b8b8b8",
" X	c #727272",
" Y	c #181818",
" Z	c #c6c6c6",
" 0	c #404040",
" 1	c #191919",
" 2	c #a9a9a9",
" 3	c #f5f5f5",
" 4	c #a6a6a6",
" 5	c #060606",
" 6	c #0f0f0f",
" 7	c #d2d2d2",
" 8	c #d6d6d6",
" 9	c #acacac",
" !	c #adadad",
" @	c #e7e7e7",
" #	c #545454",
" $	c #030303",
" %	c #353535",
" ^	c #fefefe",
" &	c #565656",
" *	c #141414",
" (	c #8f8f8f",
" )	c #dbdbdb",
" _	c #f1f1f1",
" +	c #0b0b0b",
" -	c #2f2f2f",
" =	c #afafaf",
" {	c #1a1a1a",
" }	c #cecece",
" |	c #4a4a4a",
" [	c #d9d9d9",
" ]	c #b1b1b1",
" :	c #484848",
" ;	c #343434",
" '	c #d8d8d8",
" <	c #131313",
" >	c #646464",
" ?	c #232323",
" ,	c #e0e0e0",
" .	c #363636",
" /	c #777777",
"a 	c #171717",
"aa	c #fafafa",
"ab	c #6c6c6c",
"ac	c #a1a1a1",
"ad	c #858585",
"ae	c #f2f2f2",
"af	c #454545",
"ag	c #d0d0d0",
"ah	c #434343",
"ai	c #a3a3a3",
"aj	c #7f7f7f",
"ak	c #aeaeae",
"al	c #797979",
"am	c #888888",
"an	c #616161",
"ao	c #262626",
"ap	c #d7d7d7",
"aq	c #f7f7f7",
"ar	c #f8f8f8",
"as	c #f9f9f9",
"at	c #464646",
"au	c #040404",
"av	c #f6f6f6",
"aw	c #222222",
"ax	c #303030",
"ay	c #f4f4f4",
"az	c #8b8b8b",
"aA	c #1e1e1e",
"aB	c #818181",
"aC	c #cdcdcd",
"aD	c #cfcfcf",
"aE	c #909090",
"aF	c #cacaca",
"aG	c #808080",
"aH	c #202020",
"aI	c #b6b6b6",
"aJ	c #d5d5d5",
"aK	c #212121",
"aL	c #999999",
"aM	c #5a5a5a",
"aN	c #c9c9c9",
"aO	c #ababab",
"aP	c #242424",
"aQ	c #a8a8a8",
"aR	c #7b7b7b",
"aS	c #5c5c5c",
"aT	c #111111",
"aU	c #ececec",
"aV	c #9e9e9e",
"aW	c #7c7c7c",
"aX	c #2b2b2b",
"aY	c #101010",
"aZ	c #c7c7c7",
"a0	c #fdfdfd",
"a1	c #1c1c1c",
"a2	c #9c9c9c",
"a3	c #3f3f3f",
"a4	c #fcfcfc",
"a5	c #ebebeb",
"a6	c #1b1b1b",
"a7	c #dcdcdc",
"a8	c #6a6a6a",
"a9	c #373737",
"a!	c #e4e4e4",
"a@	c #cccccc",
"a#	c #5b5b5b",
"a$	c #2c2c2c",
"a%	c #333333",
"a^	c #747474",
"a&	c #3b3b3b",
"a*	c #e5e5e5",
"a(	c #898989",
"a)	c #767676",
"a_	c #9d9d9d",
"a+	c #3d3d3d",
"a-	c #2d2d2d",
"a=	c #151515",
"a{	c #676767",
"a}	c #b5b5b5",
"a|	c #3a3a3a",
"a[	c #c5c5c5",
" a a a a a a a a a a a b c d a e f g h a a a a a a a a a a a",
" a a a a a a a a a a i j k l a e k k m n o a a a a a a a a a",
" a a a a a a a a a p q k k l a e k k k k r a a a a a a a a a",
" a a a a a a a a s t k k k f a u k k k k v a a a a a a a a a",
" a a a a a a a a w k x y z A a B C D E g a a a a a a a a a a",
" a a a a a a a a F G b s F F H I J K L M h a a a a a a a a a",
" a a a a a a N O P Q R S k T a q k U V W S X a a a a a a a a",
" a a a a a Y Z U 0 1 Z k k l a e k k 2 a L 3 4 5 a a a a a a",
" a a a a 6 7 8 1 a a B k k l a e k k L a a A S 9 H a a a a a",
" a a a a ! @ 1 a a o # k k l a e k ! $ a a a % ^ r a a a a a",
" a a a & k 0 a * ( ) _ k k l a u l + a a a a a C k - a a a a",
" a a 5 x = a { } k k k k k l a } | a a a a a a $ [ ] a a a a",
" a a : k ; a l k k k k k k l a } ' < a a a a a a > k ? a a a",
" a a n , a . k k k k k k k l a e k / a a a a a aa aaab a a a",
" a a Eac aad k k k k k k k d a 7 kae Caf + a a a aag D a a a",
"ah Q _ai paj ! ! ! ! ! !akal aamak ] Wakanao Iah p Zapahahah",
"aqar kasaqat a a a a a a a a a a a a a aau A ,aravaa kaqaqaq",
"awaxayazaAaB }aCaCaCaCaCaDaE aacaDaCaCaCaCaFaG haHaIaJaK ? ?",
" a a )aL aaM k k k k k k k W aaD k k k k k k Uau aaN R a a a",
" a aaO E aaPar k k k k k k l a e k k k k k k kaQ .aaaR a a a",
" a aaS kaHaTaU k k k k k k l a e k k k k k k k kaVaWaX a a a",
" a aaY S ( aaZ k k k k k k l a e k k k k k k ka0 wa1ab a a a",
" a a a / ^ 1am k k k k k k l a e k k k k k k ka2 aac kaM a a",
" a a a K u d & k k k k k k l a e k k k k k k 8 oa3a4 ka5a6 a",
" a a a aao _ W @ k k k k k l a e k k k k ka7aw 1 U k k ka8 a",
" a a a a aa9a! Xa@ k k k k l a e k k k k daPaoa7 k k k ka# a",
" a a a a a aa$a% aa^a7 k k T a q k kag L aa& % Va* k k j 5 a",
" a a a a a a a 0a( *aua& v C Ha) X - aaKa_aeaX aa  g p a a a",
" a a a a a a aa+ k m 4a#a-a= a Ya%a{a}aq k kaf a a a a a a a",
" a a a a a a aa| k k k k k = aa[ k k k k k ^ A a a a a a a a"
};
