/* XPM */
static char * ford_matchMoveUtilities__deStabilize_xpm[] = {
"30 30 173 2",
"  	c none",
" a	c #ffffff",
" b	c #fdfdfd",
" c	c #3f3f3f",
" d	c #444444",
" e	c #373737",
" f	c #454545",
" g	c #9a9a9a",
" h	c #e0e0e0",
" i	c #f2f2f2",
" j	c #696969",
" k	c #000000",
" l	c #4e4e4e",
" m	c #101010",
" n	c #646464",
" o	c #f6f6f6",
" p	c #bebebe",
" q	c #2c2c2c",
" r	c #7d7d7d",
" s	c #ededed",
" t	c #171717",
" u	c #464646",
" v	c #2e2e2e",
" w	c #828282",
" x	c #d1d1d1",
" y	c #252525",
" z	c #676767",
" A	c #9d9d9d",
" B	c #cecece",
" C	c #c6c6c6",
" D	c #949494",
" E	c #5a5a5a",
" F	c #2b2b2b",
" G	c #9b9b9b",
" H	c #bdbdbd",
" I	c #aeaeae",
" J	c #fefefe",
" K	c #b8b8b8",
" L	c #c7c7c7",
" M	c #f8f8f8",
" N	c #a1a1a1",
" O	c #6d6d6d",
" P	c #f7f7f7",
" Q	c #6e6e6e",
" R	c #161616",
" S	c #b3b3b3",
" T	c #4f4f4f",
" U	c #0f0f0f",
" V	c #1d1d1d",
" W	c #6c6c6c",
" X	c #474747",
" Y	c #8d8d8d",
" Z	c #e7e7e7",
" 0	c #393939",
" 1	c #bfbfbf",
" 2	c #e6e6e6",
" 3	c #3a3a3a",
" 4	c #565656",
" 5	c #0a0a0a",
" 6	c #595959",
" 7	c #f9f9f9",
" 8	c #f0f0f0",
" 9	c #2d2d2d",
" !	c #292929",
" @	c #535353",
" #	c #525252",
" $	c #181818",
" %	c #ababab",
" ^	c #fcfcfc",
" &	c #cacaca",
" *	c #010101",
" (	c #a9a9a9",
" )	c #ebebeb",
" _	c #707070",
" +	c #242424",
" -	c #0e0e0e",
" =	c #4d4d4d",
" {	c #f4f4f4",
" }	c #d0d0d0",
" |	c #505050",
" [	c #e5e5e5",
" ]	c #313131",
" :	c #b5b5b5",
" ;	c #262626",
" '	c #b7b7b7",
" <	c #cbcbcb",
" >	c #272727",
" ?	c #ececec",
" ,	c #dcdcdc",
" .	c #1f1f1f",
" /	c #c9c9c9",
"a 	c #898989",
"aa	c #e8e8e8",
"ab	c #050505",
"ac	c #939393",
"ad	c #5e5e5e",
"ae	c #7a7a7a",
"af	c #0d0d0d",
"ag	c #bababa",
"ah	c #2f2f2f",
"ai	c #bcbcbc",
"aj	c #5c5c5c",
"ak	c #808080",
"al	c #515151",
"am	c #868686",
"an	c #777777",
"ao	c #9e9e9e",
"ap	c #d9d9d9",
"aq	c #282828",
"ar	c #080808",
"as	c #070707",
"at	c #060606",
"au	c #b9b9b9",
"av	c #fbfbfb",
"aw	c #090909",
"ax	c #dddddd",
"ay	c #cfcfcf",
"az	c #0b0b0b",
"aA	c #747474",
"aB	c #e1e1e1",
"aC	c #7e7e7e",
"aD	c #323232",
"aE	c #303030",
"aF	c #353535",
"aG	c #7f7f7f",
"aH	c #dfdfdf",
"aI	c #494949",
"aJ	c #2a2a2a",
"aK	c #dedede",
"aL	c #666666",
"aM	c #a5a5a5",
"aN	c #484848",
"aO	c #363636",
"aP	c #545454",
"aQ	c #dbdbdb",
"aR	c #575757",
"aS	c #848484",
"aT	c #a3a3a3",
"aU	c #eeeeee",
"aV	c #131313",
"aW	c #616161",
"aX	c #838383",
"aY	c #d4d4d4",
"aZ	c #efefef",
"a0	c #383838",
"a1	c #020202",
"a2	c #e3e3e3",
"a3	c #888888",
"a4	c #636363",
"a5	c #5f5f5f",
"a6	c #c0c0c0",
"a7	c #030303",
"a8	c #141414",
"a9	c #e4e4e4",
"a!	c #232323",
"a@	c #959595",
"a#	c #c8c8c8",
"a$	c #1b1b1b",
"a%	c #333333",
"a^	c #a4a4a4",
"a&	c #d3d3d3",
"a*	c #cccccc",
"a(	c #8b8b8b",
"a)	c #c4c4c4",
"a_	c #1a1a1a",
"a+	c #767676",
"a-	c #626262",
"a=	c #c2c2c2",
"a{	c #d2d2d2",
"a}	c #eaeaea",
"a|	c #989898",
"a[	c #4a4a4a",
"a]	c #c5c5c5",
" a a a a a a a a a a a b c d a e f g h a a a a a a a a a a a",
" a a a a a a a a a a i j k l a e k k m n o a a a a a a a a a",
" a a a a a a a a a p q k k l a e k k k k r a a a a a a a a a",
" a a a a a a a a s t k k k u a v k k k k w a a a a a a a a a",
" a a a a a a a a x k y z A B a C D E F G a a a a a a a a a a",
" a a a a a a a a H I b s H H J K L M N O h a a a a a a a a a",
" a a a a a a P Q R S T U k d a q k V W X U Y a a a a a a a a",
" a a a a a Z 0 V 1 2 3 k k l a e k k 4 a N 5 6 7 a a a a a a",
" a a a a 8 9 ! 2 a a C k k l a e k k N a a B U @ J a a a a a",
" a a a a # $ 2 a a o % k k l a e k # ^ a a a & * r a a a a a",
" a a a ( k 1 a ) _ + - k k l a v = { a a a a a D k } a a a a",
" a a 7 y | a [ ] k k k k k l a ] : a a a a a a ^ ; l a a a a",
" a a ' k < a = k k k k k k l a ] > ? a a a a a a G k , a a a",
" a a n . a / k k k k k k k l a e ka  a a a a a aaaabac a a a",
" a a Fad aae k k k k k k k f a 9 kaf Dag { a a a aah E a a a",
"ai S -aj pak # # # # # #alam aanal l Xalaoap Kai p 0aqaiaiai",
"aras katarau a a a a a a a a a a a a a aav B .asawab kararar",
"axayazaAaBaC ]aDaDaDaDaDaE _ aadaEaDaDaDaDaFaG haHaIaJaK , ,",
" a a +aL aaM k k k k k k kaN aaE k k k k k k Vav aaO T a a a",
" a aaP F aaQas k k k k k k l a e k k k k k k kaR /abaS a a a",
" a aaT kaHaUaV k k k k k k l a e k k k k k k k kaWaXaY a a a",
" a aaZ U _ aa0 k k k k k k l a e k k k k k k ka1 xa2ac a a a",
" a a aa3 * Zan k k k k k k l a e k k k k k k ka4 aa5 kaM a a",
" a a a M v d ( k k k k k k l a e k k k k k k ! oa6a7 ka8a9 a",
" a a a aap - X $ k k k k k l a e k k k k ka!ax 2 V k k ka@ a",
" a a a a aa#a$ Ya% k k k k l a e k k k k daQapa! k k k ka^ a",
" a a a a a aa&a* aa(a! k k d a q k kah N aa) & Wa_ k k j 7 a",
" a a a a a a a 1a+ )ava) w D Ja  Y } aaKa-afaY aaa g p a a a",
" a a a a a a aa= k m 6a^a{a} a Za*a|a[ar k kag a a a a a a a",
" a a a a a a aa] k k k k kal a 3 k k k k k * B a a a a a a a"
};
