/* XPM */
static char * ford_riggingAid__createCircle_xpm[] = {
"30 30 717 2",
"  	c none",
" a	c #4d4d4d",
" b	c #4b4c4d",
" c	c #474a4c",
" d	c #46494b",
" e	c #464a4c",
" f	c #464a4d",
" g	c #464b4d",
" h	c #464b4e",
" i	c #474c4e",
" j	c #4b4d4d",
" k	c #45494b",
" l	c #4e4e4d",
" m	c #6b5c54",
" n	c #736055",
" o	c #735f55",
" p	c #735e54",
" q	c #735f54",
" r	c #745f54",
" s	c #756055",
" t	c #766257",
" u	c #786358",
" v	c #786257",
" w	c #776055",
" x	c #765e51",
" y	c #745b4e",
" z	c #73594b",
" A	c #73574a",
" B	c #735748",
" C	c #735647",
" D	c #735546",
" E	c #6b5347",
" F	c #4e4d4d",
" G	c #454c4f",
" H	c #44494b",
" I	c #7e6458",
" J	c #db936e",
" K	c #fca274",
" L	c #ffa373",
" M	c #ffa271",
" N	c #ffa875",
" O	c #ffaf77",
" P	c #ffb278",
" Q	c #ffb078",
" R	c #ffae76",
" S	c #ffac71",
" T	c #ffa96b",
" U	c #ffa362",
" V	c #ff9758",
" W	c #ff8b4d",
" X	c #ff8241",
" Y	c #ff7c38",
" Z	c #ff7730",
" 0	c #ff7229",
" 1	c #fc6d24",
" 2	c #db6427",
" 3	c #7c523e",
" 4	c #434b4f",
" 5	c #7a6357",
" 6	c #fca373",
" 7	c #ffa574",
" 8	c #ffa171",
" 9	c #ffa071",
" !	c #ffa274",
" @	c #ffab79",
" #	c #ffb680",
" $	c #efa488",
" %	c #b27b92",
" ^	c #78539a",
" &	c #593e9e",
" *	c #51389f",
" (	c #52389e",
" )	c #684599",
" _	c #96608d",
" +	c #d58578",
" -	c #ff9b62",
" =	c #ff9550",
" {	c #ff7632",
" }	c #ff6f27",
" |	c #ff6b20",
" [	c #ff6817",
" ]	c #fc6314",
" :	c #774f3b",
" ;	c #434b4e",
" '	c #dc8f69",
" <	c #ffa371",
" >	c #ff9f6e",
" ?	c #ffa070",
" ,	c #ffa575",
" .	c #ffb57e",
" /	c #e19e8d",
"a 	c #6c4e9e",
"aa	c #261ca9",
"ab	c #3b2ba6",
"ac	c #73509c",
"ad	c #936494",
"ae	c #a66e8f",
"af	c #9f688e",
"ag	c #805393",
"ah	c #53389d",
"ai	c #281ba8",
"aj	c #3f29a1",
"ak	c #a9677f",
"al	c #ff9256",
"am	c #ff853d",
"an	c #ff712b",
"ao	c #ff691d",
"ap	c #ff6215",
"aq	c #ff600c",
"ar	c #da5716",
"as	c #474747",
"at	c #4a4b4c",
"au	c #695952",
"av	c #fd9b6a",
"aw	c #ff9d6b",
"ax	c #ff9e6d",
"ay	c #ffa675",
"az	c #ffb482",
"aA	c #926899",
"aB	c #251ba9",
"aC	c #5f44a2",
"aD	c #ce8e8d",
"aE	c #ffab7b",
"aF	c #ffac6f",
"aG	c #ffa568",
"aH	c #ffa062",
"aI	c #ff9f5f",
"aJ	c #ff9f5e",
"aK	c #ff9f60",
"aL	c #ed906b",
"aM	c #9d6184",
"aN	c #311fa6",
"aO	c #452b9e",
"aP	c #d67a62",
"aQ	c #ff8537",
"aR	c #ff6b22",
"aS	c #ff6111",
"aT	c #ff5b08",
"aU	c #fd5704",
"aV	c #5f4437",
"aW	c #42484a",
"aX	c #715c51",
"aY	c #ff9a66",
"aZ	c #ff9b68",
"a0	c #feaf81",
"a1	c #68499e",
"a2	c #2d20a9",
"a3	c #c4898f",
"a4	c #ffb277",
"a5	c #ffa269",
"a6	c #ff955e",
"a7	c #ff8e55",
"a8	c #ff894f",
"a9	c #ff8649",
"a!	c #ff8345",
"a@	c #ff8243",
"a#	c #ff8242",
"a$	c #ff8644",
"a%	c #ff9149",
"a^	c #fa9159",
"a&	c #7d4a8a",
"a*	c #1b11ab",
"a(	c #bc6768",
"a)	c #ff7f2e",
"a_	c #ff6315",
"a+	c #ff5804",
"a-	c #ff5400",
"a=	c #63402f",
"a{	c #3d4447",
"a}	c #705b50",
"a|	c #ff9762",
"a[	c #ff9e6a",
"a]	c #ffb07b",
"a:	c #68489d",
"a;	c #3324a7",
"a'	c #f0a684",
"a<	c #ffa76c",
"a>	c #ff935d",
"a?	c #ff8c53",
"a,	c #ff874c",
"a.	c #ff8447",
"a/	c #ff8142",
"b 	c #ff7f3e",
"ba	c #ff7b39",
"bb	c #ff7834",
"bc	c #ff7530",
"bd	c #ff732d",
"be	c #ff7a33",
"bf	c #ff8e40",
"bg	c #b06370",
"bh	c #110bad",
"bi	c #c0635e",
"bj	c #ff7520",
"bk	c #fb5b0b",
"bl	c #f85300",
"bm	c #5d3d2c",
"bn	c #3a4043",
"bo	c #705a4f",
"bp	c #ff9661",
"bq	c #ffac70",
"br	c #9b6992",
"bs	c #241aa9",
"bt	c #f0a381",
"bu	c #ffa067",
"bv	c #ff8e56",
"bw	c #ff884c",
"bx	c #ff8548",
"by	c #ff8244",
"bz	c #ff8040",
"bA	c #ff7d3c",
"bB	c #ff7a37",
"bC	c #ff7733",
"bD	c #ff742e",
"bE	c #ff7028",
"bF	c #ff6c23",
"bG	c #ff691e",
"bH	c #ff671b",
"bI	c #ff6c22",
"bJ	c #ff8331",
"bK	c #ab5b6c",
"bL	c #1f12a7",
"bM	c #e06f47",
"bN	c #fc6718",
"bO	c #f05305",
"bP	c #5b3b2b",
"bQ	c #393f42",
"bR	c #715b50",
"bS	c #ff9c63",
"bT	c #ea9a7d",
"bU	c #261ba7",
"bV	c #c2808a",
"bW	c #ffa366",
"bX	c #ff8041",
"bY	c #ff7e3d",
"bZ	c #ff7935",
"b0	c #ff7630",
"b1	c #ff722c",
"b2	c #ff681c",
"b3	c #ff6416",
"b4	c #ff6010",
"b5	c #ff5e0e",
"b6	c #ff802d",
"b7	c #63358a",
"b8	c #4e2a91",
"b9	c #fb762b",
"b!	c #eb580e",
"b@	c #5a3b2c",
"b#	c #383e41",
"b$	c #745d52",
"b%	c #ffa666",
"b^	c #845792",
"b&	c #4f35a0",
"b*	c #ffa96c",
"b(	c #ff8d53",
"b)	c #ff7c3a",
"b_	c #ff7936",
"b+	c #ff7129",
"b-	c #ff6d24",
"b=	c #ff6a1f",
"b{	c #ff661a",
"b}	c #ff6314",
"b|	c #ff5f0f",
"b[	c #ff5703",
"b]	c #fc5705",
"b:	c #fb681a",
"b;	c #e67445",
"b'	c #1e12a8",
"b<	c #bb5f56",
"b>	c #ee6418",
"b?	c #5b3e2f",
"b,	c #484c4e",
"b.	c #7a6356",
"b/	c #fc9d6c",
"c 	c #3b27a2",
"ca	c #c07a83",
"cb	c #ff9959",
"cc	c #ff8344",
"cd	c #ff7732",
"ce	c #ff712a",
"cf	c #ff6e26",
"cg	c #ff6b21",
"ch	c #ff681d",
"ci	c #ff6517",
"cj	c #ff6112",
"ck	c #ff5e0c",
"cl	c #ff5907",
"cm	c #ff5601",
"cn	c #fb5300",
"co	c #f45200",
"cp	c #ef580d",
"cq	c #fb7527",
"cr	c #76407e",
"cs	c #5b3189",
"ct	c #ed6e25",
"cu	c #5d4335",
"cv	c #393e41",
"cw	c #494d4f",
"cx	c #846b5a",
"cy	c #d78376",
"cz	c #2e1ea5",
"cA	c #f3946d",
"cB	c #ff8a4b",
"cC	c #ff7c39",
"cD	c #ff7835",
"cE	c #ff722b",
"cF	c #ff5c0a",
"cG	c #fe5500",
"cH	c #f25100",
"cI	c #ec4e00",
"cJ	c #e75005",
"cK	c #ec651b",
"cL	c #b75f56",
"cM	c #2718a4",
"cN	c #d56a3a",
"cO	c #63493a",
"cP	c #3a3f41",
"cQ	c #4a4e50",
"cR	c #8c725c",
"cS	c #a96680",
"cT	c #492f9e",
"cU	c #ff995c",
"cV	c #ff671a",
"cW	c #ff5d0c",
"cX	c #ff5a07",
"cY	c #ff5602",
"cZ	c #fc5400",
"c0	c #f65200",
"c1	c #f05000",
"c2	c #ea4e00",
"c3	c #e54c00",
"c4	c #de4b01",
"c5	c #de5915",
"c6	c #d86d3c",
"c7	c #2c1ca2",
"c8	c #af5a52",
"c9	c #6b503e",
"c!	c #3c4043",
"c@	c #4c5052",
"c#	c #8e735d",
"c$	c #935784",
"c%	c #653e94",
"c^	c #ff9551",
"c&	c #ff6e25",
"c*	c #ff5803",
"c(	c #fd5500",
"c)	c #f95300",
"c_	c #f35100",
"c+	c #ee4f00",
"c-	c #e84d00",
"c=	c #e24b00",
"c{	c #dd4a00",
"c}	c #d64700",
"c|	c #d55210",
"c[	c #dc6d31",
"c]	c #3f2698",
"c:	c #934e61",
"c;	c #6f553f",
"c'	c #3d4143",
"c<	c #8f735b",
"c>	c #8d5282",
"c?	c #623b93",
"c,	c #ff5b09",
"c.	c #ff5805",
"c/	c #fe5501",
"d 	c #fb5400",
"da	c #eb4f00",
"db	c #e04b00",
"dc	c #da4900",
"dd	c #d44700",
"de	c #ce4400",
"df	c #cd4e0f",
"dg	c #d76b2e",
"dh	c #422796",
"di	c #8b4a65",
"dj	c #6e5540",
"dk	c #3e4244",
"dl	c #4b5052",
"dm	c #8d7058",
"dn	c #a15a78",
"do	c #5d3794",
"dp	c #ff8c46",
"dq	c #ff7029",
"dr	c #ff6518",
"ds	c #f75200",
"dt	c #ed4f00",
"du	c #e74d00",
"dv	c #d74800",
"dw	c #d24600",
"dx	c #cc4400",
"dy	c #c64200",
"dz	c #c64d10",
"dA	c #ce6831",
"dB	c #412896",
"dC	c #924e5e",
"dD	c #6a533f",
"dE	c #494e50",
"dF	c #866853",
"dG	c #ca6c64",
"dH	c #341fa1",
"dI	c #fb844a",
"dJ	c #ff7026",
"dK	c #ff6011",
"dL	c #e94e00",
"dM	c #e44c00",
"dN	c #df4a00",
"dO	c #cf4500",
"dP	c #ca4300",
"dQ	c #c44100",
"dR	c #bf4001",
"dS	c #c14f15",
"dT	c #c1653a",
"dU	c #2d1ea2",
"dV	c #9c5452",
"dW	c #644e3d",
"dX	c #3d4042",
"dY	c #484d50",
"dZ	c #7c5f4e",
"d0	c #f57e49",
"d1	c #331ea1",
"d2	c #d06d5d",
"d3	c #ff7525",
"d4	c #ee5000",
"d5	c #db4900",
"d6	c #d14600",
"d7	c #cb4400",
"d8	c #c74200",
"d9	c #c14100",
"d!	c #bc3e00",
"d@	c #b84105",
"d#	c #c1561b",
"d$	c #9f5854",
"d%	c #2e1fa2",
"d^	c #b35e3b",
"d&	c #5b463a",
"d*	c #3c4041",
"d(	c #464c4f",
"d)	c #755747",
"d_	c #673789",
"d+	c #6c3a87",
"d-	c #ff7f2a",
"d=	c #fd5e0f",
"d{	c #e54d00",
"d}	c #e14b00",
"d|	c #dc4900",
"d[	c #d24700",
"d]	c #cd4500",
"d:	c #c84300",
"d;	c #c34100",
"d'	c #bd3f00",
"d<	c #b83d00",
"d>	c #b43c00",
"d?	c #b2440d",
"d,	c #c56326",
"d.	c #5e3881",
"d/	c #492e8f",
"e 	c #ba5d26",
"ea	c #533f35",
"eb	c #3b3f41",
"ec	c #725141",
"ed	c #ff6d19",
"ee	c #da6b4e",
"ef	c #2415a6",
"eg	c #d96e4f",
"eh	c #ff6c1c",
"ei	c #f15507",
"ej	c #ce4500",
"ek	c #c94300",
"el	c #bf4000",
"em	c #ba3e00",
"en	c #b53c00",
"eo	c #b03b00",
"ep	c #ad3d05",
"eq	c #b4501a",
"er	c #af6244",
"es	c #1f18ab",
"et	c #8e5259",
"eu	c #ab4e18",
"ev	c #4c3930",
"ew	c #464c50",
"ex	c #6f4e3d",
"ey	c #fc5c0c",
"ez	c #ff7725",
"eA	c #6e3a82",
"eB	c #4b2a95",
"eC	c #f87a35",
"eD	c #ed6017",
"eE	c #e55006",
"eF	c #d34700",
"eG	c #c54200",
"eH	c #c04000",
"eI	c #bb3f00",
"eJ	c #b63d00",
"eK	c #b13b00",
"eL	c #ad3a00",
"eM	c #a93b04",
"eN	c #ab4713",
"eO	c #bd652d",
"eP	c #523389",
"eQ	c #462e91",
"eR	c #af5c2b",
"eS	c #983c0e",
"eT	c #49352c",
"eU	c #464d50",
"eV	c #6d4c3c",
"eW	c #f45303",
"eX	c #f46115",
"eY	c #ee7438",
"eZ	c #321d9f",
"e0	c #6c3b84",
"e1	c #f5792f",
"e2	c #e25d18",
"e3	c #d84d08",
"e4	c #d24701",
"e5	c #c54100",
"e6	c #bb3e00",
"e7	c #b73d00",
"e8	c #b23b00",
"e9	c #ad3900",
"e!	c #a93900",
"e@	c #a63b06",
"e#	c #a84614",
"e$	c #ba6129",
"e%	c #724571",
"e^	c #1e17ac",
"e&	c #9b5946",
"e*	c #9c4717",
"e(	c #8c3205",
"e)	c #46342b",
"e_	c #3c3f41",
"e+	c #474d50",
"e-	c #6c4c3c",
"e=	c #e75208",
"e{	c #ee651a",
"e}	c #d26a46",
"e|	c #291aa3",
"e[	c #5f3588",
"e]	c #e37437",
"e:	c #dd631e",
"e;	c #cd5011",
"e'	c #c64707",
"e<	c #c14202",
"e>	c #bc3f00",
"e?	c #ae3a00",
"e,	c #aa3a01",
"e.	c #a73b06",
"e/	c #a5400d",
"f 	c #ac4e1a",
"fa	c #b6622f",
"fb	c #714571",
"fc	c #1814b1",
"fd	c #875159",
"fe	c #9f4f1e",
"ff	c #89340b",
"fg	c #832b00",
"fh	c #45332a",
"fi	c #484d4f",
"fj	c #624b40",
"fk	c #df4b01",
"fl	c #e04b01",
"fm	c #db500b",
"fn	c #e5641c",
"fo	c #ca6745",
"fp	c #3c2399",
"fq	c #3a229d",
"fr	c #ab5c58",
"fs	c #d76c2e",
"ft	c #cf601f",
"fu	c #c25317",
"fv	c #b94b12",
"fw	c #b4470f",
"fx	c #b0450f",
"fy	c #ac4511",
"fz	c #ab4915",
"fA	c #b0521c",
"fB	c #b55f28",
"fC	c #9f5b49",
"fD	c #462d8e",
"fE	c #231aa9",
"fF	c #895256",
"fG	c #9e5020",
"fH	c #87360e",
"fI	c #7f2c02",
"fJ	c #792800",
"fK	c #3f332d",
"fL	c #3d3f41",
"fM	c #4c4d4e",
"fN	c #4a4b4b",
"fO	c #b84810",
"fP	c #de4700",
"fQ	c #d24702",
"fR	c #d04c0b",
"fS	c #d75c1a",
"fT	c #d36a34",
"fU	c #713f79",
"fV	c #2518a6",
"fW	c #402695",
"fX	c #894d66",
"fY	c #af5e47",
"fZ	c #bc6336",
"f0	c #bd622e",
"f1	c #b9612e",
"f2	c #b46032",
"f3	c #a85d3f",
"f4	c #884f5b",
"f5	c #513386",
"f6	c #1f17ab",
"f7	c #4a318b",
"f8	c #975741",
"f9	c #984b1d",
"f!	c #84340d",
"f@	c #7b2b03",
"f#	c #7a2700",
"f$	c #65290a",
"f%	c #343536",
"f^	c #3f4040",
"f&	c #634637",
"f*	c #cb4403",
"f(	c #d34400",
"f)	c #c94401",
"f_	c #c54607",
"f+	c #c75013",
"f-	c #d26321",
"f=	c #b76043",
"f{	c #704076",
"f}	c #34219c",
"f|	c #2c1da3",
"f[	c #32219e",
"f]	c #3e2896",
"f:	c #3c2696",
"f;	c #3b2799",
"f'	c #271ba5",
"f<	c #2a1ea4",
"f>	c #503386",
"f?	c #8b5250",
"f,	c #a15628",
"f.	c #8f4116",
"f/	c #80310a",
"g 	c #792a01",
"ga	c #772600",
"gb	c #6f2502",
"gc	c #3e2e26",
"gd	c #343739",
"ge	c #414141",
"gf	c #4d4c4c",
"gg	c #40474a",
"gh	c #5b4031",
"gi	c #a23f0e",
"gj	c #bb3f02",
"gk	c #b74004",
"gl	c #b5440b",
"gm	c #b94e16",
"gn	c #c15c20",
"go	c #bb6030",
"gp	c #a45a46",
"gq	c #894e5a",
"gr	c #7b4764",
"gs	c #784665",
"gt	c #7e495f",
"gu	c #8c514f",
"gv	c #9e5937",
"gw	c #a15424",
"gx	c #924418",
"gy	c #83350e",
"gz	c #7b2c05",
"gA	c #762801",
"gB	c #6f2602",
"gC	c #5f270c",
"gD	c #3c2d25",
"gE	c #2f3335",
"gF	c #3a3a3a",
"gG	c #444444",
"gH	c #4a4a4a",
"gI	c #3e4346",
"gJ	c #383a3b",
"gK	c #45352e",
"gL	c #493328",
"gM	c #483228",
"gN	c #473228",
"gO	c #48342b",
"gP	c #4b382f",
"gQ	c #503e35",
"gR	c #574639",
"gS	c #5d4b3b",
"gT	c #604e3d",
"gU	c #604f3e",
"gV	c #5d4c3c",
"gW	c #57473a",
"gX	c #4e3f36",
"gY	c #463831",
"gZ	c #41332c",
"g0	c #3e3029",
"g1	c #3d2f28",
"g2	c #3c2e27",
"g3	c #382f2a",
"g4	c #2f3131",
"g5	c #303335",
"g6	c #383737",
"g7	c #404040",
"g8	c #484848",
"g9	c #4c4c4c",
"g!	c #494949",
"g@	c #424343",
"g#	c #393c3e",
"g$	c #34383a",
"g%	c #323638",
"g^	c #333638",
"g&	c #333738",
"g*	c #36393a",
"g(	c #36393b",
"g)	c #37393b",
"g_	c #353839",
"g+	c #343738",
"g-	c #343638",
"g=	c #353738",
"g{	c #373838",
"g}	c #3b3b3b",
"g|	c #4b4b4b",
" a a a a b c d e e e e e e e e e e f f g h h h h i j a a a a",
" a a a k l m n o p q r s t u u v w x y z A B C D E F G a a a",
" a a H I J K L M M L N O P Q R S T U V W X Y Z 0 1 2 3 4 a a",
" a k 5 6 7 8 9 ! @ # $ % ^ & * ( ) _ + - = X { } | [ ] : ; a",
" b a ' < > ? , . /a aaabacadaeafagahaiajakalamanaoapaqarasat",
" cauavawaxayazaAaBaCaDaEaFaGaHaIaJaKaLaMaNaOaPaQaRaSaTaUaVaW",
" eaXaYaZ <a0a1a2a3a4a5a6a7a8a9a!a@a#a$a%a^a&a*a(a)a_a+a-a=a{",
" ea}a|a[a]a:a;a'a<a>a?a,a.a/b babbbcbdbdbebfbgbhbibjbkblbmbn",
" ebobpbqbrbsbtbubvbwbxbybzbAbBbCbDbEbFbGbHbIbJbKbLbMbNbObPbQ",
" ebRbSbTbUbVbWa?bxbybXbYbabZb0b1 }aRb2b3b4b5b3b6b7b8b9b!b@b#",
" gb$b%b^b&b*b(a!bXbYb)b_ {bDb+b-b=b{b}b|aTb[b]b:b;b'b<b>b?b#",
"b,b.b/c cacbccbAbab_cdbDcecfcgchcicjckclcmcncocpcqcrcsctcucv",
"cwcxcyczcAcBcCcD {bDcE }bIbGb{a_b|cFa+cGblcHcIcJcKcLcMcNcOcP",
"cQcRcScTcUbzbcbdce }bFb=cVb3aScWcXcYcZc0c1c2c3c4c5c6c7c8c9c!",
"c@c#c$c%c^b_bEc&bIbGcVb3cjb5aTc*c(c)c_c+c-c=c{c}c|c[c]c:c;c'",
"c@c<c>c?a%bD |aob{b3cjb5c,c.c/d c0c1dac3dbdcdddedfdgdhdidjdk",
"dldmdndodpdqdra_aSb5c,c.cmd dscHdtduc=c{dvdwdxdydzdAdBdCdDc'",
"dEdFdGdHdIdJdKcWaTa+cmcZdsc_c+dLdMdNdcdddOdPdQdRdSdTdUdVdWdX",
"dYdZd0d1d2d3cWc*c/d dsc_d4c2c3dbd5c}d6d7d8d9d!d@d#d$d%d^d&d*",
"d(d)b6d_d+d-d=d dscHd4c2d{d}d|dvd[d]d:d;d'd<d>d?d,d.d/e eaeb",
"d(ecedeeefegeheidtdLc3dbd|dvdwejekdQelemeneoepeqereseteueveb",
"ewexeyezeAeBeCeDeEdbd5dveFejekeGeHeIeJeKeLeMeNeOePeQeReSeTeb",
"eUeVeWeXeYeZe0e1e2e3e4deeke5eHe6e7e8e9e!e@e#e$e%e^e&e*e(e)e_",
"e+e-cIe=e{e}e|e[e]e:e;e'e<e>e7e8e?e,e.e/f fafbfcfdfefffgfhe_",
"fifjfkflfmfnfofpfqfrfsftfufvfwfxfyfzfAfBfCfDfEfFfGfHfIfJfKfL",
"fMfNfOfPfQfRfSfTfUfVfWfXfYfZf0f1f2f3f4f5f6f7f8f9f!f@f#f$f%f^",
" a hf&f*f(f)f_f+f-f=f{f}f|f[f]f:f;f'f<f>f?f,f.f/g gagbgcgdge",
" agfggghgigjeIgkglgmgngogpgqgrgsgtgugvgwgxgygzgAgBgCgDgEgFgG",
" a agHgIgJgKgLgMgNgOgPgQgRgSgTgUgVgWgXgYgZg0g1g2g3g4g5g6g7g8",
" a ag9g!g@g#g$g%g%g%g^g&gdg*g(g)g)g_g+g+g-g+g+g+g=g{g}geasg|"
};
