/* XPM */
static char * ford_riggingAid__createSpherical4Arrowhead_xpm[] = {
"30 30 760 2",
"  	c none",
" a	c #4d4d4d",
" b	c #4b4c4d",
" c	c #474a4c",
" d	c #46494b",
" e	c #464a4c",
" f	c #474b4d",
" g	c #484c4e",
" h	c #474c4e",
" i	c #474b4e",
" j	c #464b4e",
" k	c #4b4d4d",
" l	c #45494b",
" m	c #4e4e4d",
" n	c #6b5c54",
" o	c #736055",
" p	c #735f55",
" q	c #735f54",
" r	c #735e54",
" s	c #735e53",
" t	c #735d52",
" u	c #745e53",
" v	c #766055",
" w	c #796257",
" x	c #7d665a",
" y	c #81695b",
" z	c #846b5b",
" A	c #856b5a",
" B	c #826858",
" C	c #7f6455",
" D	c #7a5f51",
" E	c #765a4b",
" F	c #6c5448",
" G	c #4e4d4d",
" H	c #454c4f",
" I	c #44494b",
" J	c #7e6458",
" K	c #db936e",
" L	c #fca374",
" M	c #ffa373",
" N	c #ffa271",
" O	c #ffa06e",
" P	c #ff9e6c",
" Q	c #ff9c68",
" R	c #ff9a66",
" S	c #ffa06a",
" T	c #ffaa6f",
" U	c #ffa871",
" V	c #ff9f71",
" W	c #e99071",
" X	c #df8870",
" Y	c #d7806e",
" Z	c #e7896a",
" 0	c #f78f63",
" 1	c #ff9451",
" 2	c #ff853d",
" 3	c #fd722d",
" 4	c #db6528",
" 5	c #7c523e",
" 6	c #434b4f",
" 7	c #7a6357",
" 8	c #fca373",
" 9	c #ffa574",
" !	c #ffa171",
" @	c #ff9f6f",
" #	c #ff9e6e",
" $	c #ff9e6d",
" %	c #ff9d6b",
" ^	c #ff9b68",
" &	c #ff9966",
" *	c #ffa06c",
" (	c #e7977a",
" )	c #966586",
" _	c #604089",
" +	c #4f348a",
" -	c #472f8b",
" =	c #54378b",
" {	c #54378f",
" }	c #453095",
" |	c #4b3299",
" [	c #3f269f",
" ]	c #b25e69",
" :	c #ff792c",
" ;	c #ff691a",
" '	c #fc6314",
" <	c #774f3b",
" >	c #434b4e",
" ?	c #dc8f69",
" ,	c #ffa371",
" .	c #ff9d6d",
" /	c #ffa071",
"a 	c #ffac77",
"aa	c #ffab79",
"ab	c #ffa16f",
"ac	c #ffb577",
"ad	c #7c558c",
"ae	c #0f0b95",
"af	c #ad7587",
"ag	c #de947d",
"ah	c #fea477",
"ai	c #ffad76",
"aj	c #ffb179",
"ak	c #fdaf80",
"al	c #5e41a2",
"am	c #5e3999",
"an	c #cb6c5c",
"ao	c #ff7326",
"ap	c #ff6416",
"aq	c #ff600c",
"ar	c #da5716",
"as	c #474747",
"at	c #4a4b4c",
"au	c #695952",
"av	c #fd9c6a",
"aw	c #ff9d6a",
"ax	c #ff9b69",
"ay	c #ff9c6b",
"az	c #ffa372",
"aA	c #ffb47f",
"aB	c #cb8e8c",
"aC	c #5a3f8f",
"aD	c #c88989",
"aE	c #ffb77f",
"aF	c #8f628c",
"aG	c #452f94",
"aH	c #c28283",
"aI	c #ffaa73",
"aJ	c #ffad6c",
"aK	c #cd827e",
"aL	c #674297",
"aM	c #8b5c94",
"aN	c #a87091",
"aO	c #4e33a0",
"aP	c #ff9753",
"aQ	c #ff7d31",
"aR	c #ff671b",
"aS	c #ff5f0f",
"aT	c #ff5b08",
"aU	c #fd5704",
"aV	c #5f4437",
"aW	c #42484a",
"aX	c #715c51",
"aY	c #ff9a68",
"aZ	c #ffa26f",
"a0	c #feac7d",
"a1	c #805b8e",
"a2	c #0e0b95",
"a3	c #060799",
"a4	c #896399",
"a5	c #6d4d98",
"a6	c #5f3d90",
"a7	c #f19a74",
"a8	c #ffa669",
"a9	c #ffa568",
"a!	c #935c88",
"a@	c #40279e",
"a#	c #aa687c",
"a$	c #975983",
"a%	c #3e27a2",
"a^	c #b16171",
"a&	c #ff8032",
"a*	c #ff681d",
"a(	c #ff5a07",
"a)	c #ff5702",
"a_	c #ff5400",
"a+	c #63402f",
"a-	c #3d4447",
"a=	c #705b50",
"a{	c #ff9660",
"a}	c #ff9662",
"a|	c #ff9d69",
"a[	c #fda878",
"a]	c #5b3d8c",
"a:	c #664790",
"a;	c #cc908c",
"a'	c #bb7f8b",
"a<	c #8d5c8c",
"a>	c #a16483",
"a?	c #ff9b66",
"a,	c #ff975a",
"a.	c #f69461",
"a/	c #7b4d90",
"b 	c #66429a",
"ba	c #eb936f",
"bb	c #ff9853",
"bc	c #ff8f4a",
"bd	c #ff8649",
"be	c #ff7f39",
"bf	c #ff6c23",
"bg	c #ff6010",
"bh	c #ff5906",
"bi	c #fe5501",
"bj	c #fc5400",
"bk	c #f85200",
"bl	c #5d3d2c",
"bm	c #3a4043",
"bn	c #705a4f",
"bo	c #ff935c",
"bp	c #ff9762",
"bq	c #ffaa72",
"br	c #7b5288",
"bs	c #66468e",
"bt	c #ffb07c",
"bu	c #ffa66d",
"bv	c #ffa063",
"bw	c #ff9d5d",
"bx	c #ff9655",
"by	c #ff884b",
"bz	c #ff8947",
"bA	c #e48160",
"bB	c #1f15ab",
"bC	c #8b5c96",
"bD	c #f99b67",
"bE	c #ff924b",
"bF	c #ff8643",
"bG	c #ff8344",
"bH	c #f7783f",
"bI	c #ff6f23",
"bJ	c #ff5e0e",
"bK	c #f95200",
"bL	c #f45100",
"bM	c #f04f00",
"bN	c #5b3b2b",
"bO	c #393f42",
"bP	c #705a4e",
"bQ	c #ff925b",
"bR	c #ffa76b",
"bS	c #d89181",
"bT	c #563e92",
"bU	c #f8af89",
"bV	c #ffad71",
"bW	c #ff945b",
"bX	c #ff884d",
"bY	c #ff8345",
"bZ	c #ff8040",
"b0	c #ff7c3a",
"b1	c #ff7d3b",
"b2	c #ff8645",
"b3	c #db7c63",
"b4	c #74468e",
"b5	c #3f2aa6",
"b6	c #a05f7d",
"b7	c #ee8856",
"b8	c #74448e",
"b9	c #4b2f9e",
"b!	c #f2723b",
"b@	c #ff6413",
"b#	c #f75504",
"b$	c #f15000",
"b%	c #ed4f00",
"b^	c #ea4d00",
"b&	c #593a2b",
"b*	c #383e41",
"b(	c #464a4d",
"b)	c #725b4f",
"b_	c #ff9b60",
"b+	c #c5817c",
"b-	c #583e91",
"b=	c #483597",
"b{	c #634897",
"b}	c #784d8f",
"b|	c #e68665",
"b[	c #ff8848",
"b]	c #ff7e3e",
"b:	c #ff7d3c",
"b;	c #ff7b38",
"b'	c #ff7834",
"b<	c #ff7733",
"b>	c #ff8036",
"b?	c #ff8a3f",
"b,	c #d4745b",
"b.	c #6f408d",
"b/	c #4a30a2",
"c 	c #a55f7a",
"ca	c #7a498e",
"cb	c #83457c",
"cc	c #ff731f",
"cd	c #f0580c",
"ce	c #ea4e00",
"cf	c #e64c00",
"cg	c #e24b00",
"ch	c #583a2b",
"ci	c #745c50",
"cj	c #ff9e60",
"ck	c #623f89",
"cl	c #1a1498",
"cm	c #c88f92",
"cn	c #d4968e",
"co	c #2017a6",
"cp	c #bf6f72",
"cq	c #ff8c47",
"cr	c #ff8443",
"cs	c #ff8a49",
"ct	c #ff843a",
"cu	c #ff752f",
"cv	c #ff6e26",
"cw	c #ff6d24",
"cx	c #ff7527",
"cy	c #ff7a2e",
"cz	c #eb6d3b",
"cA	c #ff7e32",
"cB	c #ef7a48",
"cC	c #42299f",
"cD	c #d86943",
"cE	c #f06116",
"cF	c #e34e04",
"cG	c #de4a00",
"cH	c #db4800",
"cI	c #56392b",
"cJ	c #393e41",
"cK	c #464b4d",
"cL	c #735b4e",
"cM	c #ff9756",
"cN	c #734582",
"cO	c #744c8d",
"cP	c #ffc07b",
"cQ	c #8e6198",
"cR	c #54349a",
"cS	c #ff9759",
"cT	c #ff8949",
"cU	c #f98953",
"cV	c #5f3996",
"cW	c #59369a",
"cX	c #bb676c",
"cY	c #ff843b",
"cZ	c #ff7628",
"c0	c #ff6112",
"c1	c #ff600e",
"c2	c #ff5f0b",
"c3	c #fa6013",
"c4	c #ff7423",
"c5	c #804379",
"c6	c #703c7f",
"c7	c #f46f21",
"c8	c #dd520d",
"c9	c #d74800",
"c!	c #d34500",
"c@	c #55392b",
"c#	c #72584b",
"c$	c #ff8646",
"c%	c #f48858",
"c^	c #f89866",
"c&	c #ec9775",
"c*	c #3321a5",
"c(	c #d47c6d",
"c)	c #ff8d4a",
"c_	c #ff9047",
"c+	c #8f5485",
"c-	c #5337a1",
"c=	c #bc7573",
"c{	c #5a3696",
"c}	c #65388e",
"c|	c #d06952",
"c[	c #ff7122",
"c]	c #ff5e0d",
"c:	c #fc5501",
"c;	c #f65200",
"c'	c #f05203",
"c<	c #f05f14",
"c>	c #df6c3a",
"c?	c #351f9f",
"c,	c #c56246",
"c.	c #de5d17",
"c/	c #d04805",
"d 	c #cc4300",
"da	c #53382b",
"db	c #393f41",
"dc	c #715648",
"dd	c #ff7e3c",
"de	c #ff8e4a",
"df	c #ffa65c",
"dg	c #7e4e8f",
"dh	c #633a92",
"di	c #ff934a",
"dj	c #ff8542",
"dk	c #ea8159",
"dl	c #3a27a8",
"dm	c #db7b64",
"dn	c #ff8c3c",
"do	c #b16069",
"dp	c #563298",
"dq	c #a75061",
"dr	c #ff6814",
"ds	c #f45505",
"dt	c #ee5001",
"du	c #e84e01",
"dv	c #e3520a",
"dw	c #ef6a1d",
"dx	c #7b4074",
"dy	c #5e3385",
"dz	c #e16924",
"dA	c #cb4d0e",
"dB	c #c44200",
"dC	c #52372a",
"dD	c #3a3f41",
"dE	c #725649",
"dF	c #ff833b",
"dG	c #bf6866",
"dH	c #5e3b8f",
"dI	c #3320a2",
"dJ	c #cf7062",
"dK	c #ff893d",
"dL	c #834b86",
"dM	c #693e92",
"dN	c #ff8536",
"dO	c #ff691e",
"dP	c #ff6a1f",
"dQ	c #ff8831",
"dR	c #894f84",
"dS	c #884d7f",
"dT	c #ff7c2b",
"dU	c #f46518",
"dV	c #eb5c12",
"dW	c #e35810",
"dX	c #dd5510",
"dY	c #db5e1d",
"dZ	c #d86d39",
"d0	c #3b249b",
"d1	c #a85752",
"d2	c #ce5917",
"d3	c #be4305",
"d4	c #50372a",
"d5	c #745849",
"d6	c #ff893c",
"d7	c #683a82",
"d8	c #7b4a86",
"d9	c #d17762",
"d!	c #ff7c36",
"d@	c #ff762c",
"d#	c #e8764b",
"d$	c #3524a8",
"d%	c #e27b5c",
"d^	c #ff7728",
"d&	c #fe5c0c",
"d*	c #ff600d",
"d(	c #e36c3d",
"d)	c #4b32a2",
"d_	c #b56b75",
"d+	c #c76d5e",
"d-	c #c2624f",
"d=	c #cf643f",
"d{	c #d96733",
"d}	c #dc672a",
"d|	c #df6b28",
"d[	c #e87c35",
"d]	c #925975",
"d:	c #4f3293",
"d;	c #d0682c",
"d'	c #bb4910",
"d<	c #50382c",
"d>	c #745749",
"d?	c #ff863a",
"d,	c #6b3b83",
"d.	c #bc696b",
"d/	c #ff8837",
"e 	c #ff6d1b",
"ea	c #d7684a",
"eb	c #3f2ca7",
"ec	c #c26e6d",
"ed	c #fb7531",
"ee	c #f95d0f",
"ef	c #f85d0b",
"eg	c #d85f36",
"eh	c #663e8f",
"ei	c #5e3d97",
"ej	c #623e93",
"ek	c #49309e",
"el	c #503398",
"em	c #503297",
"en	c #563593",
"eo	c #683f88",
"ep	c #975b72",
"eq	c #c17c69",
"er	c #513ca2",
"es	c #9c595d",
"et	c #bf5418",
"eu	c #503a2f",
"ev	c #464c4e",
"ew	c #745648",
"ex	c #ff8132",
"ey	c #683881",
"ez	c #994f6d",
"eA	c #ff7927",
"eB	c #ff5f0e",
"eC	c #ff752b",
"eD	c #d7775f",
"eE	c #4b39ae",
"eF	c #9d536f",
"eG	c #fb6310",
"eH	c #ea5409",
"eI	c #e95b12",
"eJ	c #ea6721",
"eK	c #e66b2b",
"eL	c #e46d2c",
"eM	c #d86831",
"eN	c #ce6536",
"eO	c #c2613e",
"eP	c #b05b4c",
"eQ	c #864c6c",
"eR	c #5f3e8e",
"eS	c #5a419c",
"eT	c #322fbc",
"eU	c #4f379a",
"eV	c #b9551e",
"eW	c #513c30",
"eX	c #3b3f41",
"eY	c #464c4f",
"eZ	c #745545",
"e0	c #ff7b28",
"e1	c #7d4075",
"e2	c #864371",
"e3	c #ff7620",
"e4	c #fe5c0b",
"e5	c #fb5f11",
"e6	c #ff7929",
"e7	c #be6c6c",
"e8	c #5841a8",
"e9	c #c7634d",
"e!	c #ec5c11",
"e@	c #e14e04",
"e#	c #dc4d04",
"e$	c #d94f09",
"e%	c #d5500d",
"e^	c #d0500f",
"e&	c #cd5010",
"e*	c #c94f11",
"e(	c #c65114",
"e)	c #c55317",
"e_	c #c6591a",
"e+	c #c76124",
"e-	c #ba633b",
"e=	c #92545e",
"e{	c #8a4b56",
"e}	c #aa4917",
"e|	c #4f3a2f",
"e[	c #725242",
"e]	c #ff741d",
"e:	c #984a67",
"e;	c #783b76",
"e'	c #ff7621",
"e<	c #f66116",
"e>	c #ff6e1d",
"e?	c #ab5a66",
"e,	c #5239a3",
"e.	c #d26a4a",
"e/	c #ee651a",
"f 	c #dd500b",
"fa	c #d84801",
"fb	c #d24600",
"fc	c #ce4500",
"fd	c #c94300",
"fe	c #c44100",
"ff	c #bf4000",
"fg	c #bb3e00",
"fh	c #b53d02",
"fi	c #b13e03",
"fj	c #ae3e07",
"fk	c #ab410c",
"fl	c #aa4612",
"fm	c #ad4b13",
"fn	c #a8460f",
"fo	c #9c3a09",
"fp	c #4b372d",
"fq	c #70503f",
"fr	c #ff6c16",
"fs	c #b05458",
"ft	c #633281",
"fu	c #fd792e",
"fv	c #fa7225",
"fw	c #bd5f55",
"fx	c #4832a4",
"fy	c #cf6848",
"fz	c #ea641a",
"fA	c #d8500b",
"fB	c #d44803",
"fC	c #c54200",
"fD	c #c04000",
"fE	c #b63d00",
"fF	c #b13b00",
"fG	c #ad3900",
"fH	c #a83800",
"fI	c #a33600",
"fJ	c #9f3500",
"fK	c #9a3401",
"fL	c #973402",
"fM	c #943302",
"fN	c #913001",
"fO	c #48352b",
"fP	c #3c3f41",
"fQ	c #6f4e3e",
"fR	c #fc6413",
"fS	c #c95f48",
"fT	c #4e2b90",
"fU	c #f88341",
"fV	c #de774c",
"fW	c #4932a2",
"fX	c #bd6354",
"fY	c #e7641b",
"fZ	c #d44e0b",
"f0	c #ce4602",
"f1	c #b73d00",
"f2	c #b33c00",
"f3	c #ad3a00",
"f4	c #a93800",
"f5	c #a43700",
"f6	c #a03500",
"f7	c #9b3400",
"f8	c #973200",
"f9	c #923100",
"f!	c #8e2f00",
"f@	c #8c2e00",
"f#	c #892d00",
"f$	c #46342b",
"f%	c #474d50",
"f^	c #6c4c3d",
"f&	c #f15d10",
"f*	c #dd683a",
"f(	c #44299a",
"f)	c #e38861",
"f_	c #65459b",
"f+	c #874e78",
"f-	c #e66a21",
"f=	c #d04e0e",
"f{	c #ca4502",
"f}	c #c54100",
"f|	c #bc3f00",
"f[	c #b23c00",
"f]	c #ae3a00",
"f:	c #aa3800",
"f;	c #a53700",
"f'	c #a03600",
"f<	c #9c3400",
"f>	c #933100",
"f?	c #8f2f00",
"f,	c #8b2f00",
"f.	c #872d00",
"f/	c #842c00",
"g 	c #832b00",
"ga	c #45332b",
"gb	c #484d4f",
"gc	c #624b40",
"gd	c #e1550e",
"ge	c #eb6f2d",
"gf	c #5a3894",
"gg	c #845c96",
"gh	c #4a37a7",
"gi	c #db7038",
"gj	c #d05414",
"gk	c #c54404",
"gl	c #aa3900",
"gm	c #a13600",
"gn	c #983300",
"go	c #943100",
"gp	c #903000",
"gq	c #8b2e00",
"gr	c #802b00",
"gs	c #7e2a00",
"gt	c #792901",
"gu	c #3f342e",
"gv	c #3d3f41",
"gw	c #4c4d4e",
"gx	c #4a4b4b",
"gy	c #b94e18",
"gz	c #f06b1e",
"gA	c #804d80",
"gB	c #2224bf",
"gC	c #985d76",
"gD	c #da6522",
"gE	c #c34709",
"gF	c #b83d00",
"gG	c #af3b00",
"gH	c #a63700",
"gI	c #a23600",
"gJ	c #9d3500",
"gK	c #993300",
"gL	c #943200",
"gM	c #8c2f00",
"gN	c #882e00",
"gO	c #7d2a00",
"gP	c #792900",
"gQ	c #7a2700",
"gR	c #65290b",
"gS	c #343536",
"gT	c #3f4040",
"gU	c #66493a",
"gV	c #d75b17",
"gW	c #b65c51",
"gX	c #3e2fac",
"gY	c #c16443",
"gZ	c #c95214",
"g0	c #bb4003",
"g1	c #b63c00",
"g2	c #a43600",
"g3	c #8a2e00",
"g4	c #862c00",
"g5	c #822b00",
"g6	c #7b2900",
"g7	c #782800",
"g8	c #772600",
"g9	c #6f2602",
"g!	c #3e2e26",
"g@	c #343739",
"g#	c #414141",
"g$	c #4c4c4c",
"g%	c #42484b",
"g^	c #63483b",
"g&	c #ab5429",
"g*	c #b65632",
"g(	c #c2521a",
"g)	c #b94509",
"g_	c #b23c01",
"g+	c #a93900",
"g-	c #8f3000",
"g=	c #832c00",
"g{	c #7f2a00",
"g}	c #7c2900",
"g|	c #752700",
"g[	c #60270c",
"g]	c #3c2d25",
"g:	c #2f3335",
"g;	c #3a3a3a",
"g'	c #444444",
"g<	c #4b4a4a",
"g>	c #404548",
"g?	c #3e4040",
"g,	c #503f33",
"g.	c #4e392e",
"g/	c #4a352a",
"h 	c #473228",
"ha	c #463228",
"hb	c #453228",
"hc	c #443128",
"hd	c #433128",
"he	c #423128",
"hf	c #413128",
"hg	c #413028",
"hh	c #403028",
"hi	c #3f3028",
"hj	c #3e3028",
"hk	c #3e2f28",
"hl	c #3d2f28",
"hm	c #3c2f28",
"hn	c #382f2a",
"ho	c #2f3131",
"hp	c #303335",
"hq	c #383737",
"hr	c #404040",
"hs	c #484848",
"ht	c #494949",
"hu	c #424343",
"hv	c #393d3e",
"hw	c #34383a",
"hx	c #323638",
"hy	c #333638",
"hz	c #333738",
"hA	c #343738",
"hB	c #353738",
"hC	c #373838",
"hD	c #3b3b3b",
"hE	c #4b4b4b",
" a a a a b c d e e e e e e e e e f f g g h i j j h k a a a a",
" a a a l m n o p q r s t t u v w x y z A B C D E F G H a a a",
" a a I J K L M N O P Q R R S T U V W X Y Z 0 1 2 3 4 5 6 a a",
" a l 7 8 9 ! @ # $ % ^ & * ( ) _ + - = { } | [ ] : ; ' < > a",
" b a ? , # . $ /a aa Mabacadaeafagahaiajakalamanaoapaqarasat",
" cauavawaxayazaAaBaCaDaEaFaGaHaIaJaKaLaMaNaOaPaQaRaSaTaUaVaW",
" eaX R &aYaZa0a1a2a3a4a5a6a7a8a9a!a@a#a$a%a^a&a*aSa(a)a_a+a-",
" ea=a{a}a|a[a]a:a;a'a<a>a?a,a.a/b babbbcbdbebfbgbhbibjbkblbm",
" ebnbobpbqbrbsbtbubvbwbxbybzbAbBbCbDbEbFbGbHbIbJbibKbLbMbNbO",
" ebPbQbRbSbTbUbVbWbXbYbZb0b1b2b3b4b5b6b7b8b9b!b@b#b$b%b^b&b*",
"b(b)b_b+b-b=b{b}b|b[b]b:b;b'b<b>b?b,b.b/c cacbcccdcecfcgchb*",
"b(cicjckclcmcncocpcqcrcsb[ctcucvcwcxcyczcAcBcCcDcEcFcGcHcIcJ",
"cKcLcMcNcOcPcQcRcScTcUcVcWcXcYcZaRc0c1c2c3c4c5c6c7c8c9c!c@cJ",
"cKc#c$c%c^c&c*c(c)c_c+c-c=c{c}c|c[c]c:c;c'c<c>c?c,c.c/d dadb",
" jdcdddedfdgdhdidjdkdldmdnctdodpdqdrdsdtdudvdwdxdydzdAdBdCdD",
" jdEdFdGdHdIdJdFdKdLdMdNdOdPdQdRdSdTdUdVdWdXdYdZd0d1d2d3d4dD",
" jd5d6d7d8d9d!d@d#d$d%d^d&d*d(d)d_d+d-d=d{d}d|d[d]d:d;d'd<dD",
" jd>d?d,d.d/dOe eaebecedeeefegeheiejekelemeneoepeqereseteudD",
"evewexeyezeAeBbgeCeDeEeFeGeHeIeJeKeLeMeNeOePeQeReSeTeUeVeWeX",
"eYeZe0e1e2e3e4e5e6e7e8e9e!e@e#e$e%e^e&e*e(e)e_e+e-e=e{e}e|eX",
"eYe[e]e:e;e'e<e>e?e,e.e/f fafbfcfdfefffgfhfifjfkflfmfnfofpeX",
"eYfqfrfsftfufvfwfxfyfzfAfBfcfdfCfDfgfEfFfGfHfIfJfKfLfMfNfOfP",
"eYfQfRfSfTfUfVfWfXfYfZf0fdfCfDfgf1f2f3f4f5f6f7f8f9f!f@f#f$fP",
"f%f^f&f*f(f)f_f+f-f=f{f}fDf|f1f[f]f:f;f'f<f8f>f?f,f.f/g gafP",
"gbgcgdgegfggghgigjgkfDf|f1f2f]glf;gmf<gngogpgqf.f/grgsgtgugv",
"gwgxgygzgAgBgCgDgEf|gFf2gGglgHgIgJgKgLgpgMgNf/grgOgPgQgRgSgT",
" a jgUgVgWgXgYgZg0g1fFfGfHg2f6f7f8f>f!g3g4g5gsg6g7g8g9g!g@g#",
" ag$g%g^g&g*g(g)g_f3g+f5f'f<gnf>g-gqf.g=g{g}g7g|g9g[g]g:g;g'",
" a ag<g>g?g,g.g/h hahbhchchdhehfhghhhihjhkhlhlhmhnhohphqhrhs",
" a ag$hthuhvhwhxhxhxhxhyhyhyhyhyhzhzhAhAhAhAhAhAhBhChDg#ashE"
};
