/* XPM */
static char * ford_riggingAid_icons_shelf_xpm[] = {
"32 32 805 2",
"  	c none",
" a	c #4d4d4d",
" b	c #4a4c4c",
" c	c #484b4c",
" d	c #484b4d",
" e	c #484c4d",
" f	c #484c4e",
" g	c #4a4d4e",
" h	c #4a4b4c",
" i	c #44494b",
" j	c #55514f",
" k	c #625752",
" l	c #625751",
" m	c #625651",
" n	c #625650",
" o	c #62564f",
" p	c #62554f",
" q	c #62554e",
" r	c #63554e",
" s	c #63544d",
" t	c #63544c",
" u	c #62534c",
" v	c #62534b",
" w	c #62524a",
" x	c #625149",
" y	c #554f4b",
" z	c #444c4f",
" A	c #4e4d4d",
" B	c #474a4c",
" C	c #ad7d63",
" D	c #e79970",
" E	c #fba072",
" F	c #fb9f70",
" G	c #fb9d6f",
" H	c #fb9b6c",
" I	c #fb9a6a",
" J	c #fb9867",
" K	c #fb9664",
" L	c #fb9460",
" M	c #fb925d",
" N	c #fb905a",
" O	c #fb8f58",
" P	c #fc9057",
" Q	c #ff9452",
" R	c #ff8e4d",
" S	c #fb8347",
" T	c #fb7e3f",
" U	c #fb7a3a",
" V	c #fb7734",
" W	c #fb732f",
" X	c #fb6f2a",
" Y	c #e76927",
" Z	c #ad5c32",
" 0	c #554d49",
" 1	c #474c4e",
" 2	c #53504f",
" 3	c #d78f6b",
" 4	c #ffa976",
" 5	c #ffa373",
" 6	c #ffa171",
" 7	c #ffa06f",
" 8	c #ff9e6d",
" 9	c #ff9c6a",
" !	c #ff9a68",
" @	c #ff9965",
" #	c #ff9761",
" $	c #ff955e",
" %	c #ff945d",
" ^	c #ff975d",
" &	c #ffa15f",
" *	c #ffa669",
" (	c #c68080",
" )	c #dd856c",
" _	c #ff8e49",
" +	c #ff7f3d",
" -	c #ff7935",
" =	c #ff7530",
" {	c #ff722a",
" }	c #ff6e24",
" |	c #ff6b1e",
" [	c #ff6815",
" ]	c #d65d20",
" :	c #514b48",
" ;	c #494c4d",
" '	c #43484b",
" <	c #ac7a60",
" >	c #ffa673",
" ?	c #ff9f6f",
" ,	c #ff9e6e",
" .	c #ff9d6c",
" /	c #ff9b69",
"a 	c #ff9a67",
"aa	c #ff9864",
"ab	c #ff9762",
"ac	c #ff935b",
"ad	c #f69e6d",
"ae	c #c58f90",
"af	c #6d5ab3",
"ag	c #1018c4",
"ah	c #5b3e9e",
"ai	c #ff9c52",
"aj	c #ff7f3c",
"ak	c #ff7631",
"al	c #ff712b",
"am	c #ff6e26",
"an	c #ff6a1f",
"ao	c #ff661a",
"ap	c #ff6214",
"aq	c #ff610b",
"ar	c #a95227",
"as	c #3f484c",
"at	c #4c4c4c",
"au	c #4a4c4d",
"av	c #54504e",
"aw	c #e99368",
"ax	c #ffa06d",
"ay	c #ff9d6b",
"az	c #ff9f6c",
"aA	c #ffa16c",
"aB	c #ffa46b",
"aC	c #ffa66b",
"aD	c #ffa768",
"aE	c #ff9f63",
"aF	c #ff9257",
"aG	c #f19569",
"aH	c #9778ab",
"aI	c #4246cd",
"aJ	c #2125c4",
"aK	c #0305b6",
"aL	c #0000a8",
"aM	c #d58065",
"aN	c #ff863b",
"aO	c #ff722c",
"aP	c #ff6a20",
"aQ	c #ff5f0f",
"aR	c #ff5c08",
"aS	c #e7550d",
"aT	c #4b4441",
"aU	c #47494a",
"aV	c #494b4c",
"aW	c #605550",
"aX	c #f89767",
"aY	c #ff9c68",
"aZ	c #ffa76e",
"a0	c #ffae78",
"a1	c #f9ad81",
"a2	c #e6a48b",
"a3	c #cf9794",
"a4	c #ab809f",
"a5	c #b28096",
"a6	c #fe9e64",
"a7	c #ff965b",
"a8	c #ffa663",
"a9	c #c49197",
"a!	c #3538c7",
"a@	c #1111ba",
"a#	c #1f1598",
"a$	c #774475",
"a%	c #fe8436",
"a^	c #ff6f26",
"a&	c #ff6619",
"a*	c #ff5e0e",
"a(	c #ff5b08",
"a)	c #ff5703",
"a_	c #f65402",
"a+	c #534037",
"a-	c #414547",
"a=	c #60544f",
"a{	c #f89461",
"a}	c #ff9963",
"a|	c #ffa269",
"a[	c #ab7a97",
"a]	c #6b5cb9",
"a:	c #5b54c1",
"a;	c #4847c6",
"a'	c #363ac8",
"a<	c #2a31cb",
"a>	c #8f72aa",
"a?	c #eba87e",
"a,	c #ffad6c",
"a.	c #f8ad79",
"a/	c #6056be",
"b 	c #2224c2",
"ba	c #0001b4",
"bb	c #302198",
"bc	c #f09a62",
"bd	c #e67949",
"be	c #fe752d",
"bf	c #ff6d21",
"bg	c #ff671a",
"bh	c #ff6213",
"bi	c #ff5e0d",
"bj	c #ff5a07",
"bk	c #ff5602",
"bl	c #ff5400",
"bm	c #f15102",
"bn	c #4f3c33",
"bo	c #3e4244",
"bp	c #494b4d",
"bq	c #60544e",
"br	c #f8905d",
"bs	c #ffa564",
"bt	c #a27499",
"bu	c #121ac6",
"bv	c #1b1dbf",
"bw	c #1717bc",
"bx	c #1515ba",
"by	c #1919bb",
"bz	c #2425c0",
"bA	c #4340c1",
"bB	c #7965b2",
"bC	c #7763b3",
"bD	c #2f32c6",
"bE	c #1616ba",
"bF	c #0201b0",
"bG	c #b2777b",
"bH	c #ffa54a",
"bI	c #ff8135",
"bJ	c #ff772e",
"bK	c #ff7628",
"bL	c #ff6e1c",
"bM	c #ff6212",
"bN	c #ff5907",
"bO	c #ff5601",
"bP	c #fb5300",
"bQ	c #f85200",
"bR	c #ea4f02",
"bS	c #4c3a31",
"bT	c #3c4042",
"bU	c #60534d",
"bV	c #f88d57",
"bW	c #ff9058",
"bX	c #ff9b5e",
"bY	c #e99c7b",
"bZ	c #1511af",
"b0	c #0000aa",
"b1	c #0000a4",
"b2	c #0000ac",
"b3	c #0a0ab6",
"b4	c #1d1fbe",
"b5	c #262ac5",
"b6	c #2629c3",
"b7	c #1b1bbc",
"b8	c #0304b5",
"b9	c #0805a9",
"b!	c #926184",
"b@	c #d88765",
"b#	c #ff9447",
"b$	c #f68c4d",
"b%	c #7a4f92",
"b^	c #ee7b40",
"b&	c #ff7116",
"b*	c #fe5a07",
"b(	c #fa5400",
"b)	c #f45100",
"b_	c #f25000",
"b+	c #e44d02",
"b-	c #4a3930",
"b=	c #3c3f41",
"b{	c #5f534c",
"b}	c #f88951",
"b|	c #ff8c51",
"b[	c #ff8f55",
"b]	c #ffa866",
"b:	c #563b90",
"b;	c #000095",
"b'	c #563e88",
"b<	c #49368b",
"b>	c #0b089d",
"b?	c #0000b1",
"b,	c #090ab8",
"b.	c #1313b9",
"b/	c #0c0cb7",
"c 	c #0202b0",
"ca	c #0000a5",
"cb	c #0000a0",
"cc	c #0000a9",
"cd	c #0907b2",
"ce	c #4e3aa6",
"cf	c #7a589c",
"cg	c #252cc9",
"ch	c #503eac",
"ci	c #e37a45",
"cj	c #ff7013",
"ck	c #f25707",
"cl	c #ed5001",
"cm	c #eb4e00",
"cn	c #dd4b02",
"co	c #493830",
"cp	c #3b3f41",
"cq	c #5f524c",
"cr	c #f8854c",
"cs	c #ff884b",
"ct	c #ff884c",
"cu	c #ff9a54",
"cv	c #a96873",
"cw	c #4f3382",
"cx	c #ffa966",
"cy	c #ffa762",
"cz	c #dd9370",
"cA	c #96678a",
"cB	c #100bb0",
"cC	c #0101b2",
"cD	c #0000a6",
"cE	c #000097",
"cF	c #00008d",
"cG	c #00008e",
"cH	c #000099",
"cI	c #0206bb",
"cJ	c #1115c2",
"cK	c #1d1dbd",
"cL	c #090ec1",
"cM	c #291caa",
"cN	c #cb6d4c",
"cO	c #fd7117",
"cP	c #e75508",
"cQ	c #e44d01",
"cR	c #d64902",
"cS	c #483830",
"cT	c #5f524b",
"cU	c #f88246",
"cV	c #ff8445",
"cW	c #ff8244",
"cX	c #ff8646",
"cY	c #f7864e",
"cZ	c #f88850",
"c0	c #ff8945",
"c1	c #ff8644",
"c2	c #ffa551",
"c3	c #b87d83",
"c4	c #0604b4",
"c5	c #000090",
"c6	c #00007d",
"c7	c #070574",
"c8	c #000079",
"c9	c #000086",
"c!	c #0101ae",
"c@	c #160e98",
"c#	c #b6644d",
"c$	c #f36d17",
"c%	c #df5106",
"c^	c #d04702",
"c&	c #473830",
"c*	c #5f514a",
"c(	c #f87d40",
"c)	c #ff803e",
"c_	c #ff7d3d",
"c+	c #ff7d3c",
"c-	c #ff7f3b",
"c=	c #ff7e39",
"c{	c #ff7a37",
"c}	c #ff863c",
"c|	c #eb9161",
"c[	c #3029b6",
"c]	c #0102b6",
"c:	c #00009b",
"c;	c #00007f",
"c'	c #1a116b",
"c<	c #d38458",
"c>	c #a96456",
"c?	c #573467",
"c,	c #160e7f",
"c.	c #000091",
"c/	c #000088",
"d 	c #000082",
"da	c #000084",
"db	c #030386",
"dc	c #91494b",
"dd	c #de590d",
"de	c #cb4703",
"df	c #473730",
"dg	c #5f5149",
"dh	c #f87939",
"di	c #ff7936",
"dj	c #ff7a36",
"dk	c #ff7d39",
"dl	c #ff8337",
"dm	c #ff883b",
"dn	c #ff9a4c",
"do	c #8464a3",
"dp	c #1c22c6",
"dq	c #0606b2",
"dr	c #000093",
"ds	c #000076",
"dt	c #814d5a",
"du	c #ff9034",
"dv	c #ff7c22",
"dw	c #ff8129",
"dx	c #ea8944",
"dy	c #623c69",
"dz	c #00007a",
"dA	c #000073",
"dB	c #00006e",
"dC	c #00006b",
"dD	c #05056c",
"dE	c #2c1a6c",
"dF	c #6e3653",
"dG	c #d15311",
"dH	c #c54503",
"dI	c #463730",
"dJ	c #5f5049",
"dK	c #f87533",
"dL	c #ff7630",
"dM	c #ff742f",
"dN	c #ff7931",
"dO	c #f78245",
"dP	c #a27092",
"dQ	c #d99075",
"dR	c #c78c87",
"dS	c #4447cd",
"dT	c #2525c0",
"dU	c #0202ad",
"dV	c #00008c",
"dW	c #140d70",
"dX	c #e97c3d",
"dY	c #ff6a13",
"dZ	c #fe5804",
"d0	c #fb5e0b",
"d1	c #ff7d26",
"d2	c #412769",
"d3	c #140d64",
"d4	c #472b58",
"d5	c #874d4b",
"d6	c #bd673c",
"d7	c #db6d27",
"d8	c #db5e12",
"d9	c #cb4a07",
"d!	c #bd4103",
"d@	c #453730",
"d#	c #5f5048",
"d$	c #f8702c",
"d%	c #ff7129",
"d^	c #ff7028",
"d&	c #ff7a2d",
"d*	c #e8875a",
"d(	c #5b5ed2",
"d)	c #5e60d3",
"d_	c #5a58cb",
"d+	c #3c3dc7",
"d-	c #1616bb",
"d=	c #7e4b5f",
"d{	c #ff8124",
"d}	c #fb5a07",
"d|	c #f65100",
"d[	c #f55603",
"d]	c #de5b1c",
"d:	c #6a3252",
"d;	c #9e5344",
"d'	c #d36f35",
"d<	c #e97326",
"d>	c #e66919",
"d?	c #d85910",
"d,	c #cc4d09",
"d.	c #c54505",
"d/	c #c14101",
"e 	c #b63e02",
"ea	c #5f4f47",
"eb	c #f86b25",
"ec	c #ff6c22",
"ed	c #ff6b21",
"ee	c #ff7c2a",
"ef	c #d2836e",
"eg	c #5256d2",
"eh	c #5253cd",
"ei	c #4142c8",
"ej	c #2424bf",
"ek	c #0404b2",
"el	c #0b077d",
"em	c #d57f50",
"en	c #ff8425",
"eo	c #f65d0a",
"ep	c #ed5102",
"eq	c #e95002",
"er	c #e55409",
"es	c #ed600e",
"et	c #ea6110",
"eu	c #dd570d",
"ev	c #d24d07",
"ew	c #c54201",
"ex	c #c04000",
"ey	c #bb3e00",
"ez	c #b93d00",
"eA	c #af3b02",
"eB	c #443730",
"eC	c #5f4f46",
"eD	c #f8671e",
"eE	c #ff7d27",
"eF	c #b47681",
"eG	c #4046d1",
"eH	c #3e3ec5",
"eI	c #2626bf",
"eJ	c #0808b5",
"eK	c #000087",
"eL	c #020174",
"eM	c #211469",
"eN	c #6a3757",
"eO	c #de5b1b",
"eP	c #ea5202",
"eQ	c #e04b01",
"eR	c #dc4b01",
"eS	c #d84a02",
"eT	c #d24801",
"eU	c #cd4500",
"eV	c #c84200",
"eW	c #c34000",
"eX	c #be3f00",
"eY	c #b93e00",
"eZ	c #b43c00",
"e0	c #b23b00",
"e1	c #a83902",
"e2	c #433630",
"e3	c #5f4e46",
"e4	c #f86217",
"e5	c #ff6415",
"e6	c #ff7f26",
"e7	c #916592",
"e8	c #2f36cc",
"e9	c #0909b5",
"e!	c #0000a3",
"e@	c #00008a",
"e#	c #000075",
"e$	c #000068",
"e%	c #00006a",
"e^	c #643454",
"e&	c #e25f18",
"e*	c #e04e03",
"e(	c #d94800",
"e)	c #d44600",
"e_	c #cf4400",
"e+	c #ca4300",
"e-	c #c54100",
"e=	c #b63d00",
"e{	c #ad3a00",
"e}	c #ab3900",
"e|	c #a23702",
"e[	c #423630",
"e]	c #3d3f41",
"e:	c #484d4f",
"e;	c #5f4e44",
"e'	c #f85d10",
"e<	c #ff5d0a",
"e>	c #ff620f",
"e?	c #ff7f29",
"e,	c #6e52a3",
"e.	c #2025c6",
"e/	c #00008b",
"f 	c #000074",
"fa	c #000065",
"fb	c #090760",
"fc	c #96554a",
"fd	c #f27320",
"fe	c #df550a",
"ff	c #d54802",
"fg	c #d04500",
"fh	c #cc4400",
"fi	c #c64200",
"fj	c #c24000",
"fk	c #bd3f00",
"fl	c #b83d00",
"fm	c #af3a00",
"fn	c #aa3900",
"fo	c #a63800",
"fp	c #a43600",
"fq	c #9b3502",
"fr	c #5f4d44",
"fs	c #f85808",
"ft	c #ff5802",
"fu	c #ff610a",
"fv	c #f97d33",
"fw	c #483bb2",
"fx	c #0d11bd",
"fy	c #000063",
"fz	c #1d135a",
"fA	c #b46441",
"fB	c #f0711e",
"fC	c #d9520b",
"fD	c #d24802",
"fE	c #c84300",
"fF	c #c44100",
"fG	c #ba3e00",
"fH	c #b63c00",
"fI	c #b03b00",
"fJ	c #ac3900",
"fK	c #a73800",
"fL	c #a33700",
"fM	c #9f3500",
"fN	c #9d3400",
"fO	c #953302",
"fP	c #413630",
"fQ	c #3d4041",
"fR	c #5f4c43",
"fS	c #fd5400",
"fT	c #fe630b",
"fU	c #de7645",
"fV	c #2220b9",
"fW	c #0001b0",
"fX	c #000077",
"fY	c #362256",
"fZ	c #cc6f39",
"f0	c #e96919",
"f1	c #d34e08",
"f2	c #cd4601",
"f3	c #c94300",
"f4	c #a83800",
"f5	c #a53700",
"f6	c #a03600",
"f7	c #9c3400",
"f8	c #983300",
"f9	c #963200",
"f!	c #8e3002",
"f@	c #403530",
"f#	c #494d4f",
"f$	c #ef5102",
"f%	c #f65300",
"f^	c #fc680f",
"f&	c #ba675a",
"f*	c #0204b8",
"f(	c #00009a",
"f)	c #000069",
"f_	c #553354",
"f+	c #dc7532",
"f-	c #e06014",
"f=	c #ce4a06",
"f{	c #c94301",
"f}	c #bb3f00",
"f|	c #b73d00",
"f[	c #b33c00",
"f]	c #ae3a00",
"f:	c #a93800",
"f;	c #a13600",
"f'	c #943200",
"f<	c #913000",
"f>	c #8f2f00",
"f?	c #882e02",
"f,	c #3f3530",
"f.	c #5e4c43",
"f/	c #e84f02",
"g 	c #ee5101",
"ga	c #f96e14",
"gb	c #8d4f6d",
"gc	c #0000a7",
"gd	c #000170",
"ge	c #764650",
"gf	c #e4752a",
"gg	c #d75810",
"gh	c #c94704",
"gi	c #c54200",
"gj	c #bc3f00",
"gk	c #af3b00",
"gl	c #a23600",
"gm	c #9e3500",
"gn	c #993300",
"go	c #953200",
"gp	c #913100",
"gq	c #8d2f00",
"gr	c #8a2e00",
"gs	c #892d00",
"gt	c #822c02",
"gu	c #5c4c43",
"gv	c #df4c02",
"gw	c #e65003",
"gx	c #f3701a",
"gy	c #653976",
"gz	c #0d0a77",
"gA	c #95564b",
"gB	c #e47123",
"gC	c #cf510d",
"gD	c #c44402",
"gE	c #a23700",
"gF	c #9a3300",
"gG	c #923100",
"gH	c #8e2f00",
"gI	c #862d00",
"gJ	c #832c00",
"gK	c #812b00",
"gL	c #7b2a02",
"gM	c #3e3530",
"gN	c #3e4041",
"gO	c #4b4d4e",
"gP	c #504b49",
"gQ	c #c94909",
"gR	c #e35003",
"gS	c #e5691c",
"gT	c #321c81",
"gU	c #1b1181",
"gV	c #b06342",
"gW	c #e06a1c",
"gX	c #c84c0a",
"gY	c #c14202",
"gZ	c #9b3400",
"g0	c #973200",
"g1	c #8f3000",
"g2	c #8b2e00",
"g3	c #872d00",
"g4	c #7f2b00",
"g5	c #7c2a00",
"g6	c #7c2800",
"g7	c #6e2906",
"g8	c #383534",
"g9	c #3f4041",
"g!	c #444b50",
"g@	c #8e4724",
"g#	c #e34d00",
"g$	c #cb551c",
"g%	c #532867",
"g^	c #bb5d31",
"g&	c #d86115",
"g*	c #c34808",
"g(	c #bd4001",
"g)	c #a43700",
"g_	c #a03500",
"g+	c #933100",
"g-	c #8c2f00",
"g=	c #882d00",
"g{	c #842c00",
"g}	c #802b00",
"g|	c #7d2a00",
"g[	c #7a2900",
"g]	c #772800",
"g:	c #792600",
"g;	c #522b19",
"g'	c #333739",
"g<	c #414141",
"g>	c #494645",
"g?	c #a74714",
"g,	c #d34b08",
"g.	c #cf5210",
"g/	c #d05109",
"h 	c #c34505",
"ha	c #b03a00",
"hb	c #a83700",
"hc	c #a33600",
"hd	c #9f3400",
"he	c #9b3300",
"hf	c #872c00",
"hg	c #832b00",
"hh	c #802a00",
"hi	c #7c2900",
"hj	c #792800",
"hk	c #772600",
"hl	c #762500",
"hm	c #5d280d",
"hn	c #323130",
"ho	c #373838",
"hp	c #424242",
"hq	c #4d4d4c",
"hr	c #45494a",
"hs	c #434241",
"ht	c #7e401f",
"hu	c #ac4109",
"hv	c #b34005",
"hw	c #b03d03",
"hx	c #ab3b03",
"hy	c #a73a03",
"hz	c #a33903",
"hA	c #a03803",
"hB	c #9c3603",
"hC	c #983503",
"hD	c #943303",
"hE	c #913203",
"hF	c #8d3103",
"hG	c #893003",
"hH	c #862f03",
"hI	c #822d03",
"hJ	c #7e2d03",
"hK	c #7b2b03",
"hL	c #782a03",
"hM	c #752903",
"hN	c #722803",
"hO	c #6e2703",
"hP	c #652708",
"hQ	c #4d2a19",
"hR	c #30302f",
"hS	c #323435",
"hT	c #3b3b3b",
"hU	c #454545",
"hV	c #4b4b4b",
"hW	c #444546",
"hX	c #363d40",
"hY	c #383635",
"hZ	c #3e332e",
"h0	c #3d322c",
"h1	c #3c322c",
"h2	c #3c312c",
"h3	c #3b312c",
"h4	c #3a312c",
"h5	c #39312c",
"h6	c #38302c",
"h7	c #37302c",
"h8	c #36302c",
"h9	c #313030",
"h!	c #2e3234",
"h@	c #333434",
"h#	c #393939",
"h$	c #484848",
"h%	c #4a4a4a",
"h^	c #3d3f3f",
"h&	c #373a3b",
"h*	c #353839",
"h(	c #343738",
"h)	c #353738",
"h_	c #363738",
"h+	c #383838",
"h-	c #3c3c3c",
"h=	c #474747",
" a a a a a b c c c c c c c c d d d d d d d e f f f f g a a a a a",
" a a a h i j k k l l l m n n o p q r r s t u v w w x y z g A a a",
" a a B j C D E F G H I J K L M N O P Q R S T U V W X Y Z 0 1 A a",
" a b 2 3 4 5 6 7 8 9 ! @ # $ % ^ & * ( ) _ + - = { } | [ ] : ; a",
" a ' < > ? , . 9 /a aaab %ac ^adaeafagahaiajakalamanaoapaqarasat",
"auavawaxay .azaAaBaCaDaE %aFaGaHaIaJaKaLaMaNaOamaPaoapaQaRaSaTaU",
"aVaWaXaYayaZa0a1a2a3a4a5a6a7a8a9a!a@aLa#a$a%a^ana&apa*a(a)a_a+a-",
"aVa=a{a}a|a[a]a:a;a'a<a>a?a,a.a/b babbbcbdbebfbgbhbibjbkblbmbnbo",
"bpbqbr $bsbtbubvbwbxbybzbAbBbCbDbEbFbGbHbIbJbKbLbMbNbObPbQbRbSbT",
"bpbUbVbWbXbYbZb0b1b1b2b3b4b5b6b7b8b9b!b@b#b$b%b^b&b*b(b)b_b+b-b=",
" db{b}b|b[b]b:b;b'b<b>b?b,b.b/c cacbcccdcecfcgchcicjckclcmcncocp",
" dcqcrcsctcucvcwcxcyczcAcBcCcDcEcFcGcHb2cIcJcKcLcMcNcOcPcQcRcScp",
" ecTcUcVcWcXcYcZc0c1c2c3c4cDc5c6c7c8c9cEcDc!c!aLcDc@c#c$c%c^c&cp",
" ec*c(c)c_c+c-c=c{c}c|c[c]c:c;c'c<c>c?c,cFc.cGc/d dadbdcdddedfb=",
" edgdhc{didjdkdldmdndodpdqdrdsdtdudvdwdxdydzdAdBdCdDdEdFdGdHdIb=",
" fdJdKdLdMdNdOdPdQdRdSdTdUdVdWdXdYdZd0d1d2dAd3d4d5d6d7d8d9d!d@b=",
" fd#d$d%d^d&d*d(d)d_d+d-b1c/d=d{d}d|d[d]d:d;d'd<d>d?d,d.d/e d@b=",
" feaebecedeeefegeheiejekcEelemeneoepeqereseteuevdeewexeyezeAeBb=",
" feCeDbgbgeEeFeGeHeIeJcbeKeLeMeNeOePeQeReSeTeUeVeWeXeYeZe0e1e2b=",
" fe3e4bMe5e6e7e8eIe9e!e@e#e$e%e^e&e*e(e)e_e+e-exeye=e0e{e}e|e[e]",
"e:e;e'e<e>e?e,e.b/b1e/f fafbfcfdfefffgfhfifjfkfleZfmfnfofpfqe[e]",
"e:frfsftfufvfwfxaLcFf fyfzfAfBfCfDfhfEfFeXfGfHfIfJfKfLfMfNfOfPfQ",
"e:fRa_fSfTfUfVfWdrfXfafYfZf0f1f2f3fFexeye=e0e{f4f5f6f7f8f9f!f@fQ",
"f#fRf$f%f^f&f*f(c6f)f_f+f-f=f{fFexf}f|f[f]f:f5f;fNf8f'f<f>f?f,fQ",
"f#f.f/g gagbgcc9gdgegfggghgiexgjf|f[gkfnfoglgmgngogpgqgrgsgtf,fQ",
"f#gugvgwgxgycEgzgAgBgCgDexgjflf[gke}fogEgmgFf9gGgHgrgIgJgKgLgMgN",
"gOgPgQgRgSgTgUgVgWgXgYgjfleZgke}fKfLfMgZg0gGg1g2g3gJg4g5g6g7g8g9",
" ag!g@g#g$g%g^g&g*g(ezeZfIfJf4g)g_gZf8g+g1g-g=g{g}g|g[g]g:g;g'g<",
" aaug>g?g,g.g/h fkfleZhafJhbhchdheg0g+f>g2hfhghhhihjhkhlhmhnhohp",
" ahqhrhshthuhvhwhxhyhzhAhBhChDhEhFhGhHhIhJhKhLhMhNhOhPhQhRhShThU",
" a ahVhWhXhYhZh0h1h2h3h3h3h4h4h4h5h5h6h6h6h7h7h7h7h8h9h!h@h#hph$",
" a aath%hUh^h&h*h(h(h(h(h(h(h(h)h)h)h)h)h)h)h)h)h)h)h_h+h-hph=hV"
};
