/* XPM */
static char * ford_riggingAid__createNURBScube_xpm[] = {
"30 30 811 2",
"  	c none",
" a	c #4d4d4d",
" b	c #4b4c4c",
" c	c #474a4b",
" d	c #46494b",
" e	c #464a4c",
" f	c #464a4d",
" g	c #464b4d",
" h	c #464b4e",
" i	c #474c4e",
" j	c #4b4d4d",
" k	c #504e4e",
" l	c #6c5d55",
" m	c #746157",
" n	c #756157",
" o	c #756258",
" p	c #766257",
" q	c #776257",
" r	c #786257",
" s	c #786256",
" t	c #796257",
" u	c #796256",
" v	c #796155",
" w	c #796054",
" x	c #795f52",
" y	c #775c4f",
" z	c #75594a",
" A	c #745647",
" B	c #6b5346",
" C	c #4e4d4d",
" D	c #454c4f",
" E	c #484c4e",
" F	c #826b5e",
" G	c #e29f79",
" H	c #ffb283",
" I	c #ffb484",
" J	c #ffb582",
" K	c #ffb481",
" L	c #ffb480",
" M	c #ffb47e",
" N	c #ffb37c",
" O	c #ffb27a",
" P	c #ffb077",
" Q	c #ffae75",
" R	c #ffab71",
" S	c #ffa96e",
" T	c #ffa56a",
" U	c #ffa267",
" V	c #ff9f63",
" W	c #ff9d5f",
" X	c #ff9855",
" Y	c #ff8945",
" Z	c #ff7a35",
" 0	c #fc7029",
" 1	c #db6527",
" 2	c #7c523e",
" 3	c #434b4f",
" 4	c #474b4d",
" 5	c #816b60",
" 6	c #ffb389",
" 7	c #eba993",
" 8	c #d59a92",
" 9	c #c78f90",
" !	c #ba848e",
" @	c #af7b8d",
" #	c #a1728e",
" $	c #96698f",
" %	c #8a6090",
" ^	c #7c5690",
" &	c #714e8f",
" *	c #67468d",
" (	c #5f408c",
" )	c #593b8a",
" _	c #553786",
" +	c #523584",
" -	c #553782",
" =	c #593a83",
" {	c #71467f",
" }	c #da8168",
" |	c #ff914a",
" [	c #ff7f36",
" ]	c #ff7024",
" :	c #fc6619",
" ;	c #78503c",
" '	c #434b4e",
" <	c #4b4c4d",
" >	c #525151",
" ?	c #e8a27b",
" ,	c #b27f90",
" .	c #151188",
" /	c #31288f",
"a 	c #473993",
"aa	c #463591",
"ab	c #4d3891",
"ac	c #553c92",
"ad	c #5d4195",
"ae	c #674794",
"af	c #785191",
"ag	c #83588d",
"ah	c #8f5f89",
"ai	c #996486",
"aj	c #a46981",
"ak	c #b4717a",
"al	c #c07b7a",
"am	c #ca8983",
"an	c #3b2a92",
"ao	c #4a3695",
"ap	c #2e1f96",
"aq	c #693e85",
"ar	c #d77a62",
"as	c #ff8a40",
"at	c #ff7624",
"au	c #db5e20",
"av	c #4a4948",
"aw	c #4a4b4c",
"ax	c #474a4c",
"ay	c #6e5f57",
"az	c #ffb684",
"aA	c #6a4d8f",
"aB	c #292293",
"aC	c #352c9b",
"aD	c #c29aa7",
"aE	c #ffcd9c",
"aF	c #ffbb8e",
"aG	c #ffb786",
"aH	c #ffb57f",
"aI	c #ffb47b",
"aJ	c #ffb378",
"aK	c #ffb174",
"aL	c #ffaf70",
"aM	c #ffac6c",
"aN	c #ffaa67",
"aO	c #ffaf6d",
"aP	c #ffb880",
"aQ	c #412e9a",
"aR	c #dd9d92",
"aS	c #f1ad88",
"aT	c #805893",
"aU	c #3725a1",
"aV	c #71448c",
"aW	c #df7554",
"aX	c #ff7022",
"aY	c #654c3e",
"aZ	c #43484b",
"a0	c #464a4b",
"a1	c #ffb682",
"a2	c #684a90",
"a3	c #896ca1",
"a4	c #af8aa3",
"a5	c #20189e",
"a6	c #956f9e",
"a7	c #ffb084",
"a8	c #fca880",
"a9	c #f6a27f",
"a!	c #f09d7e",
"a@	c #e4937e",
"a#	c #da8c7e",
"a$	c #cf837e",
"a%	c #c47a7e",
"a^	c #b56f80",
"a&	c #a76a86",
"a*	c #976793",
"a(	c #2a1ea5",
"a)	c #6a4ca3",
"a_	c #7756a1",
"a+	c #7654a1",
"a-	c #4432ab",
"a=	c #0306b7",
"a{	c #3020a9",
"a}	c #e06a45",
"a|	c #74523d",
"a[	c #3f4548",
"a]	c #746156",
"a:	c #ffb17a",
"a;	c #755191",
"a'	c #725498",
"a<	c #ffcb91",
"a>	c #d19591",
"a?	c #3c2aa5",
"a,	c #4c38aa",
"a.	c #4f3bac",
"a/	c #513dad",
"b 	c #4d3bae",
"ba	c #4836ad",
"bb	c #4130ab",
"bc	c #412ea9",
"bd	c #4730a6",
"be	c #4a31a3",
"bf	c #4d309e",
"bg	c #53359c",
"bh	c #5d3e9e",
"bi	c #2c20ae",
"bj	c #68459d",
"bk	c #8d5587",
"bl	c #985479",
"bm	c #ac6176",
"bn	c #c17775",
"bo	c #63429f",
"bp	c #ac5765",
"bq	c #79573e",
"br	c #3d4345",
"bs	c #745f54",
"bt	c #ffac73",
"bu	c #845a90",
"bv	c #654697",
"bw	c #ffb17c",
"bx	c #ffb479",
"by	c #bb8296",
"bz	c #4032b1",
"bA	c #bf8997",
"bB	c #cd8888",
"bC	c #d8897d",
"bD	c #e28c75",
"bE	c #ed8f6d",
"bF	c #f28f67",
"bG	c #f99060",
"bH	c #ff9058",
"bI	c #ff8f50",
"bJ	c #ff9f6c",
"bK	c #4e39aa",
"bL	c #e08770",
"bM	c #ff8f3e",
"bN	c #ff7825",
"bO	c #ff7929",
"bP	c #ff8c3b",
"bQ	c #744993",
"bR	c #aa5966",
"bS	c #78573f",
"bT	c #3d4245",
"bU	c #735d52",
"bV	c #ffa86c",
"bW	c #90608f",
"bX	c #5f3f98",
"bY	c #ffa971",
"bZ	c #ffa46a",
"b0	c #bd7d8c",
"b1	c #5f48ad",
"b2	c #ffae76",
"b3	c #ff9b5e",
"b4	c #ff8f4f",
"b5	c #ff8b4a",
"b6	c #ff8746",
"b7	c #ff8340",
"b8	c #ff7e3a",
"b9	c #ff7934",
"b!	c #ff752e",
"b@	c #ff7c37",
"b#	c #f58554",
"b$	c #4c35a7",
"b%	c #d9735b",
"b^	c #ff6f20",
"b&	c #fd5907",
"b*	c #f85e10",
"b(	c #fd7429",
"b)	c #6c4290",
"b_	c #ac5a63",
"b+	c #75563f",
"b-	c #3d4144",
"b=	c #725b50",
"b{	c #ffa365",
"b}	c #9b658c",
"b|	c #593b9b",
"b[	c #ff9e62",
"b]	c #c37d84",
"b:	c #5f47aa",
"b;	c #ff9a65",
"b'	c #ff8648",
"b<	c #ff7a38",
"b>	c #ff7733",
"b?	c #ff742f",
"b,	c #ff712a",
"b.	c #ff6d24",
"b/	c #ff6a1f",
"c 	c #ff661a",
"ca	c #ff7025",
"cb	c #f37b48",
"cc	c #4b33a5",
"cd	c #dc6d4f",
"ce	c #ff6715",
"cf	c #f65200",
"cg	c #f1580b",
"ch	c #f57028",
"ci	c #664094",
"cj	c #ac5a61",
"ck	c #73553f",
"cl	c #725a4e",
"cm	c #ff9d5d",
"cn	c #a76a87",
"co	c #51349d",
"cp	c #ff9f65",
"cq	c #ff995c",
"cr	c #ca7e7d",
"cs	c #5c44aa",
"ct	c #ff945e",
"cu	c #ff813f",
"cv	c #ff742e",
"cw	c #ff6e26",
"cx	c #ff6b21",
"cy	c #ff681c",
"cz	c #ff6417",
"cA	c #ff6112",
"cB	c #ff6c1e",
"cC	c #f17642",
"cD	c #462ea3",
"cE	c #da6c4d",
"cF	c #fc6516",
"cG	c #ee5001",
"cH	c #ea570d",
"cI	c #ec6f2c",
"cJ	c #5d3d99",
"cK	c #ad5c5e",
"cL	c #70543f",
"cM	c #3c4143",
"cN	c #72594c",
"cO	c #ff9856",
"cP	c #b16d80",
"cQ	c #4c309c",
"cR	c #ff9c60",
"cS	c #ff9556",
"cT	c #ce7c76",
"cU	c #523ca9",
"cV	c #fd8f5a",
"cW	c #ff7c39",
"cX	c #ff6f27",
"cY	c #ff6c22",
"cZ	c #ff691e",
"c0	c #ff6315",
"c1	c #ff5f0f",
"c2	c #ff5c0a",
"c3	c #ff6817",
"c4	c #ee723f",
"c5	c #3c24a0",
"c6	c #d5694b",
"c7	c #f46316",
"c8	c #e64e01",
"c9	c #e4560e",
"c!	c #e46d2f",
"c@	c #55399c",
"c#	c #ae5c5b",
"c$	c #6f533f",
"c%	c #71574b",
"c^	c #ff924e",
"c&	c #b96f79",
"c*	c #462c99",
"c(	c #ff965c",
"c)	c #ff9150",
"c_	c #d37b6d",
"c+	c #4630a7",
"c-	c #f98a56",
"c=	c #ff7832",
"c{	c #ff671a",
"c}	c #ff6416",
"c|	c #ff6111",
"c[	c #ff5d0c",
"c]	c #ff5906",
"c:	c #ff5702",
"c;	c #ff6413",
"c'	c #e76f3f",
"c<	c #351e9d",
"c>	c #d16749",
"c?	c #ec6016",
"c,	c #df4b01",
"c.	c #dc540f",
"c/	c #dd6b31",
"d 	c #4e349e",
"da	c #ad5b58",
"db	c #6c523f",
"dc	c #715649",
"dd	c #ff8c47",
"de	c #c47370",
"df	c #3f2796",
"dg	c #fe8f58",
"dh	c #ff8d49",
"di	c #d67866",
"dj	c #3d27a3",
"dk	c #f68451",
"dl	c #ff742b",
"dm	c #ff5e0e",
"dn	c #ff5b08",
"do	c #ff5803",
"dp	c #fd5400",
"dq	c #f95301",
"dr	c #f86214",
"ds	c #de6c40",
"dt	c #331d99",
"du	c #ce6646",
"dv	c #e55d15",
"dw	c #d74901",
"dx	c #d55310",
"dy	c #d56933",
"dz	c #442d9f",
"dA	c #ab5a54",
"dB	c #6a503e",
"dC	c #3d4143",
"dD	c #715547",
"dE	c #ff863f",
"dF	c #ce7567",
"dG	c #3a2393",
"dH	c #f98954",
"dI	c #ff8943",
"dJ	c #d9765e",
"dK	c #3821a0",
"dL	c #f47f4c",
"dM	c #ff6f24",
"dN	c #ff5b09",
"dO	c #ff5805",
"dP	c #fe5501",
"dQ	c #fb5400",
"dR	c #f05101",
"dS	c #f16014",
"dT	c #d56941",
"dU	c #311c94",
"dV	c #cc6543",
"dW	c #dd5a15",
"dX	c #cf4601",
"dY	c #cf5111",
"dZ	c #cc6637",
"d0	c #3a269f",
"d1	c #ab5a50",
"d2	c #674f3e",
"d3	c #3c4042",
"d4	c #705445",
"d5	c #ff8037",
"d6	c #d47560",
"d7	c #382290",
"d8	c #f68350",
"d9	c #ff853d",
"d!	c #dd7456",
"d@	c #37209b",
"d#	c #f07948",
"d$	c #ff6b1c",
"d%	c #ff5905",
"d^	c #ff5601",
"d&	c #f75200",
"d*	c #f25000",
"d(	c #ec4e00",
"d)	c #e84e01",
"d_	c #e95e15",
"d+	c #cc6542",
"d-	c #301c8f",
"d=	c #c96541",
"d{	c #d45614",
"d}	c #c74301",
"d|	c #c85011",
"d[	c #c2623a",
"d]	c #35219e",
"d:	c #aa5a4b",
"d;	c #644d3e",
"d'	c #464c4e",
"d<	c #705243",
"d>	c #ff7a2f",
"d?	c #dc7557",
"d,	c #38218e",
"d.	c #f17c4b",
"d/	c #ff8036",
"e 	c #e3724d",
"ea	c #381f96",
"eb	c #ea7243",
"ec	c #ff6614",
"ed	c #fc5300",
"ee	c #f75100",
"ef	c #f35100",
"eg	c #ed4f00",
"eh	c #e94e00",
"ei	c #e34b00",
"ej	c #df4c02",
"ek	c #e25d17",
"el	c #c36344",
"em	c #2f1c8b",
"en	c #c5643e",
"eo	c #cc5314",
"ep	c #bf4001",
"eq	c #c24f13",
"er	c #b85f3e",
"es	c #301e9e",
"et	c #a95948",
"eu	c #624c3d",
"ev	c #464c4f",
"ew	c #705141",
"ex	c #ff7427",
"ey	c #e4754e",
"ez	c #38208b",
"eA	c #eb7647",
"eB	c #ff7b2f",
"eC	c #e67145",
"eD	c #381f91",
"eE	c #e46f44",
"eF	c #fc6719",
"eG	c #f35607",
"eH	c #ef5408",
"eI	c #eb550a",
"eJ	c #e6550d",
"eK	c #e3560f",
"eL	c #df5610",
"eM	c #dc5815",
"eN	c #e36b29",
"eO	c #c26d52",
"eP	c #2f1d8a",
"eQ	c #c46640",
"eR	c #c45115",
"eS	c #b73e01",
"eT	c #bc4e14",
"eU	c #ad5b43",
"eV	c #2f1e9f",
"eW	c #a95a44",
"eX	c #5e4a3c",
"eY	c #704f3f",
"eZ	c #ff6d1e",
"e0	c #ea7446",
"e1	c #39208b",
"e2	c #e9794d",
"e3	c #ff8539",
"e4	c #ec7c4e",
"e5	c #392292",
"e6	c #e37c55",
"e7	c #ff7d2f",
"e8	c #f96e20",
"e9	c #f56e22",
"e!	c #f16f26",
"e@	c #eb6f2a",
"e#	c #e36e2f",
"e$	c #d86a35",
"e%	c #cd673c",
"e^	c #c66e4f",
"e&	c #9a606e",
"e*	c #291c90",
"e(	c #cc7449",
"e)	c #c1561f",
"e_	c #b14007",
"e+	c #b64e15",
"e-	c #a25747",
"e=	c #3020a0",
"e{	c #a85a40",
"e}	c #5c483b",
"e|	c #3c4041",
"e[	c #704e3d",
"e]	c #ee733f",
"e:	c #351f8e",
"e;	c #d97e66",
"e'	c #ed895c",
"e<	c #c9786e",
"e>	c #33219c",
"e?	c #a1627d",
"e,	c #a05970",
"e.	c #854570",
"e/	c #713c78",
"f 	c #5e337f",
"fa	c #4c2a87",
"fb	c #3f238c",
"fc	c #351f8f",
"fd	c #2f1b8e",
"fe	c #2c1c8e",
"ff	c #301f90",
"fg	c #1a129f",
"fh	c #6e437c",
"fi	c #c76a33",
"fj	c #b24e18",
"fk	c #b1521d",
"fl	c #9c564c",
"fm	c #3425a2",
"fn	c #a5593e",
"fo	c #5a463b",
"fp	c #3c3f41",
"fq	c #464c50",
"fr	c #6f4d3c",
"fs	c #fe5e0c",
"ft	c #f77535",
"fu	c #372093",
"fv	c #33229c",
"fw	c #3d289c",
"fx	c #3625a1",
"fy	c #1e15ab",
"fz	c #472fa1",
"fA	c #4f3096",
"fB	c #56318a",
"fC	c #66377e",
"fD	c #753f73",
"fE	c #834669",
"fF	c #944f5e",
"fG	c #a15554",
"fH	c #aa594b",
"fI	c #b56044",
"fJ	c #c46d44",
"fK	c #a8635a",
"fL	c #2417a0",
"fM	c #4e2f89",
"fN	c #b66438",
"fO	c #b96430",
"fP	c #995b58",
"fQ	c #3a2ba2",
"fR	c #a2593b",
"fS	c #57453a",
"fT	c #464d50",
"fU	c #6d4c3c",
"fV	c #f55607",
"fW	c #fc7022",
"fX	c #904e70",
"fY	c #1c15aa",
"fZ	c #cd8980",
"f0	c #dc937d",
"f1	c #4331a8",
"f2	c #c6796b",
"f3	c #eb7e3d",
"f4	c #e16b28",
"f5	c #de6722",
"f6	c #d96420",
"f7	c #d35f1d",
"f8	c #cd5b1b",
"f9	c #c65618",
"f!	c #bf5116",
"f@	c #b84d15",
"f#	c #b34c18",
"f$	c #ba5a22",
"f%	c #b06141",
"f^	c #3d2896",
"f&	c #3b289a",
"f*	c #b37459",
"f(	c #a06d6b",
"f)	c #4031a4",
"f_	c #a05938",
"f+	c #544339",
"f-	c #474d50",
"f=	c #6c4c3c",
"f{	c #ec5002",
"f}	c #ea5b12",
"f|	c #f37834",
"f[	c #58328d",
"f]	c #5e429f",
"f:	c #f1a173",
"f;	c #4a37a9",
"f'	c #b7675d",
"f<	c #d86222",
"f>	c #c84b0d",
"f?	c #c34709",
"f,	c #be4508",
"f.	c #b94308",
"f/	c #b54208",
"g 	c #b14008",
"ga	c #ac3f09",
"gb	c #a83f0a",
"gc	c #a5410d",
"gd	c #a54717",
"ge	c #af5929",
"gf	c #b87046",
"gg	c #5e4493",
"gh	c #4036ac",
"gi	c #886a91",
"gj	c #4c3da3",
"gk	c #9d5836",
"gl	c #514138",
"gm	c #484d4f",
"gn	c #624b40",
"go	c #e04e05",
"gp	c #e25e18",
"gq	c #dc703d",
"gr	c #3825a1",
"gs	c #876096",
"gt	c #5843a9",
"gu	c #af6662",
"gv	c #d16224",
"gw	c #c24d12",
"gx	c #bf4c12",
"gy	c #bd4e14",
"gz	c #bb5017",
"gA	c #ba5319",
"gB	c #b9551c",
"gC	c #b7571f",
"gD	c #b45822",
"gE	c #b05926",
"gF	c #ac5a2c",
"gG	c #a85e3a",
"gH	c #aa6a50",
"gI	c #b27f6c",
"gJ	c #6a57a3",
"gK	c #3535c2",
"gL	c #5243a6",
"gM	c #955330",
"gN	c #493e37",
"gO	c #3d3f40",
"gP	c #4c4d4e",
"gQ	c #4a4b4b",
"gR	c #b84810",
"gS	c #de4800",
"gT	c #d34c09",
"gU	c #dc611c",
"gV	c #bd6a56",
"gW	c #352db2",
"gX	c #312ebb",
"gY	c #ba786e",
"gZ	c #d5773f",
"g0	c #c26334",
"g1	c #b8603c",
"g2	c #ab5d48",
"g3	c #a05a52",
"g4	c #8f535f",
"g5	c #7e4c6d",
"g6	c #6f4578",
"g7	c #5e3d85",
"g8	c #533990",
"g9	c #4d3899",
"g!	c #4838a3",
"g@	c #493ca8",
"g#	c #4b40ab",
"g$	c #5447aa",
"g%	c #5547a7",
"g^	c #7d5067",
"g&	c #7b4527",
"g*	c #3b3b3b",
"g(	c #3f4040",
"g)	c #634637",
"g_	c #cb4402",
"g+	c #d34500",
"g-	c #cb4b0c",
"g=	c #d86625",
"g{	c #a05f6b",
"g}	c #3b35b9",
"g|	c #644faa",
"g[	c #674ea2",
"g]	c #5844a5",
"g:	c #5140a9",
"g;	c #4d3da9",
"g'	c #4b3ba7",
"g<	c #4e3ba0",
"g>	c #523b97",
"g?	c #5a3d8d",
"g,	c #644281",
"g.	c #704874",
"g/	c #7c4e66",
"h 	c #84515a",
"ha	c #8b544e",
"hb	c #915744",
"hc	c #94573e",
"hd	c #95522f",
"he	c #85431e",
"hf	c #483932",
"hg	c #37393a",
"hh	c #414141",
"hi	c #4d4c4c",
"hj	c #40474a",
"hk	c #5b4031",
"hl	c #a23f0e",
"hm	c #bc4205",
"hn	c #bf4b10",
"ho	c #c85f25",
"hp	c #b0614e",
"hq	c #91576a",
"hr	c #975a63",
"hs	c #9d5b58",
"ht	c #a35c4d",
"hu	c #a85d43",
"hv	c #aa5c39",
"hw	c #ab5b31",
"hx	c #aa592b",
"hy	c #a65625",
"hz	c #a25221",
"hA	c #9c4d1e",
"hB	c #96481b",
"hC	c #8f4319",
"hD	c #883f16",
"hE	c #833b14",
"hF	c #7b3613",
"hG	c #683318",
"hH	c #42332c",
"hI	c #323536",
"hJ	c #3b3b3a",
"hK	c #444444",
"hL	c #4a4a4a",
"hM	c #3e4346",
"hN	c #383a3b",
"hO	c #45362e",
"hP	c #4c362c",
"hQ	c #4f3b31",
"hR	c #594537",
"hS	c #614c3a",
"hT	c #5f4c3c",
"hU	c #5c4a3b",
"hV	c #59473a",
"hW	c #514137",
"hX	c #4d3e35",
"hY	c #4a3b33",
"hZ	c #483931",
"h0	c #45372f",
"h1	c #43342d",
"h2	c #41332c",
"h3	c #3f322b",
"h4	c #3e3029",
"h5	c #3d3029",
"h6	c #392f2b",
"h7	c #2f3031",
"h8	c #303334",
"h9	c #373737",
"h!	c #404040",
"h@	c #484848",
"h#	c #4c4c4c",
"h$	c #494949",
"h%	c #424343",
"h^	c #393c3e",
"h&	c #34383a",
"h*	c #333739",
"h(	c #35393a",
"h)	c #36393b",
"h_	c #36393a",
"h+	c #353839",
"h-	c #343738",
"h=	c #333638",
"h{	c #333637",
"h}	c #343638",
"h|	c #353738",
"h[	c #373838",
"h]	c #474747",
"h:	c #4b4b4b",
" a a a a b c d d d d d e e e e e e e f g g g h h i j a a a a",
" a a a e k l m m n o n p p q r s t u v w x y z A B C D a a a",
" a a E F G H I J K L M N O P Q R S T U V W X Y Z 0 1 2 3 a a",
" a 4 5 6 7 8 9 ! @ # $ % ^ & * ( ) _ + - = { } | [ ] : ; ' a",
" < > ? , . /a aaabacadaeafagahaiajakalamanaoapaqarasatauavaw",
"axayazaAaBaCaDaEaFaG JaHaIaJaKaLaMaNaOaPaQaRaSaTaUaVaWaXaYaZ",
"a0 oa1a2a3a4a5a6aFa7a8a9a!a@a#a$a%a^a&a*a(a)a_a+a-a=a{a}a|a[",
" ea]a:a;a'a<a>a?a,a.a/b babbbcbdbebfbgbhbibjbkblbmbnbobpbqbr",
" ebsbtbubvbwbxbybzbAbBbCbDbEbFbGbHbI XbJbKbLbMbNbObPbQbRbSbT",
" ebUbVbWbXbYbZb0b1b2b3b4b5b6b7b8b9b!b@b#b$b%b^b&b*b(b)b_b+b-",
" eb=b{b}b|bZb[b]b:b;b'b<b>b?b,b.b/c cacbcccdcecfcgchcicjckb-",
" eclcmcncocpcqcrcsctcucvb,cwcxcyczcAcBcCcDcEcFcGcHcIcJcKcLcM",
" fcNcOcPcQcRcScTcUcVcWcXcYcZc c0c1c2c3c4c5c6c7c8c9c!c@c#c$cM",
" gc%c^c&c*c(c)c_c+c-c=b/c{c}c|c[c]c:c;c'c<c>c?c,c.c/d dadbcM",
" gdcdddedfdgdhdidjdkdlc}cAdmdndodpdqdrdsdtdudvdwdxdydzdAdBdC",
" hdDdEdFdGdHdIdJdKdLdMdmdNdOdPdQcfdRdSdTdUdVdWdXdYdZd0d1d2d3",
" hd4d5d6d7d8d9d!d@d#d$d%d^dQd&d*d(d)d_d+d-d=d{d}d|d[d]d:d;d3",
"d'd<d>d?d,d.d/e eaebecedeeefegeheiejekelemeneoepeqereseteud3",
"evewexeyezeAeBeCeDeEeFeGeHeIeJeKeLeMeNeOePeQeReSeTeUeVeWeXd3",
"eveYeZe0e1e2e3e4e5e6e7e8e9e!e@e#e$e%e^e&e*e(e)e_e+e-e=e{e}e|",
"eve[ece]e:e;e'e<e>e?e,e.e/f fafbfcfdfefffgfhfifjfkflfmfnfofp",
"fqfrfsftfufvfwfxfyfzfAfBfCfDfEfFfGfHfIfJfKfLfMfNfOfPfQfRfSfp",
"fTfUfVfWfXfYfZf0f1f2f3f4f5f6f7f8f9f!f@f#f$f%f^f&f*f(f)f_f+fp",
"f-f=f{f}f|f[f]f:f;f'f<f>f?f,f.f/g gagbgcgdgegfggghgigjgkglfp",
"gmgnc,gogpgqgrgsgtgugvgwgxgygzgAgBgCgDgEgFgGgHgIgJgKgLgMgNgO",
"gPgQgRgSgTgUgVgWgXgYgZg0g1g2g3g4g5g6g7g8g9g!g@g#g$g%g^g&g*g(",
" a hg)g_g+g-g=g{g}g|g[g]g:g;g'g<g>g?g,g.g/h hahbhchdhehfhghh",
" ahihjhkhlhmhnhohphqhrhshthuhvhwhxhyhzhAhBhChDhEhFhGhHhIhJhK",
" a ahLhMhNhOhPhQhRhShThUhVf+hWhXhYhZh0h1h2h3h4h5h6h7h8h9h!h@",
" a ah#h$h%h^h&h*h&h(h)h_h+h-h-h=h{h{h{h{h{h}h}h-h|h[g*hhh]h:"
};
