/* XPM */
static char * ford_riggingAid__createLocator_xpm[] = {
"30 30 726 2",
"  	c none",
" a	c #b2b2b2",
" b	c #b4b3b2",
" c	c #b8b5b3",
" d	c #b9b6b4",
" e	c #b9b5b3",
" f	c #b9b5b2",
" g	c #b9b4b2",
" h	c #b9b4b1",
" i	c #b8b3b1",
" j	c #b4b2b2",
" k	c #bab6b4",
" l	c #b1b1b2",
" m	c #94a3ab",
" n	c #8c9faa",
" o	c #8ca0aa",
" p	c #8ca0ab",
" q	c #8b9faa",
" r	c #899ea8",
" s	c #859ba8",
" t	c #899faa",
" u	c #8ba1ad",
" v	c #8ca3af",
" w	c #8ca4b0",
" x	c #8ca4b1",
" y	c #8ca5b2",
" z	c #8ca6b3",
" A	c #8ca7b4",
" B	c #8ca7b5",
" C	c #8ca8b6",
" D	c #8ca9b8",
" E	c #8caab9",
" F	c #94acb8",
" G	c #b1b2b2",
" H	c #bab3b0",
" I	c #bbb6b4",
" J	c #819ba7",
" K	c #246c91",
" L	c #035c8b",
" M	c #005c8c",
" N	c #005d8e",
" O	c #005f91",
" P	c #005e8f",
" Q	c #005d8b",
" R	c #066087",
" S	c #005e90",
" T	c #00669c",
" U	c #006da5",
" V	c #0070a9",
" W	c #0073ae",
" X	c #0076b3",
" Y	c #007ab8",
" Z	c #007dbe",
" 0	c #0081c3",
" 1	c #0085c9",
" 2	c #0089cf",
" 3	c #008dd5",
" 4	c #0392da",
" 5	c #249bd8",
" 6	c #83adc1",
" 7	c #bcb4b0",
" 8	c #859ca8",
" 9	c #035c8c",
" !	c #005a8b",
" @	c #005e8e",
" #	c #006090",
" $	c #006192",
" %	c #006395",
" ^	c #005c90",
" &	c #196a82",
" *	c #c2d56a",
" (	c #146683",
" )	c #006299",
" _	c #006fa8",
" +	c #0074ae",
" -	c #0076b2",
" =	c #007ab7",
" {	c #007dbc",
" }	c #0081c1",
" |	c #0085c8",
" [	c #0088cd",
" ]	c #008cd3",
" :	c #0090d9",
" ;	c #0095df",
" '	c #0097e8",
" <	c #039ceb",
" >	c #88b0c4",
" ?	c #bcb4b1",
" ,	c #237096",
" .	c #005b8e",
" /	c #006191",
"a 	c #006293",
"aa	c #006497",
"ab	c #006699",
"ac	c #006294",
"ad	c #035583",
"ae	c #cada69",
"af	c #609474",
"ag	c #005893",
"ah	c #0071a9",
"ai	c #0078b3",
"aj	c #0085c7",
"ak	c #0088cc",
"al	c #008cd2",
"am	c #0090d8",
"an	c #0094df",
"ao	c #0098e5",
"ap	c #009deb",
"aq	c #009ff3",
"ar	c #25a8e9",
"as	c #b8b8b8",
"at	c #b5b4b3",
"au	c #96a6ad",
"av	c #026395",
"aw	c #006295",
"ax	c #006496",
"ay	c #006597",
"az	c #006799",
"aA	c #00689c",
"aB	c #006a9f",
"aC	c #00528b",
"aD	c #76a171",
"aE	c #b7cd6b",
"aF	c #00558d",
"aG	c #007bb8",
"aH	c #007ebd",
"aI	c #0081c2",
"aJ	c #0089cd",
"aK	c #009ceb",
"aL	c #00a1f1",
"aM	c #00a4f8",
"aN	c #02a8fb",
"aO	c #a0bbc8",
"aP	c #bdb7b5",
"aQ	c #8ea3ae",
"aR	c #006599",
"aS	c #00669a",
"aT	c #00679b",
"aU	c #00699d",
"aV	c #006ba2",
"aW	c #006ea4",
"aX	c #006ea5",
"aY	c #006098",
"aZ	c #256f7f",
"a0	c #e1e969",
"a1	c #176b87",
"a2	c #006ca8",
"a3	c #0083c4",
"a4	c #0086c8",
"a5	c #0089ce",
"a6	c #008dd3",
"a7	c #0091d9",
"a8	c #0099e5",
"a9	c #009dec",
"a!	c #00a4f6",
"a@	c #00a6fa",
"a#	c #00a9fe",
"a$	c #9bbecf",
"a%	c #c2bbb8",
"a^	c #8fa4af",
"a&	c #00699f",
"a*	c #006aa0",
"a(	c #006ba1",
"a)	c #006ca3",
"a_	c #0070a7",
"a+	c #0072aa",
"a-	c #0073ad",
"a=	c #005a8f",
"a{	c #c5d76e",
"a}	c #629b7d",
"a|	c #0064a5",
"a[	c #007fc0",
"a]	c #0087ca",
"a:	c #008ad0",
"a;	c #008ed5",
"a'	c #0092da",
"a<	c #0095e0",
"a>	c #0099e6",
"a?	c #009eec",
"a,	c #00a0f0",
"a.	c #009cec",
"a/	c #0096ee",
"b 	c #019ff2",
"ba	c #9ebdcc",
"bb	c #c4bebb",
"bc	c #8fa5b0",
"bd	c #006ea6",
"be	c #006fa7",
"bf	c #0072ab",
"bg	c #0072ac",
"bh	c #0072af",
"bi	c #0074ad",
"bj	c #005e9d",
"bk	c #74a67d",
"bl	c #b7d175",
"bm	c #0063a1",
"bn	c #008bd0",
"bo	c #008fd7",
"bp	c #0093dc",
"bq	c #0096e2",
"br	c #009ae8",
"bs	c #009eed",
"bt	c #0099e8",
"bu	c #0089dd",
"bv	c #0687ca",
"bw	c #6fbb96",
"bx	c #4cb5b9",
"by	c #93b5cc",
"bz	c #c4bfbc",
"bA	c #8fa6b2",
"bB	c #0071ab",
"bC	c #0075af",
"bD	c #0076b1",
"bE	c #0074af",
"bF	c #0371a7",
"bG	c #0871a1",
"bH	c #0069a7",
"bI	c #0067a2",
"bJ	c #22778e",
"bK	c #e1ea73",
"bL	c #197799",
"bM	c #007bbf",
"bN	c #008fd6",
"bO	c #0094de",
"bP	c #0097e4",
"bQ	c #009ce9",
"bR	c #0098e6",
"bS	c #008cdf",
"bT	c #0080cd",
"bU	c #58a797",
"bV	c #d4e75a",
"bW	c #d3e65b",
"bX	c #41aabb",
"bY	c #96b6cb",
"bZ	c #c5c0bd",
"b0	c #8fa8b3",
"b1	c #0075b1",
"b2	c #0077b2",
"b3	c #0078b4",
"b4	c #007ab6",
"b5	c #0073b4",
"b6	c #2f889b",
"b7	c #d3e478",
"b8	c #3b878e",
"b9	c #005b9a",
"b!	c #005a94",
"b@	c #bfd578",
"b#	c #67a58c",
"b$	c #0074bc",
"b%	c #009ae7",
"b^	c #0098e4",
"b&	c #008ddd",
"b*	c #007fcf",
"b(	c #3695a8",
"b)	c #b6d66a",
"b_	c #dcea56",
"b+	c #76b588",
"b-	c #168dc8",
"b=	c #109dea",
"b{	c #a3bfcd",
"b}	c #8fa8b5",
"b|	c #007bb9",
"b[	c #007dbb",
"b]	c #007cbc",
"b:	c #0671ab",
"b;	c #70a889",
"b'	c #eff474",
"b<	c #70a282",
"b>	c #00498a",
"b?	c #6a9c7b",
"b,	c #bad67d",
"b.	c #0071b4",
"b/	c #0097e3",
"c 	c #008fdc",
"ca	c #007fd2",
"cb	c #1f8bb1",
"cc	c #a9d071",
"cd	c #ebf251",
"ce	c #8bc07c",
"cf	c #1889bd",
"cg	c #098edb",
"ch	c #1ba3ea",
"ci	c #24b0f7",
"cj	c #a7c4d2",
"ck	c #c6c1be",
"cl	c #8fa9b6",
"cm	c #007ebf",
"cn	c #0080c0",
"co	c #0082c4",
"cp	c #0084c7",
"cq	c #0084c6",
"cr	c #0069ae",
"cs	c #428c92",
"ct	c #e3ed76",
"cu	c #97b774",
"cv	c #206576",
"cw	c #dae56f",
"cx	c #1c7d9c",
"cy	c #007dc4",
"cz	c #007fd1",
"cA	c #1386b9",
"cB	c #82bb83",
"cC	c #e2ee58",
"cD	c #a2cb72",
"cE	c #2e93ae",
"cF	c #0689d6",
"cG	c #17a0e7",
"cH	c #23aef4",
"cI	c #28b5fc",
"cJ	c #2cb9ff",
"cK	c #aac6d4",
"cL	c #8faab7",
"cM	c #0083c6",
"cN	c #0084c8",
"cO	c #0086c9",
"cP	c #0088cb",
"cQ	c #008acf",
"cR	c #008bd1",
"cS	c #0087cb",
"cT	c #0074bd",
"cU	c #197aa2",
"cV	c #c3dc77",
"cW	c #c3d469",
"cX	c #dbe565",
"cY	c #5d967a",
"cZ	c #005ca0",
"c0	c #67ab8d",
"c1	c #e2ef5b",
"c2	c #c6df64",
"c3	c #419ca3",
"c4	c #0185d2",
"c5	c #109ae4",
"c6	c #1fabf1",
"c7	c #26b4fb",
"c8	c #2cb8ff",
"c9	c #30bbff",
"c!	c #33bcff",
"c@	c #acc7d4",
"c#	c #c6c0be",
"c$	c #8fabb9",
"c%	c #0091da",
"c^	c #0093dd",
"c&	c #007fc8",
"c*	c #0269a2",
"c(	c #8ab270",
"c)	c #edf35c",
"c_	c #c6d85f",
"c+	c #b9cf5c",
"c-	c #ccdf5c",
"c=	c #519f93",
"c{	c #0685c9",
"c}	c #0994e1",
"c|	c #1aa8ef",
"c[	c #22b2fa",
"c]	c #28b7fe",
"c:	c #2ebaff",
"c;	c #34bbff",
"c'	c #38bdff",
"c<	c #3bbeff",
"c>	c #adc7d4",
"c?	c #c5c0be",
"c,	c #8facba",
"c.	c #008ed6",
"c/	c #0092db",
"d 	c #0097e2",
"da	c #0096e0",
"db	c #0085d0",
"dc	c #0068b2",
"dd	c #26717e",
"de	c #d4e156",
"df	c #eff452",
"dg	c #c9d954",
"dh	c #075f8e",
"di	c #0077c2",
"dj	c #169ee3",
"dk	c #1eaef6",
"dl	c #25b5fe",
"dm	c #2bb8ff",
"dn	c #30baff",
"do	c #36bcff",
"dp	c #3fbfff",
"dq	c #42c1ff",
"dr	c #afc8d4",
"ds	c #b9b3b1",
"dt	c #8fadbc",
"du	c #0092dd",
"dv	c #0096e1",
"dw	c #009ae6",
"dx	c #008fdb",
"dy	c #007dd1",
"dz	c #228bae",
"dA	c #a4cc6e",
"dB	c #e6ef52",
"dC	c #7fa869",
"dD	c #aec557",
"dE	c #e7e948",
"dF	c #96b55e",
"dG	c #1a80ad",
"dH	c #1597df",
"dI	c #26aef2",
"dJ	c #2db7fc",
"dK	c #33bbff",
"dL	c #3ebeff",
"dM	c #43c0ff",
"dN	c #47c2ff",
"dO	c #49c3ff",
"dP	c #b0c8d4",
"dQ	c #b9b3b0",
"dR	c #8faebd",
"dS	c #0099e7",
"dT	c #009be9",
"dU	c #009cea",
"dV	c #0093df",
"dW	c #0081d4",
"dX	c #1084b9",
"dY	c #7bb782",
"dZ	c #e0ec54",
"d0	c #a8cf6f",
"d1	c #2e90a6",
"d2	c #0061af",
"d3	c #76a36c",
"d4	c #bcc84d",
"d5	c #a1b552",
"d6	c #bdca50",
"d7	c #3a93a9",
"d8	c #1d97dc",
"d9	c #32afed",
"d!	c #3abafa",
"d@	c #40bfff",
"d#	c #46c1ff",
"d$	c #4bc3ff",
"d%	c #4ec4ff",
"d^	c #51c5ff",
"d&	c #b2c9d4",
"d*	c #8fafbf",
"d(	c #009ded",
"d)	c #009dea",
"d_	c #0096e3",
"d+	c #0086d9",
"d-	c #007dc5",
"d=	c #6baf8c",
"d{	c #deeb54",
"d}	c #c6de5e",
"d|	c #3a98a4",
"d[	c #0084d2",
"d]	c #0b95e0",
"d:	c #0f90d5",
"d;	c #378c9d",
"d'	c #c3ca46",
"d<	c #246a82",
"d>	c #789f68",
"d?	c #c8cc44",
"d,	c #5d9f92",
"d.	c #2794d5",
"d/	c #3baee9",
"e 	c #46bdf7",
"ea	c #4dc3fe",
"eb	c #52c5ff",
"ec	c #55c7ff",
"ed	c #59c8ff",
"ee	c #b3c9d4",
"ef	c #c4c0be",
"eg	c #8fafc0",
"eh	c #009fef",
"ei	c #008cdd",
"ej	c #0080cb",
"ek	c #4ca19b",
"el	c #c4de60",
"em	c #cde25b",
"en	c #57a594",
"eo	c #0886c8",
"ep	c #0894e0",
"eq	c #18a7ef",
"er	c #1eaff9",
"es	c #20a8ec",
"et	c #1b8bc7",
"eu	c #aec054",
"ev	c #639678",
"ew	c #0e70b3",
"ex	c #5e9a8a",
"ey	c #c8ca41",
"ez	c #85ae76",
"eA	c #3799cd",
"eB	c #45b1ea",
"eC	c #54c1f8",
"eD	c #5ac8ff",
"eE	c #5dc9ff",
"eF	c #60cbff",
"eG	c #b5cad4",
"eH	c #b9b2af",
"eI	c #8dadbd",
"eJ	c #0098eb",
"eK	c #0084da",
"eL	c #2c92ad",
"eM	c #bad966",
"eN	c #e3ed50",
"eO	c #7ab783",
"eP	c #0b85c3",
"eQ	c #058fde",
"eR	c #16a4ec",
"eS	c #1eaff7",
"eT	c #23b5fe",
"eU	c #28b8ff",
"eV	c #2bb2f6",
"eW	c #1f96db",
"eX	c #7aaa7b",
"eY	c #9db65d",
"eZ	c #2788c0",
"e0	c #2b91cd",
"e1	c #509aa7",
"e2	c #bbc54d",
"e3	c #aac15f",
"e4	c #55adcd",
"e5	c #56bef5",
"e6	c #61cafe",
"e7	c #65ccff",
"e8	c #67cdff",
"e9	c #b6cad4",
"e!	c #b8b2af",
"e@	c #85a8bd",
"e#	c #1c9ed1",
"e$	c #9ece78",
"e%	c #e4ee51",
"e^	c #8cbf7b",
"e&	c #1c8bb8",
"e*	c #048bd9",
"e(	c #16a1e9",
"e)	c #23b4fd",
"e_	c #28b7ff",
"e+	c #31baff",
"e-	c #35b9fb",
"e=	c #2fa5e5",
"e{	c #4b9aa8",
"e}	c #bbc44a",
"e|	c #4196b5",
"e[	c #40a6db",
"e]	c #3fa5df",
"e:	c #4a9fc4",
"e;	c #a0c175",
"e'	c #6fb9bf",
"e<	c #5cc0f7",
"e>	c #69ccfe",
"e?	c #6ccfff",
"e,	c #6fcfff",
"e.	c #b7cbd4",
"e/	c #c3c0be",
"f 	c #b7b1af",
"fa	c #85a7bd",
"fb	c #31aac8",
"fc	c #a9d677",
"fd	c #389caf",
"fe	c #0388d7",
"ff	c #139ee6",
"fg	c #1facf3",
"fh	c #23b3fc",
"fi	c #2db9ff",
"fj	c #31bbff",
"fk	c #35bbff",
"fl	c #3abeff",
"fm	c #3fbefe",
"fn	c #3eb2ee",
"fo	c #3697ca",
"fp	c #b1c155",
"fq	c #6ea691",
"fr	c #42a6df",
"fs	c #55bcef",
"ft	c #56b9ed",
"fu	c #53b4eb",
"fv	c #5fbdef",
"fw	c #6ac8f8",
"fx	c #71cffe",
"fy	c #74d1ff",
"fz	c #76d2ff",
"fA	c #b9cbd4",
"fB	c #90aebe",
"fC	c #0fa3ef",
"fD	c #0a99e9",
"fE	c #129ee9",
"fF	c #1faaf0",
"fG	c #24b3fa",
"fH	c #29b7ff",
"fI	c #43c1ff",
"fJ	c #48c2ff",
"fK	c #4abcf6",
"fL	c #3ba0dc",
"fM	c #88b17c",
"fN	c #a4bc64",
"fO	c #449ed4",
"fP	c #5ebff0",
"fQ	c #67cafc",
"fR	c #6acafb",
"fS	c #6eccfb",
"fT	c #74cffd",
"fU	c #78d2ff",
"fV	c #7bd3ff",
"fW	c #7cd4ff",
"fX	c #baccd4",
"fY	c #b7b2b0",
"fZ	c #9cb3be",
"f0	c #20b1fa",
"f1	c #1eb1fb",
"f2	c #24b4fc",
"f3	c #3abdff",
"f4	c #4cc4ff",
"f5	c #54c3fb",
"f6	c #4cafe6",
"f7	c #5fa2ab",
"f8	c #c2ca4c",
"f9	c #59a1bc",
"f!	c #5fbaea",
"f@	c #6fcefe",
"f#	c #7cd3ff",
"f$	c #7fd5ff",
"f%	c #81d5ff",
"f^	c #86d6fe",
"f&	c #c0ccd1",
"f*	c #c2c0be",
"f(	c #b3b2b1",
"f)	c #b6b4b4",
"f_	c #47b7f0",
"f+	c #21b8ff",
"f-	c #4cc3ff",
"f=	c #50c4ff",
"f{	c #55c6ff",
"f}	c #5dc8fe",
"f|	c #5bbdee",
"f[	c #4fa4d1",
"f]	c #bbc856",
"f:	c #8bb891",
"f;	c #60b8ec",
"f'	c #75cffc",
"f<	c #7fd4ff",
"f>	c #82d5ff",
"f?	c #86d7ff",
"f,	c #85d8ff",
"f.	c #9ad6f4",
"f/	c #cbcaca",
"g 	c #c0bfbf",
"ga	c #9cb9c8",
"gb	c #34bbfc",
"gc	c #2cbbff",
"gd	c #37bdff",
"ge	c #3cbeff",
"gf	c #40c0ff",
"gg	c #45c1ff",
"gh	c #49c2ff",
"gi	c #52c6ff",
"gj	c #57c7ff",
"gk	c #5bc9ff",
"gl	c #5fcaff",
"gm	c #64ccff",
"gn	c #65c6f7",
"go	c #5bb5e9",
"gp	c #89bca0",
"gq	c #8dc1a6",
"gr	c #6ac0f0",
"gs	c #7bd1fc",
"gt	c #84d6ff",
"gu	c #87d7ff",
"gv	c #88d9ff",
"gw	c #90d9fd",
"gx	c #c1d1d9",
"gy	c #cbc8c7",
"gz	c #bebebe",
"gA	c #b3b3b3",
"gB	c #bfb8b5",
"gC	c #a4bfce",
"gD	c #5dc0f1",
"gE	c #44c0fd",
"gF	c #44c1ff",
"gG	c #4dc4ff",
"gH	c #56c6ff",
"gI	c #5bc8ff",
"gJ	c #5fc9ff",
"gK	c #63cbff",
"gL	c #67ccff",
"gM	c #6cceff",
"gN	c #6ecdfc",
"gO	c #6fc8f4",
"gP	c #6bc0f0",
"gQ	c #6fc3f1",
"gR	c #7bcdf5",
"gS	c #82d4fd",
"gT	c #8ad8ff",
"gU	c #9fd8f3",
"gV	c #c3d2da",
"gW	c #d0ccca",
"gX	c #c5c5c5",
"gY	c #bbbbbb",
"gZ	c #b5b5b5",
"g0	c #c1bcb9",
"g1	c #c8c5c4",
"g2	c #bacad1",
"g3	c #b6ccd6",
"g4	c #b7ccd7",
"g5	c #b8cdd7",
"g6	c #b9cdd7",
"g7	c #bacdd7",
"g8	c #bbced7",
"g9	c #bcced7",
"g!	c #bdced7",
"g@	c #beced7",
"g#	c #bdced5",
"g$	c #bdccd4",
"g%	c #beccd4",
"g^	c #c0ced6",
"g&	c #c1cfd7",
"g*	c #c2d0d7",
"g(	c #c3d0d7",
"g)	c #c7d0d5",
"g_	c #d0cece",
"g+	c #cfccca",
"g-	c #c7c8c8",
"g=	c #bfbfbf",
"g{	c #b7b7b7",
"g}	c #b6b6b6",
"g|	c #bdbcbc",
"g[	c #c6c3c1",
"g]	c #cbc7c5",
"g:	c #cdc9c7",
"g;	c #ccc9c7",
"g'	c #cbc9c7",
"g<	c #cac8c7",
"g>	c #c8c7c7",
"g?	c #c4c4c4",
"g,	c #b4b4b4",
" a a a a b c d e e e e e e e e f f g g g h h h h i j a a a a",
" a a a k l m n o p q r s t u v w x y z A B C D E F G H a a a",
" a a I J K L M N O P Q R S T U V W X Y Z 0 1 2 3 4 5 6 7 a a",
" a k 8 9 ! @ # $ % ^ & * ( ) _ + - = { } | [ ] : ; ' < > ? a",
" b a , . /a  %aaabacadaeafagahai Y { }ajakalamanaoapaqarasat",
" cauavawaxayazaAaBaAaCaDaEaF VaGaHaI |aJ ] :anaoaKaLaMaNaOaP",
" eaQaRaSaTaUaBaVaWaXaYaZa0a1a2aHa3a4a5a6a7 ;a8a9aLa!a@a#a$a%",
" ea^a&a*a(a)aXa_a+a-aXa=a{a}a|a[a]a:a;a'a<a>a?a,a,a.a/b babb",
" fbc Ubdbe Vbfbgbgbhbibjbkblbma[bnbobpbqbra9bsbtbubvbwbxbybz",
" fbAbBbgbibCbDbEbFbGbHbIbJbKbLbMbNbObPbrbQbRbSbTbUbVbWbXbYbZ",
" fb0b1b2b3b4aGb5b6b7b8b9b!b@b#b$a7a8b%b^b&b*b(b)b_b+b-b=b{bZ",
" gb} Yb|b[aHa[b]b:b;b'b<b>b?b,b.bob/c cacbcccdcecfcgchcicjck",
" gclcmcnaIcocpcqcmcrcsctcucvcwcxcyczcAcBcCcDcEcFcGcHcIcJcKck",
" hcLcMcNcOcPcQcRcRcScTcUcVcWcXcYcZc0c1c2c3c4c5c6c7c8c9c!c@c#",
" hc$ [cQbn ]bNc%c^ ;a'c&c*c(c)c_c+c-c=c{c}c|c[c]c:c;c'c<c>c?",
" hc, 3c. :c/bOd a8a>dadbdcdddedfdgdhdidjdkdldmdndoc<dpdqdrc?",
"dsdtdubOdvb^dwb%b^dxdydzdAdBdCdDdEdFdGdHdIdJdKc'dLdMdNdOdPc?",
"dQdRaodSdTdUb%dVdWdXdYdZd0d1d2d3d4d5d6d7d8d9d!d@d#d$d%d^d&c?",
"dQd*d(bsd)d_d+d-d=d{d}d|d[d]d:d;d'd<d>d?d,d.d/e eaebecedeeef",
"dQegehbreiejekelemeneoepeqereseteuevewexeyezeAeBeCeDeEeFeGef",
"eHeIeJeKeLeMeNeOePeQeReSeTeUeVeWeXeYeZe0e1e2e3e4e5e6e7e8e9ef",
"e!e@e#e$e%e^e&e*e(dke)e_cJe+e-e=e{e}e|e[e]e:e;e'e<e>e?e,e.e/",
"f fafbfcfdfefffgfhe_fifjfkflfmfnfofpfqfrfsftfufvfwfxfyfzfAe/",
"e!fBfCfDfEfFfGfHfie+dofldpfIfJfKfLfMfNfOfPfQfRfSfTfUfVfWfXe/",
"fYfZf0f1f2c]fifjdof3dpdMfJf4d^f5f6f7f8f9f!f@fyfUf#f$f%f^f&f*",
"f(f)f_f+fifjdof3dpdMdNf-f=f{edf}f|f[f]f:f;f'fVf<f>f?f,f.f/g ",
" a hgagbgcgdgegfggghd%gigjgkglgmgngogpgqgrgsf%gtgugvgwgxgygz",
" agAgBgCgDgEgFghgGebgHgIgJgKgLgMgNgOgPgQgRgSgugTgwgUgVgWgXgY",
" a agZg0g1g2g3g4g5g6g7g8g8g9g!g@g@g#g$g%g^g&g*g(g)g_g+g-g=g{",
" a agAg}g|g[g]g:g:g:g:g;g;g;g;g;g;g;g;g'gygygygyg<g>g?gzasg,"
};
