/* XPM */
static char * ford_riggingAid__createNURBSlocator_xpm[] = {
"30 30 724 2",
"  	c none",
" a	c #4d4d4d",
" b	c #4b4c4d",
" c	c #474a4c",
" d	c #46494b",
" e	c #464a4c",
" f	c #464a4d",
" g	c #464b4d",
" h	c #464b4e",
" i	c #474c4e",
" j	c #4b4d4d",
" k	c #45494b",
" l	c #4e4e4d",
" m	c #6b5c54",
" n	c #736055",
" o	c #735f55",
" p	c #735f54",
" q	c #746055",
" r	c #766157",
" s	c #7a6457",
" t	c #766055",
" u	c #745e52",
" v	c #735c50",
" w	c #735b4f",
" x	c #735b4e",
" y	c #735a4d",
" z	c #73594c",
" A	c #73584b",
" B	c #73584a",
" C	c #735749",
" D	c #735647",
" E	c #735546",
" F	c #6b5347",
" G	c #4e4d4d",
" H	c #454c4f",
" I	c #44494b",
" J	c #7e6458",
" K	c #db936e",
" L	c #fca374",
" M	c #ffa373",
" N	c #ffa271",
" O	c #ffa06e",
" P	c #ffa170",
" Q	c #ffa374",
" R	c #f99f78",
" S	c #ffa16f",
" T	c #ff9963",
" U	c #ff925a",
" V	c #ff8f56",
" W	c #ff8c51",
" X	c #ff894c",
" Y	c #ff8547",
" Z	c #ff8241",
" 0	c #ff7e3c",
" 1	c #ff7a36",
" 2	c #ff7630",
" 3	c #ff722a",
" 4	c #fc6d25",
" 5	c #db6427",
" 6	c #7c523e",
" 7	c #434b4f",
" 8	c #7a6357",
" 9	c #fca373",
" !	c #ffa574",
" @	c #ffa171",
" #	c #ff9f6f",
" $	c #ff9e6d",
" %	c #ff9c6a",
" ^	c #ffa36f",
" &	c #e6957d",
" *	c #3d2a95",
" (	c #eb997c",
" )	c #ff9d66",
" _	c #ff9057",
" +	c #ff8b51",
" -	c #ff894d",
" =	c #ff8548",
" {	c #ff8243",
" }	c #ff7e3d",
" |	c #ff7a37",
" [	c #ff7732",
" ]	c #ff732c",
" :	c #ff6f26",
" ;	c #ff6a20",
" '	c #ff6817",
" <	c #fc6314",
" >	c #774f3b",
" ?	c #434b4e",
" ,	c #dc8f69",
" .	c #ffa471",
" /	c #ff9e6e",
"a 	c #ff9d6c",
"aa	c #ff9b68",
"ab	c #ff9966",
"ac	c #ff9d6b",
"ad	c #fcab7c",
"ae	c #352596",
"af	c #9f6b8b",
"ag	c #ffa86c",
"ah	c #ff8e56",
"ai	c #ff884c",
"aj	c #ff7e3e",
"ak	c #ff7a38",
"al	c #ff7733",
"am	c #ff732d",
"an	c #ff6f27",
"ao	c #ff6b20",
"ap	c #ff671a",
"aq	c #ff6214",
"ar	c #ff600c",
"as	c #da5716",
"at	c #474747",
"au	c #4a4b4c",
"av	c #695952",
"aw	c #fd9c6a",
"ax	c #ff9d6a",
"ay	c #ff9b69",
"az	c #ff9a68",
"aA	c #ff9866",
"aB	c #ff9763",
"aC	c #ff9560",
"aD	c #ffad74",
"aE	c #895e8e",
"aF	c #483294",
"aG	c #ffaa72",
"aH	c #ff8447",
"aI	c #ff8142",
"aJ	c #ff7632",
"aK	c #ff6314",
"aL	c #ff5e0e",
"aM	c #ff5b07",
"aN	c #fd5704",
"aO	c #5f4437",
"aP	c #42484a",
"aQ	c #715c51",
"aR	c #ff9a66",
"aS	c #ff9965",
"aT	c #ff9864",
"aU	c #ff9662",
"aV	c #ff945d",
"aW	c #ff915b",
"aX	c #ff915a",
"aY	c #ff9f67",
"aZ	c #da9080",
"a0	c #1e1696",
"a1	c #e89478",
"a2	c #ff9357",
"a3	c #ff7c3b",
"a4	c #ff7937",
"a5	c #ff7631",
"a6	c #ff722c",
"a7	c #ff6e26",
"a8	c #ff661a",
"a9	c #ff6213",
"a!	c #ff5b09",
"a@	c #ff5905",
"a#	c #ff5601",
"a$	c #644131",
"a%	c #3d4447",
"a^	c #705b50",
"a&	c #ff9660",
"a*	c #ff955f",
"a(	c #ff945e",
"a)	c #ff935c",
"a_	c #ff8f58",
"a+	c #ff8d55",
"a-	c #ff8c52",
"a=	c #ffa570",
"a{	c #3a2891",
"a}	c #9d6482",
"a|	c #ff9b5a",
"a[	c #ff8040",
"a]	c #ff7835",
"a:	c #ff752f",
"a;	c #ff712a",
"a'	c #ff6e25",
"a<	c #ff6a1f",
"a>	c #ff6619",
"a?	c #ff5f0f",
"a,	c #ff6313",
"a.	c #ff6911",
"a/	c #fe600d",
"b 	c #614233",
"ba	c #3b4144",
"bb	c #705a4f",
"bc	c #ff9159",
"bd	c #ff9058",
"be	c #ff8d54",
"bf	c #ff8d53",
"bg	c #ff8d50",
"bh	c #ff8c53",
"bi	c #ffa162",
"bj	c #8b5982",
"bk	c #482e8a",
"bl	c #ff9c5e",
"bm	c #ff803f",
"bn	c #ff742f",
"bo	c #ff7028",
"bp	c #ff6c23",
"bq	c #ff691d",
"br	c #ff6517",
"bs	c #ff6112",
"bt	c #ff6617",
"bu	c #ff7622",
"bv	c #f97835",
"bw	c #904469",
"bx	c #b34a46",
"by	c #6c4a33",
"bz	c #3b4043",
"bA	c #70594d",
"bB	c #ff8e54",
"bC	c #ff8b52",
"bD	c #ff8a50",
"bE	c #ff894e",
"bF	c #ff8b50",
"bG	c #fc8e58",
"bH	c #f78e5e",
"bI	c #ff9758",
"bJ	c #ff985d",
"bK	c #dd8871",
"bL	c #1e158c",
"bM	c #e68866",
"bN	c #ff8440",
"bO	c #ff7029",
"bP	c #ff6b21",
"bQ	c #ff681b",
"bR	c #ff6316",
"bS	c #ff6719",
"bT	c #ff7320",
"bU	c #ff7f32",
"bV	c #a75868",
"bW	c #2b18a5",
"bX	c #2c19a4",
"bY	c #be5544",
"bZ	c #694934",
"b0	c #3a3f42",
"b1	c #70584c",
"b2	c #ff8a4e",
"b3	c #ff884d",
"b4	c #ff874b",
"b5	c #ff8549",
"b6	c #ff8c4b",
"b7	c #d07764",
"b8	c #2c1b87",
"b9	c #c47871",
"b!	c #ffa465",
"b@	c #ffa56b",
"b#	c #402a87",
"b$	c #985a73",
"b%	c #ff8b43",
"b^	c #ff6518",
"b&	c #ff671b",
"b*	c #ff7222",
"b(	c #ff8030",
"b)	c #c96a57",
"b_	c #492995",
"b+	c #2315a9",
"b-	c #8a4a77",
"b=	c #e97237",
"b{	c #ef6216",
"b}	c #5c4033",
"b|	c #70574a",
"b[	c #ff8446",
"b]	c #ff8244",
"b:	c #ff8343",
"b;	c #f98e54",
"b'	c #8f5776",
"b<	c #100b8b",
"b>	c #8f5d7d",
"b?	c #ffb675",
"b,	c #956384",
"b.	c #452982",
"b/	c #ff8e4b",
"c 	c #ff681c",
"ca	c #ff7023",
"cb	c #ff812d",
"cc	c #e0744e",
"cd	c #562f8e",
"ce	c #150dae",
"cf	c #743f83",
"cg	c #e77642",
"ch	c #f67124",
"ci	c #e45c15",
"cj	c #db4f08",
"ck	c #583b2d",
"cl	c #393e41",
"cm	c #705649",
"cn	c #ff8140",
"co	c #ff7f3f",
"cp	c #ff7d3b",
"cq	c #ff7b38",
"cr	c #ff7b39",
"cs	c #ff9651",
"ct	c #bd736d",
"cu	c #1c1289",
"cv	c #68488b",
"cw	c #df9a89",
"cx	c #251a90",
"cy	c #e38263",
"cz	c #ff823b",
"cA	c #ff802e",
"cB	c #ec7946",
"cC	c #7d447c",
"cD	c #1d11a7",
"cE	c #5d348d",
"cF	c #d16c51",
"cG	c #f97629",
"cH	c #e85f18",
"cI	c #dc510b",
"cJ	c #d74a03",
"cK	c #d34600",
"cL	c #55392b",
"cM	c #705548",
"cN	c #ff7c39",
"cO	c #ff7936",
"cP	c #ff7834",
"cQ	c #ff742e",
"cR	c #ff8b42",
"cS	c #e6865d",
"cT	c #3c2388",
"cU	c #3c2b96",
"cV	c #241a9a",
"cW	c #a26985",
"cX	c #ffa35f",
"cY	c #985472",
"cZ	c #1d10a4",
"c0	c #39209b",
"c1	c #be635c",
"c2	c #fe7a2d",
"c3	c #ef651b",
"c4	c #e0540e",
"c5	c #d94b04",
"c6	c #d34700",
"c7	c #cf4400",
"c8	c #cc4300",
"c9	c #53382b",
"c!	c #393f41",
"c@	c #705446",
"c#	c #ff7530",
"c$	c #ff6c22",
"c%	c #ff6d25",
"c^	c #ff8037",
"c&	c #fd965d",
"c*	c #754d8f",
"c(	c #120ca3",
"c)	c #3927a0",
"c_	c #4630a3",
"c+	c #3320a3",
"c-	c #ae606c",
"c=	c #f97a36",
"c{	c #f66b1e",
"c}	c #e55710",
"c|	c #dd4d05",
"c[	c #d74801",
"c]	c #d14500",
"c:	c #cb4400",
"c;	c #c74200",
"c'	c #c44100",
"c<	c #52382b",
"c>	c #3a3f41",
"c?	c #705345",
"c,	c #ff7129",
"c.	c #ff6d24",
"c/	c #ff691f",
"d 	c #ff7a2f",
"da	c #ff974d",
"db	c #d98e81",
"dc	c #2b1ea9",
"dd	c #100bad",
"de	c #3626ab",
"df	c #f8a071",
"dg	c #ff883d",
"dh	c #e9611c",
"di	c #e15109",
"dj	c #da4a01",
"dk	c #d44700",
"dl	c #cf4500",
"dm	c #c94300",
"dn	c #c54200",
"do	c #c04000",
"dp	c #bd3e00",
"dq	c #50372b",
"dr	c #464c4f",
"ds	c #705244",
"dt	c #ff6d22",
"du	c #ff691e",
"dv	c #ff6519",
"dw	c #ff7024",
"dx	c #ff822e",
"dy	c #dd7451",
"dz	c #5b3391",
"dA	c #1910ad",
"dB	c #805796",
"dC	c #513aa8",
"dD	c #1816b7",
"dE	c #694aa1",
"dF	c #e57f52",
"dG	c #ea6820",
"dH	c #d9510d",
"dI	c #d24803",
"dJ	c #cc4400",
"dK	c #c14100",
"dL	c #bc3f00",
"dM	c #b93d00",
"dN	c #b63c00",
"dO	c #4f372b",
"dP	c #705142",
"dQ	c #ff6618",
"dR	c #ff6416",
"dS	c #ff6315",
"dT	c #ff6c20",
"dU	c #ff7e2b",
"dV	c #ef7b46",
"dW	c #84487d",
"dX	c #1f13ab",
"dY	c #573090",
"dZ	c #d16f59",
"d0	c #ff9e50",
"d1	c #895c93",
"d2	c #4337b2",
"d3	c #5e4aad",
"d4	c #4235af",
"d5	c #c56c56",
"d6	c #e26823",
"d7	c #cd5012",
"d8	c #c54505",
"d9	c #bf4000",
"d!	c #b93e00",
"d@	c #b43c00",
"d#	c #b13b00",
"d$	c #ae3a00",
"d%	c #4d362b",
"d^	c #705040",
"d&	c #ff6212",
"d*	c #ff6215",
"d(	c #ff691c",
"d)	c #ff7926",
"d_	c #ff823a",
"d+	c #945073",
"d-	c #2114ab",
"d=	c #3921a1",
"d{	c #c5675b",
"d}	c #ff7b2d",
"d|	c #f46a1f",
"d[	c #f06f2a",
"d]	c #c87362",
"d:	c #3c35b9",
"d;	c #db957d",
"d'	c #876097",
"d<	c #3833bb",
"d>	c #a2606d",
"d?	c #d86b2a",
"d,	c #c45116",
"d.	c #b94208",
"d/	c #b23c01",
"e 	c #ad3a00",
"ea	c #aa3800",
"eb	c #a63700",
"ec	c #4c362b",
"ed	c #3b3f41",
"ee	c #70503f",
"ef	c #ff6010",
"eg	c #ff7322",
"eh	c #ff7f34",
"ei	c #b35e64",
"ej	c #3b219f",
"ek	c #321da4",
"el	c #a85a6b",
"em	c #f77937",
"en	c #f76b1f",
"eo	c #e75810",
"ep	c #e15006",
"eq	c #df5813",
"er	c #e47438",
"es	c #513fab",
"et	c #9c6a87",
"eu	c #f18f4c",
"ev	c #a16575",
"ew	c #3735be",
"ex	c #7a5189",
"ey	c #c86632",
"ez	c #ba4e15",
"eA	c #ab3e07",
"eB	c #a53700",
"eC	c #a23600",
"eD	c #9f3500",
"eE	c #4a352b",
"eF	c #464d50",
"eG	c #725242",
"eH	c #ff6714",
"eI	c #ff7b25",
"eJ	c #d36d52",
"eK	c #452699",
"eL	c #1c12af",
"eM	c #85487c",
"eN	c #f47a3c",
"eO	c #fa7021",
"eP	c #e95b13",
"eQ	c #e15008",
"eR	c #dc4a01",
"eS	c #d74700",
"eT	c #d44d09",
"eU	c #e06924",
"eV	c #855584",
"eW	c #6249a2",
"eX	c #d8773f",
"eY	c #d46e32",
"eZ	c #af6558",
"e0	c #443ab2",
"e1	c #553ea0",
"e2	c #aa5232",
"e3	c #a9410a",
"e4	c #9e3501",
"e5	c #9a3300",
"e6	c #983200",
"e7	c #49352b",
"e8	c #474d50",
"e9	c #7a5742",
"e!	c #e3612e",
"e@	c #613187",
"e#	c #1b11ae",
"e$	c #734084",
"e%	c #e37447",
"e^	c #fb7426",
"e&	c #e95e16",
"e*	c #dc4b02",
"e(	c #d74800",
"e)	c #ce4500",
"e_	c #ca4604",
"e+	c #d05a1a",
"e-	c #b46557",
"e=	c #443bb5",
"e{	c #be694a",
"e}	c #bf5924",
"e|	c #c05a20",
"e[	c #b5603b",
"e]	c #5f3f8b",
"e:	c #904640",
"e;	c #a33f08",
"e'	c #963301",
"e<	c #933000",
"e>	c #903000",
"e?	c #48342b",
"e,	c #3c3f41",
"e.	c #484e50",
"e/	c #7a5842",
"f 	c #ce5537",
"fa	c #562988",
"fb	c #c76350",
"fc	c #fc7729",
"fd	c #ec6219",
"fe	c #e0530c",
"ff	c #dc4c03",
"fg	c #d24600",
"fh	c #ce4400",
"fi	c #ca4400",
"fj	c #c04101",
"fk	c #c14d11",
"fl	c #c96835",
"fm	c #4e3eaa",
"fn	c #91596e",
"fo	c #bd5920",
"fp	c #aa4410",
"fq	c #a94612",
"fr	c #ac4b14",
"fs	c #a04210",
"ft	c #953707",
"fu	c #8f3001",
"fv	c #8b2e00",
"fw	c #892d00",
"fx	c #46342b",
"fy	c #6f5141",
"fz	c #f05c10",
"fA	c #f56616",
"fB	c #ed6116",
"fC	c #e0550f",
"fD	c #db4c05",
"fE	c #d64800",
"fF	c #c54100",
"fG	c #bc3e00",
"fH	c #b73d00",
"fI	c #b54309",
"fJ	c #c45f23",
"fK	c #774e83",
"fL	c #5b439b",
"fM	c #bb612b",
"fN	c #a1400f",
"fO	c #983503",
"fP	c #953504",
"fQ	c #913304",
"fR	c #8b3002",
"fS	c #872d00",
"fT	c #842c00",
"fU	c #832b00",
"fV	c #45332b",
"fW	c #484d4f",
"fX	c #634c41",
"fY	c #df4e05",
"fZ	c #e14e04",
"f0	c #db4b03",
"f1	c #b33c00",
"f2	c #ab3c04",
"f3	c #b45019",
"f4	c #a05d54",
"f5	c #3d35b3",
"f6	c #a65e43",
"f7	c #a04515",
"f8	c #903101",
"f9	c #832c00",
"f!	c #802b00",
"f@	c #7e2a00",
"f#	c #792901",
"f$	c #3f342e",
"f%	c #3d3f41",
"f^	c #4c4d4e",
"f&	c #4a4b4b",
"f*	c #b8480f",
"f(	c #de4700",
"f)	c #b83d00",
"f_	c #af3b00",
"f+	c #aa3900",
"f-	c #a23701",
"f=	c #a44211",
"f{	c #b05b2e",
"f}	c #4437a9",
"f|	c #74486e",
"f[	c #9f4713",
"f]	c #8a3003",
"f:	c #7d2a00",
"f;	c #792900",
"f'	c #7a2700",
"f<	c #65290b",
"f>	c #343536",
"f?	c #3f4040",
"f,	c #634637",
"f.	c #cb4403",
"f/	c #d34400",
"g 	c #c84200",
"ga	c #c34100",
"gb	c #bf3f00",
"gc	c #ba3e00",
"gd	c #b63d00",
"ge	c #ad3900",
"gf	c #a83800",
"gg	c #a43600",
"gh	c #a03500",
"gi	c #9b3400",
"gj	c #9a3908",
"gk	c #a44a16",
"gl	c #76435f",
"gm	c #723e59",
"gn	c #953f0f",
"go	c #842e03",
"gp	c #7b2900",
"gq	c #782800",
"gr	c #772600",
"gs	c #6f2602",
"gt	c #3e2e26",
"gu	c #343739",
"gv	c #414141",
"gw	c #4d4c4c",
"gx	c #40474a",
"gy	c #5b4031",
"gz	c #a23f0e",
"gA	c #bb3f02",
"gB	c #bb3e00",
"gC	c #b23b00",
"gD	c #a93900",
"gE	c #a43700",
"gF	c #a03600",
"gG	c #9c3400",
"gH	c #983300",
"gI	c #933100",
"gJ	c #913203",
"gK	c #90370b",
"gL	c #943f0f",
"gM	c #903c0e",
"gN	c #84320a",
"gO	c #7d2b02",
"gP	c #752700",
"gQ	c #60270c",
"gR	c #3c2d25",
"gS	c #2f3335",
"gT	c #3a3a3a",
"gU	c #444444",
"gV	c #4a4a4a",
"gW	c #3e4346",
"gX	c #383a3b",
"gY	c #45352e",
"gZ	c #493329",
"g0	c #483328",
"g1	c #473228",
"g2	c #463228",
"g3	c #453228",
"g4	c #443128",
"g5	c #433128",
"g6	c #423128",
"g7	c #413128",
"g8	c #42322a",
"g9	c #42332b",
"g!	c #41332b",
"g@	c #3f3129",
"g#	c #3e3028",
"g$	c #3d2f28",
"g%	c #3c2f28",
"g^	c #382f2a",
"g&	c #2f3131",
"g*	c #303335",
"g(	c #383737",
"g)	c #404040",
"g_	c #484848",
"g+	c #4c4c4c",
"g-	c #494949",
"g=	c #424343",
"g{	c #393c3e",
"g}	c #34383a",
"g|	c #323638",
"g[	c #333638",
"g]	c #343638",
"g:	c #343738",
"g;	c #353738",
"g'	c #373838",
"g<	c #3b3b3b",
"g>	c #4b4b4b",
" a a a a b c d e e e e e e e e f f g g g h h h h i j a a a a",
" a a a k l m n o p q r s t u v w x y z A B C D E F G H a a a",
" a a I J K L M N O P Q R S T U V W X Y Z 0 1 2 3 4 5 6 7 a a",
" a k 8 9 ! @ # $ % ^ & * ( ) _ + - = { } | [ ] : ; ' < > ? a",
" b a , . /a  %aaabacadaeafagahai = {ajakalamanaoapaqarasatau",
" cavawaxayazaAaBaCaBaDaEaFaG VaHaI } |aJ ] :aoapaKaLaMaNaOaP",
" eaQaRaSaTaUaCaVaWaXaYaZa0a1a2aIa3a4a5a6a7 ;a8a9aLa!a@a#a$a%",
" ea^a&a*a(a)aXa_a+a-aXa=a{a}a|a[a]a:a;a'a<a>a9a?a?a,a.a/b ba",
" fbb Ubcbd Vbebfbfbgbhbibjbkblbmbnbobpbqbra9bsbtbubvbwbxbybz",
" fbAbBbfbCbDbEbFbGbHbIbJbKbLbMbNbObPbQbrbRbSbTbUbVbWbXbYbZb0",
" gb1b2b3b4b5aHb6b7b8b9b!b@b#b$b%a7a8b^b&b*b(b)b_b+b-b=b{b}b0",
" gb| Yb[b]aIbmb:b;b'b<b>b?b,b.b/boc cacbcccdcecfcgchcicjckcl",
" gcmcnco }cpcqcrcncsctcucvcwcxcyczcAcBcCcDcEcFcGcHcIcJcKcLcl",
" hcMcNcqcOcPa5cQcQcPcRcScTcUcVcWcXcYcZc0c1c2c3c4c5c6c7c8c9c!",
" hc@ [c#bn ]bOa'c$ ;c%c^c&c*c(c)c_c+c-c=c{c}c|c[c]c:c;c'c<c>",
" hc? 3c,anc.bPbqa8a>c/d dadbdcdddedfdgdhdidjdkdldmdndodpdqc>",
"drdsdtbPdub&dvb^b&dwdxdydzdAdBdCdDdEdFdGdHdIdJc;dKdLdMdNdOc>",
"drdPapdQdRdSb^dTdUdVdWdXdYdZd0d1d2d3d4d5d6d7d8d9d!d@d#d$d%c>",
"drd^d&bsd*d(d)d_d+d-d=d{d}d|d[d]d:d;d'd<d>d?d,d.d/e eaebeced",
"dreeefbregeheiejekelemeneoepeqereseteuevewexeyezeAeBeCeDeEed",
"eFeGeHeIeJeKeLeMeNeOePeQeReSeTeUeVeWeXeYeZe0e1e2e3e4e5e6e7ed",
"e8e9e!e@e#e$e%e^e&die*e(cKe)e_e+e-e=e{e}e|e[e]e:e;e'e<e>e?e,",
"e.e/f fafbfcfdfeffe(fgfhfidnfjfkflfmfnfofpfqfrfsftfufvfwfxe,",
"e8fyfzfAfBfCfDfEfge)dmfFdofGfHfIfJfKfLfMfNfOfPfQfRfSfTfUfVe,",
"fWfXfYfZf0c[fgfhdmdndodLfHf1d$f2f3f4f5f6f7f8fvfSf9f!f@f#f$f%",
"f^f&f*f(fge)dmdndodLf)f1f_f+ebf-f=f{f}f|f[f]fTf!f:f;f'f<f>f?",
" a hf,f.f/g gagbgcgdd#gegfggghgigjgkglgmgngof@gpgqgrgsgtgugv",
" agwgxgygzgAgBgdgCe gDgEgFgGgHgIgJgKgLgMgNgOgqgPgsgQgRgSgTgU",
" a agVgWgXgYgZg0g1g2g3g4g4g5g6g7g7g8g9g!g@g#g$g%g^g&g*g(g)g_",
" a ag+g-g=g{g}g|g|g|g|g[g[g[g[g[g[g[g[g]g:g:g:g:g;g'g<gvatg>"
};
