/* XPM */
static char * ford_riggingAid__createPiramyd_xpm[] = {
"30 30 767 2",
"  	c none",
" a	c #4d4d4d",
" b	c #4b4c4d",
" c	c #474a4c",
" d	c #46494b",
" e	c #464a4c",
" f	c #464b4d",
" g	c #464b4e",
" h	c #474c4e",
" i	c #4b4d4d",
" j	c #45494b",
" k	c #4e4e4d",
" l	c #6b5c54",
" m	c #736055",
" n	c #735f55",
" o	c #735e54",
" p	c #735e53",
" q	c #745e53",
" r	c #755e54",
" s	c #766055",
" t	c #786257",
" u	c #7b6457",
" v	c #7a6255",
" w	c #765d50",
" x	c #74594c",
" y	c #73584a",
" z	c #735749",
" A	c #735647",
" B	c #735546",
" C	c #6b5347",
" D	c #4e4d4d",
" E	c #454c4f",
" F	c #44494b",
" G	c #7e6458",
" H	c #db936e",
" I	c #fca374",
" J	c #ffa373",
" K	c #ffa271",
" L	c #ffa170",
" M	c #ffa270",
" N	c #ffa570",
" O	c #ffa972",
" P	c #ffae75",
" Q	c #ffb078",
" R	c #ffa677",
" S	c #ffa06d",
" T	c #ff985b",
" U	c #ff874a",
" V	c #ff803e",
" W	c #ff7a36",
" X	c #ff7630",
" Y	c #ff722a",
" Z	c #fc6d25",
" 0	c #db6427",
" 1	c #7c523e",
" 2	c #434b4f",
" 3	c #7a6357",
" 4	c #fca373",
" 5	c #ffa674",
" 6	c #ffa171",
" 7	c #ffa070",
" 8	c #ffa172",
" 9	c #ffa979",
" !	c #ffb683",
" @	c #ffb485",
" #	c #ffad83",
" $	c #e19881",
" %	c #ba7e83",
" ^	c #8b6087",
" &	c #6a4b8c",
" *	c #392891",
" (	c #3c2891",
" )	c #d68675",
" _	c #ff9755",
" +	c #ff8041",
" -	c #ff7733",
" =	c #ff732c",
" {	c #ff6f26",
" }	c #ff6a20",
" |	c #ff6817",
" [	c #fc6314",
" ]	c #774f3b",
" :	c #434b4e",
" ;	c #dc8f69",
" '	c #ffa471",
" <	c #ff9e6e",
" >	c #ff9d6d",
" ?	c #ff9f70",
" ,	c #ffac7c",
" .	c #e3a089",
" /	c #815e84",
"a 	c #584282",
"aa	c #453284",
"ab	c #392a88",
"ac	c #4a3a8f",
"ad	c #6b5396",
"ae	c #241d9d",
"af	c #36289c",
"ag	c #845f95",
"ah	c #271a9c",
"ai	c #e38b6c",
"aj	c #ff8f4a",
"ak	c #ff7835",
"al	c #ff7028",
"am	c #ff671a",
"an	c #ff6214",
"ao	c #ff600c",
"ap	c #da5716",
"aq	c #474747",
"ar	c #4a4b4c",
"as	c #695952",
"at	c #fd9c6a",
"au	c #ff9d6a",
"av	c #ff9b69",
"aw	c #ff9c69",
"ax	c #ffa573",
"ay	c #f4ab89",
"az	c #43327f",
"aA	c #00017a",
"aB	c #1b1689",
"aC	c #aa86a0",
"aD	c #ffc7a2",
"aE	c #ffcca3",
"aF	c #6f55aa",
"aG	c #4631a2",
"aH	c #e9a083",
"aI	c #ffb271",
"aJ	c #915c89",
"aK	c #2d1c9f",
"aL	c #ea8961",
"aM	c #ff853e",
"aN	c #ff6f28",
"aO	c #ff681b",
"aP	c #ff6314",
"aQ	c #ff5f0e",
"aR	c #ff5b08",
"aS	c #fd5704",
"aT	c #5f4437",
"aU	c #42484a",
"aV	c #715c51",
"aW	c #ff9a66",
"aX	c #ff9865",
"aY	c #ff9864",
"aZ	c #ffb27c",
"a0	c #8d6586",
"a1	c #090881",
"a2	c #8a6c9a",
"a3	c #8b6f9f",
"a4	c #3d2fa0",
"a5	c #6c55aa",
"a6	c #4b3ab0",
"a7	c #5f45a7",
"a8	c #ffb082",
"a9	c #ff9e63",
"a!	c #ff8d53",
"a@	c #ff9c56",
"a#	c #7a498a",
"a$	c #341f9d",
"a%	c #f58a52",
"a^	c #ff7b30",
"a&	c #ff671b",
"a*	c #ff5e0e",
"a(	c #ff5a07",
"a)	c #ff5702",
"a_	c #ff5400",
"a+	c #63402f",
"a-	c #3d4447",
"a=	c #705b50",
"a{	c #ff9660",
"a}	c #ff955f",
"a|	c #ffa16b",
"a[	c #e89c7f",
"a]	c #403088",
"a:	c #7d609a",
"a;	c #75599c",
"a'	c #ffe1a0",
"a<	c #c393a4",
"a>	c #0f0fb6",
"a?	c #231fb7",
"a,	c #6651b3",
"a.	c #ca8d8b",
"a/	c #ff9b5f",
"b 	c #ff8f4b",
"ba	c #ff894a",
"bb	c #ff9652",
"bc	c #70418b",
"bd	c #452795",
"be	c #fa8444",
"bf	c #ff7023",
"bg	c #ff5d0d",
"bh	c #fe5601",
"bi	c #fc5300",
"bj	c #f85200",
"bk	c #5d3d2c",
"bl	c #3a4043",
"bm	c #464a4d",
"bn	c #705a4f",
"bo	c #ff925a",
"bp	c #ff915a",
"bq	c #ff9560",
"br	c #ffab70",
"bs	c #795083",
"bt	c #805e91",
"bu	c #bd8b9d",
"bv	c #63489f",
"bw	c #c195a2",
"bx	c #3b30b5",
"by	c #b27d96",
"bz	c #f5a881",
"bA	c #9f6c92",
"bB	c #5944ae",
"bC	c #674ba7",
"bD	c #c17577",
"bE	c #ff8f54",
"bF	c #ff944b",
"bG	c #ff9855",
"bH	c #5b3591",
"bI	c #552d8a",
"bJ	c #ff8135",
"bK	c #ff6616",
"bL	c #f85606",
"bM	c #f45100",
"bN	c #f04f00",
"bO	c #5b3b2b",
"bP	c #393f42",
"bQ	c #70594d",
"bR	c #ff8e54",
"bS	c #ff8f56",
"bT	c #ff9c63",
"bU	c #df9079",
"bV	c #30218d",
"bW	c #f0ad8e",
"bX	c #eba997",
"bY	c #392caf",
"bZ	c #4336b4",
"b0	c #c68286",
"b1	c #ff9f5c",
"b2	c #ff8f51",
"b3	c #ff934d",
"b4	c #fd9058",
"b5	c #b26f7f",
"b6	c #553ea9",
"b7	c #4834a9",
"b8	c #a6627c",
"b9	c #fc9359",
"b!	c #ffa05c",
"b@	c #4c2f98",
"b#	c #693681",
"b$	c #ff7e32",
"b%	c #f56115",
"b^	c #ed5205",
"b&	c #e94d00",
"b*	c #593a2b",
"b(	c #383e41",
"b)	c #70574c",
"b_	c #ff8a4e",
"b+	c #ffa76a",
"b-	c #694488",
"b=	c #815b91",
"b{	c #ffc78c",
"b}	c #7e5da6",
"b|	c #2722b8",
"b[	c #e09688",
"b]	c #ff9b59",
"b:	c #ff7f3e",
"b;	c #ff7631",
"b'	c #ff7a34",
"b<	c #ff8439",
"b>	c #ff8847",
"b?	c #b46770",
"b,	c #462da1",
"b.	c #3a24a7",
"b/	c #9b6083",
"c 	c #f09a70",
"ca	c #4630a2",
"cb	c #754183",
"cc	c #fd7e34",
"cd	c #e95c15",
"ce	c #e24e03",
"cf	c #583a2b",
"cg	c #70574a",
"ch	c #ff884b",
"ci	c #ff995c",
"cj	c #cf857b",
"ck	c #362796",
"cl	c #edaa93",
"cm	c #5c43a8",
"cn	c #503bab",
"co	c #5b49b2",
"cp	c #ea9276",
"cq	c #ff8846",
"cr	c #ff742e",
"cs	c #ff6e25",
"ct	c #ff6b21",
"cu	c #ff691f",
"cv	c #ff6a1f",
"cw	c #ff6e23",
"cx	c #ff7a29",
"cy	c #ff7e37",
"cz	c #bf635c",
"cA	c #532d93",
"cB	c #3c29a9",
"cC	c #77529e",
"cD	c #261eb0",
"cE	c #8f557e",
"cF	c #f1762f",
"cG	c #de550f",
"cH	c #583c2d",
"cI	c #393e41",
"cJ	c #ff894d",
"cK	c #ffa468",
"cL	c #624190",
"cM	c #77599e",
"cN	c #4836ad",
"cO	c #6a469d",
"cP	c #ffb07a",
"cQ	c #7057ad",
"cR	c #d27d73",
"cS	c #ff823b",
"cT	c #ff691d",
"cU	c #ff6619",
"cV	c #ff5f0f",
"cW	c #ff5d0c",
"cX	c #ff6212",
"cY	c #ff6e1b",
"cZ	c #ff7a2e",
"c0	c #bd645f",
"c1	c #583698",
"c2	c #221eb6",
"c3	c #181abc",
"c4	c #a65f6e",
"c5	c #e1631e",
"c6	c #593e30",
"c7	c #73594c",
"c8	c #ff9452",
"c9	c #ca7f7a",
"c!	c #1410a1",
"c@	c #241cac",
"c#	c #935d8b",
"c$	c #ff9e5f",
"c%	c #ff9c5a",
"c^	c #835b9e",
"c&	c #b56d7d",
"c*	c #ff8136",
"c(	c #ff6315",
"c)	c #ff6111",
"c_	c #ff5a06",
"c+	c #ff5602",
"c-	c #fc5400",
"c=	c #f65302",
"c{	c #f15406",
"c}	c #ec5a10",
"c|	c #f26a20",
"c[	c #f28343",
"c]	c #cb8274",
"c:	c #5b46a9",
"c;	c #4433a9",
"c'	c #d6642c",
"c<	c #5b4032",
"c>	c #3a3e41",
"c?	c #474b4e",
"c,	c #775c4f",
"c.	c #fd9557",
"c/	c #593991",
"d 	c #1912a6",
"da	c #b37385",
"db	c #ff9850",
"dc	c #ff7f3d",
"dd	c #ff8a40",
"de	c #9e6288",
"df	c #915a8b",
"dg	c #ff8031",
"dh	c #ff5803",
"di	c #fd5500",
"dj	c #f95300",
"dk	c #f35100",
"dl	c #ee4f00",
"dm	c #e84d00",
"dn	c #e34f04",
"do	c #df5815",
"dp	c #ea732e",
"dq	c #d27f63",
"dr	c #5344b2",
"ds	c #88527a",
"dt	c #d25e20",
"du	c #573e31",
"dv	c #7a5f4e",
"dw	c #f48557",
"dx	c #26199e",
"dy	c #c88181",
"dz	c #ff9e58",
"dA	c #ff7834",
"dB	c #ff7f31",
"dC	c #a96078",
"dD	c #82508e",
"dE	c #ff7e2e",
"dF	c #ff6313",
"dG	c #ff5804",
"dH	c #fe5501",
"dI	c #fb5400",
"dJ	c #f65200",
"dK	c #f05000",
"dL	c #eb4e00",
"dM	c #e54d00",
"dN	c #e04e04",
"dO	c #dc5410",
"dP	c #e76920",
"dQ	c #b0605d",
"dR	c #3f33b0",
"dS	c #8e5574",
"dT	c #d56728",
"dU	c #c24c10",
"dV	c #533a2e",
"dW	c #3a3f41",
"dX	c #464c4e",
"dY	c #75594a",
"dZ	c #ff8942",
"d0	c #744287",
"d1	c #633d94",
"d2	c #ff914b",
"d3	c #ff7627",
"d4	c #c56761",
"d5	c #5f3a98",
"d6	c #ff600f",
"d7	c #fb5300",
"d8	c #f75200",
"d9	c #f25100",
"d!	c #ed4f00",
"d@	c #e74d00",
"d#	c #e24c00",
"d$	c #dd4d05",
"d%	c #db5613",
"d^	c #e66c24",
"d&	c #9c5768",
"d*	c #372eb1",
"d(	c #a05b64",
"d)	c #d46422",
"d_	c #be4b11",
"d+	c #b74004",
"d-	c #4f372b",
"d=	c #464c4f",
"d{	c #725445",
"d}	c #ff772d",
"d|	c #fc8849",
"d[	c #361fa0",
"d]	c #975379",
"d:	c #ff822f",
"d;	c #ff661b",
"d'	c #ff6e1e",
"d<	c #e26e48",
"d>	c #48299b",
"d?	c #f77234",
"d,	c #fa6011",
"d.	c #e94e00",
"d/	c #e44c00",
"e 	c #df4b01",
"ea	c #da4d06",
"eb	c #da5815",
"ec	c #e36d29",
"ed	c #804978",
"ee	c #392cac",
"ef	c #b06153",
"eg	c #cf601f",
"eh	c #b94810",
"ei	c #b23e04",
"ej	c #ae3a00",
"ek	c #4d362b",
"el	c #705141",
"em	c #ff792a",
"en	c #d87156",
"eo	c #2618a9",
"ep	c #d26c56",
"eq	c #ff7320",
"er	c #ff691c",
"es	c #f07039",
"et	c #422497",
"eu	c #df6a40",
"ev	c #f46114",
"ew	c #e94e01",
"ex	c #e54c00",
"ey	c #e04b00",
"ez	c #db4a01",
"eA	c #d74d09",
"eB	c #d95a17",
"eC	c #dc6d2f",
"eD	c #6a3d82",
"eE	c #3a29a4",
"eF	c #bb6347",
"eG	c #ca5c1c",
"eH	c #b5450d",
"eI	c #ae3c03",
"eJ	c #aa3900",
"eK	c #a63700",
"eL	c #4c362b",
"eM	c #3b3f41",
"eN	c #704f3e",
"eO	c #ff5e0c",
"eP	c #ff7b25",
"eQ	c #a6556b",
"eR	c #311ca2",
"eS	c #f1763a",
"eT	c #fe7025",
"eU	c #f77533",
"eV	c #412394",
"eW	c #c3604d",
"eX	c #ef6217",
"eY	c #e14d03",
"eZ	c #db4800",
"e0	c #d74902",
"e1	c #d34d0b",
"e2	c #d95d1a",
"e3	c #d56b35",
"e4	c #4d2d91",
"e5	c #442b97",
"e6	c #c6673a",
"e7	c #c3571a",
"e8	c #b2430b",
"e9	c #ab3b02",
"e!	c #a53700",
"e@	c #a23600",
"e#	c #9f3500",
"e$	c #4a352b",
"e%	c #464c50",
"e^	c #704e3d",
"e&	c #ff5703",
"e*	c #fd6011",
"e(	c #623488",
"e)	c #5f3188",
"e_	c #ff7f35",
"e+	c #fb7e36",
"e-	c #5c3287",
"e=	c #964b62",
"e{	c #eb6519",
"e}	c #d84b04",
"e|	c #d34702",
"e[	c #d04d0c",
"e]	c #d9601c",
"e:	c #c46541",
"e;	c #3a249c",
"e'	c #53328b",
"e<	c #c66635",
"e>	c #be5318",
"e?	c #ae4009",
"e,	c #a73902",
"e.	c #9d3400",
"e/	c #9a3300",
"f 	c #983200",
"fa	c #49352b",
"fb	c #464d50",
"fc	c #6f4d3c",
"fd	c #f45505",
"fe	c #f56317",
"ff	c #f17537",
"fg	c #301a9c",
"fh	c #975370",
"fi	c #ff9140",
"fj	c #6a3c84",
"fk	c #7c3f6f",
"fl	c #e6671c",
"fm	c #d04c0a",
"fn	c #cc4d0e",
"fo	c #d7621e",
"fp	c #b5604c",
"fq	c #2f20a6",
"fr	c #673d7f",
"fs	c #cc672b",
"ft	c #b84e16",
"fu	c #aa3e08",
"fv	c #a33701",
"fw	c #963200",
"fx	c #933100",
"fy	c #903000",
"fz	c #48342b",
"fA	c #3c3f41",
"fB	c #6e4c3c",
"fC	c #eb4f00",
"fD	c #e85309",
"fE	c #f1681b",
"fF	c #bd5f51",
"fG	c #2013a4",
"fH	c #d58264",
"fI	c #865483",
"fJ	c #68397d",
"fK	c #df6b26",
"fL	c #cb551a",
"fM	c #d66420",
"fN	c #a0585b",
"fO	c #2a20ad",
"fP	c #824b6e",
"fQ	c #c86427",
"fR	c #b14914",
"fS	c #a63b06",
"fT	c #a03601",
"fU	c #9b3300",
"fV	c #973200",
"fW	c #923100",
"fX	c #8e3000",
"fY	c #8c2e00",
"fZ	c #892d00",
"f0	c #46342b",
"f1	c #474d50",
"f2	c #6c4c3c",
"f3	c #ec4e00",
"f4	c #e24b00",
"f5	c #dc520d",
"f6	c #ec6d21",
"f7	c #84466e",
"f8	c #3a28a4",
"f9	c #ab7383",
"f!	c #4f3396",
"f@	c #da7840",
"f#	c #d46e32",
"f$	c #8c506b",
"f%	c #3027ad",
"f^	c #935460",
"f&	c #c46022",
"f*	c #ac4511",
"f(	c #a23905",
"f)	c #9c3400",
"f_	c #8f2f00",
"f+	c #8b2f00",
"f-	c #872d00",
"f=	c #842c00",
"f{	c #832b00",
"f}	c #45332b",
"f|	c #484d4f",
"f[	c #624b40",
"f]	c #e04a00",
"f:	c #da4900",
"f;	c #d64800",
"f'	c #d24803",
"f<	c #d25312",
"f>	c #de6f2f",
"f?	c #533492",
"f,	c #4a3aab",
"f.	c #5842a3",
"f/	c #de905d",
"g 	c #815584",
"ga	c #382dad",
"gb	c #a55d50",
"gc	c #bd5a1f",
"gd	c #a6420f",
"ge	c #9d3704",
"gf	c #983300",
"gg	c #943100",
"gh	c #8b2e00",
"gi	c #802b00",
"gj	c #7e2a00",
"gk	c #792901",
"gl	c #3f342e",
"gm	c #3d3f41",
"gn	c #4c4d4e",
"go	c #4a4b4b",
"gp	c #b84810",
"gq	c #de4800",
"gr	c #d24600",
"gs	c #ce4500",
"gt	c #c94300",
"gu	c #c64606",
"gv	c #cb5719",
"gw	c #ca7047",
"gx	c #3b2fac",
"gy	c #3d36b7",
"gz	c #725aa4",
"gA	c #513ea4",
"gB	c #af6045",
"gC	c #b5541c",
"gD	c #a23e0d",
"gE	c #9a3503",
"gF	c #8c2f00",
"gG	c #882e00",
"gH	c #7d2a00",
"gI	c #792900",
"gJ	c #7a2700",
"gK	c #65290b",
"gL	c #343536",
"gM	c #3f4040",
"gN	c #634637",
"gO	c #cb4403",
"gP	c #d34400",
"gQ	c #c84200",
"gR	c #c34100",
"gS	c #bf4000",
"gT	c #bd4509",
"gU	c #c85d1f",
"gV	c #ac645a",
"gW	c #463ab0",
"gX	c #61469a",
"gY	c #b7643e",
"gZ	c #b14f19",
"g0	c #9f3c0a",
"g1	c #973402",
"g2	c #8e2f00",
"g3	c #8a2e00",
"g4	c #862c00",
"g5	c #822b00",
"g6	c #7b2900",
"g7	c #782800",
"g8	c #772600",
"g9	c #6f2602",
"g!	c #3e2e26",
"g@	c #343739",
"g#	c #414141",
"g$	c #4d4c4c",
"g%	c #40474a",
"g^	c #5b4031",
"g&	c #a23f0e",
"g*	c #bb3f02",
"g(	c #bb3e00",
"g)	c #b63d00",
"g_	c #b23d02",
"g+	c #b1440d",
"g-	c #b8531e",
"g=	c #ae5a37",
"g{	c #b1592c",
"g}	c #a94a17",
"g|	c #9b3909",
"g[	c #943301",
"g]	c #8f3000",
"g:	c #832c00",
"g;	c #7f2a00",
"g'	c #7c2900",
"g<	c #752700",
"g>	c #60270c",
"g?	c #3c2d25",
"g,	c #2f3335",
"g.	c #3a3a3a",
"g/	c #444444",
"h 	c #4a4a4a",
"ha	c #3e4346",
"hb	c #383a3b",
"hc	c #45352e",
"hd	c #493329",
"he	c #483228",
"hf	c #473228",
"hg	c #48342a",
"hh	c #4a372e",
"hi	c #4f3c30",
"hj	c #4c3a30",
"hk	c #46352d",
"hl	c #433229",
"hm	c #413028",
"hn	c #403028",
"ho	c #3f3028",
"hp	c #3e3028",
"hq	c #3e2f28",
"hr	c #3d2f28",
"hs	c #3c2f28",
"ht	c #382f2a",
"hu	c #2f3131",
"hv	c #303335",
"hw	c #383737",
"hx	c #404040",
"hy	c #484848",
"hz	c #4c4c4c",
"hA	c #494949",
"hB	c #424343",
"hC	c #393c3e",
"hD	c #34383a",
"hE	c #323638",
"hF	c #333638",
"hG	c #333738",
"hH	c #343738",
"hI	c #353738",
"hJ	c #373838",
"hK	c #3b3b3b",
"hL	c #4b4b4b",
" a a a a b c d e e e e e e e e e f f f f g g g g h i a a a a",
" a a a j k l m n o o p p q r s t u v w x y z A B C D E a a a",
" a a F G H I J K L L M M N O P Q R S T U V W X Y Z 0 1 2 a a",
" a j 3 4 5 6 7 8 9 ! @ # $ % ^ & * ( ) _ + - = { } | [ ] : a",
" b a ; ' < > ? , . /a aaabacadaeafagahaiajakal }amanaoapaqar",
" casatauavawaxayazaAaBaCaDaEaFaGaHaIaJaKaLaMaNaOaPaQaRaSaTaU",
" eaVaWaXaYavaZa0a1a2a3a4a5a6a7a8a9a!a@a#a$a%a^a&a*a(a)a_a+a-",
" ea=a{a}a{a|a[a]a:a;a'a<a>a?a,a.a/b babbbcbdbebfbgbhbibjbkbl",
"bmbnbobpbqbrbsbtbubvbwbxbybzbAbBbCbDbEbFbGbHbIbJbKbLbMbNbObP",
"bmbQbRbSbTbUbVbWbXbYbZb0b1b2b3b4b5b6b7b8b9b!b@b#b$b%b^b&b*b(",
" fb)b_bSb+b-b=b{b}b|b[b]b: -b;b'b<b>b?b,b.b/c cacbcccdcecfb(",
" fcgchcicjckclcmcncocpcqcrcsctcucvcwcxcyczcAcBcCcDcEcFcGcHcI",
" fcgcJcKcLcMcNcOcPcQcRcScscTcUancVcWcWcXcYcZc0c1c2c3c4c5c6cI",
" fc7c8c9c!c@c#c$c%c^c&c*cvc(c)cWc_c+c-c=c{c}c|c[c]c:c;c'c<c>",
"c?c,c.c/d dadbdcdddedfdgcUbgaRdhdidjdkdldmdndodpdqdrdsdtduc>",
"c?dvdwdxdydzdAcsdBdCdDdEdFdGdHdIdJdKdLdMdNdOdPdQdRdSdTdUdVdW",
"dXdYdZd0d1d2 =a&d3d4d5cZd6d7d8d9d!d@d#d$d%d^d&d*d(d)d_d+d-dW",
"d=d{d}d|d[d]d:d;d'd<d>d?d,dkdld.d/e eaebecedeeefegeheiejekdW",
"d=elamemeneoepeqereseteuevewexeyezeAeBeCeDeEeFeGeHeIeJeKeLeM",
"d=eNeOanePeQeReSeTeUeVeWeXeYeZe0e1e2e3e4e5e6e7e8e9e!e@e#e$eM",
"e%e^a)e&e*cxe(e)e_e+e-e=e{e}e|e[e]e:e;e'e<e>e?e,e@e.e/f faeM",
"fbfcbidjfdfefffgfhfifjfkflfmfnfofpfqfrfsftfufve#e/fwfxfyfzfA",
"fbfBbMdKfCfDfEfFfGfHfIfJfKfLfMfNfOfPfQfRfSfTfUfVfWfXfYfZf0fA",
"f1f2f3d@f4e f5f6f7f8f9f!f@f#f$f%f^f&f*f(f)fVfxf_f+f-f=f{f}fA",
"f|f[e f]f:f;f'f<f>f?f,f.f/g gagbgcgdgegfggfyghf-f=gigjgkglgm",
"gngogpgqgrgsgtgugvgwgxgygzgAgBgCgDgEggfygFgGf=gigHgIgJgKgLgM",
" a ggNgOgPgQgRgSgTgUgVgWgXgYgZg0g1fxg2g3g4g5gjg6g7g8g9g!g@g#",
" ag$g%g^g&g*g(g)g_g+g-g=g{g}g|g[g]ghf-g:g;g'g7g<g9g>g?g,g.g/",
" a ah hahbhchdhehfhghhhihjhkhlhmhmhnhohphqhrhrhshthuhvhwhxhy",
" a ahzhAhBhChDhEhEhEhFhFhFhFhFhFhGhGhHhHhHhHhHhHhIhJhKg#aqhL"
};
