/* XPM */
static char * ford_scriptInfo__shelf_xpm[] = {
"30 30 826 2",
"  	c none",
" a	c #474748",
" b	c #474746",
" c	c #4e4e49",
" d	c #69695d",
" e	c #737664",
" f	c #633f36",
" g	c #a00a0c",
" h	c #9b0508",
" i	c #5e2e28",
" j	c #94372f",
" k	c #a11112",
" l	c #af0b0e",
" m	c #a11719",
" n	c #934b44",
" o	c #83796b",
" p	c #798475",
" q	c #676b64",
" r	c #4e4f50",
" s	c #46494b",
" t	c #454a4c",
" u	c #464a4d",
" v	c #464a4c",
" w	c #474a4c",
" x	c #4b4c4d",
" y	c #4d4d4d",
" z	c #4b4b4b",
" A	c #464647",
" B	c #3a4044",
" C	c #484845",
" D	c #776c56",
" E	c #786a4f",
" F	c #7b231d",
" G	c #7d1f1f",
" H	c #929779",
" I	c #98906e",
" J	c #805a44",
" K	c #8b3429",
" L	c #a60f11",
" M	c #c0171a",
" N	c #a94540",
" O	c #857468",
" P	c #838673",
" Q	c #816e5d",
" R	c #73594b",
" S	c #71584c",
" T	c #725a4f",
" U	c #725c50",
" V	c #735d52",
" W	c #6a5a52",
" X	c #4e4d4d",
" Y	c #45494b",
" Z	c #4c4c4c",
" 0	c #4a4a4a",
" 1	c #40474a",
" 2	c #6b4532",
" 3	c #b4430c",
" 4	c #be3e00",
" 5	c #c05718",
" 6	c #b27b43",
" 7	c #80382b",
" 8	c #842727",
" 9	c #c28b57",
" !	c #e2813e",
" @	c #c58046",
" #	c #9a7f59",
" $	c #874e3d",
" %	c #b82121",
" ^	c #d4262a",
" &	c #b0544c",
" *	c #c0936f",
" (	c #feab70",
" )	c #ff9559",
" _	c #ff9159",
" +	c #ff9760",
" -	c #ff9b66",
" =	c #fc9c6b",
" {	c #db9069",
" }	c #7e6457",
" |	c #44494b",
" [	c #494948",
" ]	c #3c4346",
" :	c #613f2f",
" ;	c #d04501",
" '	c #dd4800",
" <	c #db4800",
" >	c #cd4000",
" ?	c #c74b0a",
" ,	c #c07b3e",
" .	c #843f33",
" /	c #8e3e3c",
"a 	c #d5894d",
"aa	c #e86d27",
"ab	c #a76b40",
"ac	c #6c5142",
"ad	c #85785a",
"ae	c #944a3c",
"af	c #d1272b",
"ag	c #cc4043",
"ah	c #a77867",
"ai	c #e7ac7b",
"aj	c #ff9e64",
"ak	c #ff935e",
"al	c #ff9865",
"am	c #ff9d6b",
"an	c #ffa371",
"ao	c #fca273",
"ap	c #7a6357",
"aq	c #414243",
"ar	c #3a3a3a",
"as	c #a83f0a",
"at	c #d24400",
"au	c #d24600",
"av	c #e55509",
"aw	c #d4611b",
"ax	c #d2641f",
"ay	c #c07d41",
"az	c #843d38",
"aA	c #9d5a4f",
"aB	c #df8a49",
"aC	c #ce7f44",
"aD	c #743932",
"aE	c #8b3535",
"aF	c #917c5f",
"aG	c #887057",
"aH	c #b63536",
"aI	c #e44449",
"aJ	c #a76b64",
"aK	c #dbaa7f",
"aL	c #ffa36b",
"aM	c #ff9662",
"aN	c #ff9b69",
"aO	c #ff9e6e",
"aP	c #ffa674",
"aQ	c #dc926d",
"aR	c #383c3d",
"aS	c #4a362c",
"aT	c #bf4000",
"aU	c #c84300",
"aV	c #ce4400",
"aW	c #d84e06",
"aX	c #d07836",
"aY	c #8e5a48",
"aZ	c #ae764e",
"a0	c #de813a",
"a1	c #ad7745",
"a2	c #8d3f45",
"a3	c #ad785b",
"a4	c #dc8242",
"a5	c #b97c4b",
"a6	c #966650",
"a7	c #8e393c",
"a8	c #99725e",
"a9	c #918968",
"a!	c #a34140",
"a@	c #ed5155",
"a#	c #af6f6a",
"a$	c #daab82",
"a%	c #ffa36e",
"a^	c #ff9966",
"a&	c #ff9d6c",
"a*	c #ffa171",
"a(	c #fda273",
"a)	c #695a54",
"a_	c #33383a",
"a+	c #4d3427",
"a-	c #be3f00",
"a=	c #c34100",
"a{	c #c84200",
"a}	c #c96e2c",
"a|	c #895f49",
"a[	c #cf555c",
"a]	c #bf656a",
"a:	c #a87b58",
"a;	c #de9a53",
"a'	c #9a674c",
"a<	c #9e585b",
"a>	c #cc8953",
"a?	c #dc793b",
"a,	c #aa8a61",
"a.	c #978364",
"a/	c #944648",
"b 	c #9b705f",
"ba	c #999471",
"bb	c #9f4b49",
"bc	c #ef6064",
"bd	c #ae7a74",
"be	c #e4af83",
"bf	c #ffa06c",
"bg	c #ff9f6f",
"bh	c #ffa273",
"bi	c #725e55",
"bj	c #313638",
"bk	c #4b3327",
"bl	c #ba3d00",
"bm	c #bd3d00",
"bn	c #c45615",
"bo	c #936c46",
"bp	c #b05258",
"bq	c #9a5e54",
"br	c #956255",
"bs	c #aa585f",
"bt	c #a87b5c",
"bu	c #c4a66a",
"bv	c #9d5a59",
"bw	c #b37b62",
"bx	c #e19957",
"by	c #824e45",
"bz	c #9b6b5d",
"bA	c #a3916d",
"bB	c #944a4d",
"bC	c #9f7966",
"bD	c #9d9573",
"bE	c #a84d4e",
"bF	c #eb6b6e",
"bG	c #ad877a",
"bH	c #f6b281",
"bI	c #ff9c69",
"bJ	c #ff9e6d",
"bK	c #ffa170",
"bL	c #715e54",
"bM	c #4a3327",
"bN	c #b53b00",
"bO	c #b63d02",
"bP	c #ac6c35",
"bQ	c #945b54",
"bR	c #b45f61",
"bS	c #aa804f",
"bT	c #c18345",
"bU	c #8d614a",
"bV	c #9a5058",
"bW	c #9f7c5f",
"bX	c #9a755c",
"bY	c #a86b69",
"bZ	c #d1a368",
"b0	c #a06c55",
"b1	c #b05c5f",
"b2	c #c4a677",
"b3	c #a27d5e",
"b4	c #944a4f",
"b5	c #a99074",
"b6	c #96866a",
"b7	c #c05558",
"b8	c #d67377",
"b9	c #bf9d82",
"b!	c #ffac77",
"b@	c #ff9b68",
"b#	c #ff9f6e",
"b$	c #4a3227",
"b%	c #ae3700",
"b^	c #b14d12",
"b&	c #8c6946",
"b*	c #b45e64",
"b(	c #a5775e",
"b)	c #cf8240",
"b_	c #b96024",
"b+	c #c87a3b",
"b-	c #8f674b",
"b=	c #935257",
"b{	c #724e45",
"b}	c #9b6768",
"b|	c #c39d6f",
"b[	c #a47c5c",
"b]	c #b66369",
"b:	c #b68761",
"b;	c #d5935b",
"b'	c #8f6655",
"b<	c #9b5659",
"b>	c #b2a680",
"b?	c #8d695b",
"b,	c #e1686c",
"b.	c #b67f7c",
"b/	c #e8af83",
"c 	c #ff9e6a",
"ca	c #715d54",
"cb	c #493227",
"cc	c #a53400",
"cd	c #a55e28",
"ce	c #8f6354",
"cf	c #b2676a",
"cg	c #bf9058",
"ch	c #ae784e",
"ci	c #92685b",
"cj	c #be6f36",
"ck	c #c46e2e",
"cl	c #8b6749",
"cm	c #8e5256",
"cn	c #ba7075",
"co	c #b89774",
"cp	c #a98865",
"cq	c #b66e74",
"cr	c #c18b63",
"cs	c #da753a",
"ct	c #b78557",
"cu	c #925b59",
"cv	c #a4746a",
"cw	c #ada67f",
"cx	c #a15958",
"cy	c #dc797d",
"cz	c #be9b82",
"cA	c #ffab75",
"cB	c #ff9a66",
"cC	c #715d53",
"cD	c #323638",
"cE	c #483126",
"cF	c #9d3602",
"cG	c #966638",
"cH	c #a06463",
"cI	c #a87366",
"cJ	c #c59353",
"cK	c #916455",
"cL	c #a46a70",
"cM	c #b67848",
"cN	c #cf530e",
"cO	c #be672a",
"cP	c #8c6b4c",
"cQ	c #953e44",
"cR	c #a77e5f",
"cS	c #a17a59",
"cT	c #a0373c",
"cU	c #c88b5e",
"cV	c #ea7131",
"cW	c #cf7640",
"cX	c #9a785a",
"cY	c #9a555a",
"cZ	c #b3a180",
"c0	c #957d67",
"c1	c #d46f74",
"c2	c #b78983",
"c3	c #f4af7e",
"c4	c #ff9a65",
"c5	c #715c52",
"c6	c #452f25",
"c7	c #993c09",
"c8	c #8c6842",
"c9	c #ab6b6f",
"c!	c #a97d5f",
"c@	c #ab713c",
"c#	c #745949",
"c$	c #baa473",
"c%	c #b98a57",
"c^	c #c4662c",
"c&	c #c94b08",
"c*	c #c9702f",
"c(	c #70391f",
"c)	c #846446",
"c_	c #904f37",
"c+	c #890206",
"c-	c #d48e58",
"c=	c #fd752e",
"c{	c #d36229",
"c}	c #c18959",
"c|	c #742621",
"c[	c #86342c",
"c]	c #b1ac84",
"c:	c #cc8486",
"c;	c #d7aa84",
"c'	c #ff9f68",
"c<	c #715b51",
"c>	c #422d24",
"c?	c #944110",
"c,	c #89694a",
"c.	c #af767b",
"c/	c #b38a60",
"d 	c #c3884b",
"da	c #a08557",
"db	c #853f2b",
"dc	c #861016",
"dd	c #a36746",
"de	c #e66216",
"df	c #d66722",
"dg	c #b88f58",
"dh	c #7e1812",
"di	c #922621",
"dj	c #ec9452",
"dk	c #ff7026",
"dl	c #e66526",
"dm	c #d27943",
"dn	c #906245",
"do	c #670000",
"dp	c #b0a07a",
"dq	c #814635",
"dr	c #b22022",
"ds	c #b98d74",
"dt	c #ffa970",
"du	c #715a4f",
"dv	c #402c23",
"dw	c #914616",
"dx	c #87644a",
"dy	c #8f383b",
"dz	c #927d59",
"dA	c #894c34",
"dB	c #620000",
"dC	c #5d0906",
"dD	c #85090d",
"dE	c #a56546",
"dF	c #ee6b1c",
"dG	c #e34500",
"dH	c #e46319",
"dI	c #96673e",
"dJ	c #860000",
"dK	c #99503b",
"dL	c #fe8c40",
"dM	c #ff691e",
"dN	c #f66c26",
"dO	c #d5652b",
"dP	c #ba885a",
"dQ	c #650a08",
"dR	c #945b46",
"dS	c #9e8c6a",
"dT	c #8d0000",
"dU	c #a15b4c",
"dV	c #ffb079",
"dW	c #71594e",
"dX	c #333638",
"dY	c #3f2b23",
"dZ	c #8e491b",
"d0	c #754c33",
"d1	c #830000",
"d2	c #6d0003",
"d3	c #690808",
"d4	c #88593c",
"d5	c #95895e",
"d6	c #720406",
"d7	c #a56542",
"d8	c #ec6617",
"d9	c #e44b01",
"d!	c #ca7e3d",
"d@	c #701f16",
"d#	c #970307",
"d$	c #b8794a",
"d%	c #ff7624",
"d^	c #ff661a",
"d&	c #ff6b21",
"d*	c #e16123",
"d(	c #cf834d",
"d)	c #7b3c2c",
"d_	c #721a15",
"d+	c #b4ae85",
"d-	c #7e0605",
"d=	c #983c35",
"d{	c #f7af7a",
"d}	c #735a4e",
"d|	c #3e2b23",
"d[	c #884316",
"d]	c #6a472e",
"d:	c #5f0807",
"d;	c #7b412b",
"d'	c #9e6d3d",
"d<	c #815136",
"d>	c #7f0004",
"d?	c #af7244",
"d,	c #e2560b",
"d.	c #dc6922",
"d/	c #7e5435",
"e 	c #970000",
"ea	c #90352b",
"eb	c #f3ac63",
"ec	c #f18a40",
"ed	c #ed8b47",
"ee	c #ff8c42",
"ef	c #f6702b",
"eg	c #d67238",
"eh	c #956647",
"ei	c #5e0000",
"ej	c #b6a87f",
"ek	c #7f291f",
"el	c #89211f",
"em	c #e9a977",
"en	c #765d50",
"eo	c #3f2d25",
"ep	c #7d3107",
"eq	c #794622",
"er	c #855a33",
"es	c #af642c",
"et	c #ab460e",
"eu	c #9c6d3c",
"ev	c #710e0a",
"ew	c #831e1b",
"ex	c #c77a3d",
"ey	c #d6520b",
"ez	c #ab743f",
"eA	c #6f0c0a",
"eB	c #9f0404",
"eC	c #846c4d",
"eD	c #a26a48",
"eE	c #84231b",
"eF	c #87241f",
"eG	c #995741",
"eH	c #d79159",
"eI	c #e68040",
"eJ	c #aa754b",
"eK	c #4b0000",
"eL	c #a98d6a",
"eM	c #8a4f3c",
"eN	c #791011",
"eO	c #dfa273",
"eP	c #785f51",
"eQ	c #412f26",
"eR	c #802a00",
"eS	c #8a3306",
"eT	c #993a07",
"eU	c #982f00",
"eV	c #a5531e",
"eW	c #754c32",
"eX	c #7b0000",
"eY	c #905c3e",
"eZ	c #d36520",
"e0	c #c66726",
"e1	c #6d402a",
"e2	c #9d0000",
"e3	c #710706",
"e4	c #650c0b",
"e5	c #730000",
"e6	c #760b0a",
"e7	c #76120f",
"e8	c #730001",
"e9	c #75201e",
"e!	c #b98559",
"e@	c #e4995d",
"e#	c #744630",
"e$	c #81664c",
"e%	c #95674d",
"e^	c #6a090b",
"e&	c #db9d6e",
"e*	c #796051",
"e(	c #413027",
"e)	c #852c00",
"e_	c #8a2d00",
"e+	c #902f00",
"e-	c #912f00",
"e=	c #996434",
"e{	c #6b1d15",
"e}	c #7c1816",
"e|	c #bb7e45",
"e[	c #c14a0a",
"e]	c #a26d3b",
"e:	c #660d0b",
"e;	c #ba0000",
"e'	c #8a0000",
"e<	c #702b1e",
"e>	c #9c6a3f",
"e?	c #bb7b41",
"e,	c #bd7e45",
"e.	c #9f7448",
"e/	c #671d14",
"f 	c #671615",
"fa	c #c58f5f",
"fb	c #e08b4f",
"fc	c #b67c4e",
"fd	c #946649",
"fe	c #600a0c",
"ff	c #dd9b6a",
"fg	c #795f50",
"fh	c #402f27",
"fi	c #812a00",
"fj	c #862d00",
"fk	c #8c2e00",
"fl	c #8b3203",
"fm	c #896339",
"fn	c #6b0405",
"fo	c #884032",
"fp	c #c57334",
"fq	c #b54d11",
"fr	c #7e5937",
"fs	c #850000",
"ft	c #980102",
"fu	c #7c4f35",
"fv	c #d78540",
"fw	c #ec6316",
"fx	c #ea5003",
"fy	c #de4c02",
"fz	c #d5611e",
"fA	c #bd864e",
"fB	c #5e1711",
"fC	c #732d26",
"fD	c #e6985b",
"fE	c #e88143",
"fF	c #8f5e40",
"fG	c #5a0e0f",
"fH	c #e29b66",
"fI	c #785c4d",
"fJ	c #3f2f27",
"fK	c #7e2900",
"fL	c #832c00",
"fM	c #872c00",
"fN	c #853206",
"fO	c #805f39",
"fP	c #6d0001",
"fQ	c #8c4334",
"fR	c #bc6e32",
"fS	c #ac5921",
"fT	c #6b3f29",
"fU	c #900000",
"fV	c #793b2d",
"fW	c #d98742",
"fX	c #e64f04",
"fY	c #ea4b00",
"fZ	c #f35000",
"f0	c #f65100",
"f1	c #e14900",
"f2	c #d3601e",
"f3	c #a47448",
"f4	c #570001",
"f5	c #995f45",
"f6	c #ed9d5c",
"f7	c #8d593b",
"f8	c #5c1816",
"f9	c #ee9d62",
"f!	c #76594a",
"f@	c #464b4d",
"f#	c #7a2800",
"f$	c #7f2a00",
"f%	c #822b00",
"f^	c #7d2b03",
"f&	c #836039",
"f*	c #6a0a08",
"f(	c #872c27",
"f)	c #b0743e",
"f_	c #a5612c",
"f+	c #6a2e1f",
"f-	c #7c0104",
"f=	c #a7774a",
"f{	c #e25e14",
"f}	c #dc4600",
"f|	c #e54c00",
"f[	c #ed4f00",
"f]	c #f55200",
"f:	c #f65200",
"f;	c #d74701",
"f'	c #d17738",
"f<	c #733d29",
"f>	c #640809",
"f?	c #c5a372",
"f,	c #8e5d41",
"f.	c #68271f",
"f/	c #fb9c5c",
"g 	c #735546",
"ga	c #464b4e",
"gb	c #3e2e27",
"gc	c #762700",
"gd	c #7b2900",
"ge	c #762500",
"gf	c #895a30",
"gg	c #632a1d",
"gh	c #7b0b0d",
"gi	c #a2794e",
"gj	c #ab733d",
"gk	c #672317",
"gl	c #751615",
"gm	c #c38045",
"gn	c #d34902",
"go	c #d64600",
"gp	c #de4a00",
"gq	c #e64d00",
"gr	c #ee4e00",
"gs	c #ed4c00",
"gt	c #d2520e",
"gu	c #a97646",
"gv	c #5c0102",
"gw	c #7c4333",
"gx	c #77503d",
"gy	c #814534",
"gz	c #ff964f",
"gA	c #725344",
"gB	c #343638",
"gC	c #3a2f29",
"gD	c #712601",
"gE	c #782800",
"gF	c #7d2a00",
"gG	c #782600",
"gH	c #7e3e15",
"gI	c #755a3a",
"gJ	c #680000",
"gK	c #7f4937",
"gL	c #bea66c",
"gM	c #6b251a",
"gN	c #752520",
"gO	c #ca7f41",
"gP	c #cb4300",
"gQ	c #d14500",
"gR	c #d84800",
"gS	c #e24d01",
"gT	c #f15808",
"gU	c #fa5d0a",
"gV	c #fc5c08",
"gW	c #e14e03",
"gX	c #cf7434",
"gY	c #6c3927",
"gZ	c #5f0000",
"g0	c #481415",
"g1	c #a66b4d",
"g2	c #ff8940",
"g3	c #685045",
"g4	c #474c4e",
"g5	c #373838",
"g6	c #303131",
"g7	c #61270a",
"g8	c #772600",
"g9	c #7a2900",
"g!	c #7d2900",
"g@	c #8b6136",
"g#	c #5d2a1d",
"g$	c #700001",
"g%	c #836d4f",
"g^	c #703928",
"g&	c #782221",
"g*	c #c1864d",
"g(	c #ca4804",
"g)	c #ca4100",
"g_	c #d44700",
"g+	c #d45914",
"g-	c #b4622c",
"g=	c #bb743e",
"g{	c #c47d44",
"g}	c #c9753a",
"g|	c #cf6c2c",
"g[	c #9d7143",
"g]	c #5e0101",
"g:	c #77090d",
"g;	c #c58252",
"g'	c #e17438",
"g<	c #4c4b4b",
"g>	c #4c4d4d",
"g?	c #3b3b3b",
"g,	c #303335",
"g.	c #3d2d25",
"g/	c #6f2602",
"h 	c #7b2700",
"ha	c #7e2a00",
"hb	c #792600",
"hc	c #7a350e",
"hd	c #846841",
"he	c #590f0b",
"hf	c #6e0000",
"hg	c #4c0b08",
"hh	c #8f1519",
"hi	c #946e52",
"hj	c #d77833",
"hk	c #cb4502",
"hl	c #c84000",
"hm	c #bf5d20",
"hn	c #4f2c1e",
"ho	c #5c0103",
"hp	c #841619",
"hq	c #672c2d",
"hr	c #b36833",
"hs	c #d07a38",
"ht	c #672f1f",
"hu	c #680808",
"hv	c #d58b50",
"hw	c #7c5946",
"hx	c #404040",
"hy	c #373737",
"hz	c #2f3335",
"hA	c #64290d",
"hB	c #782902",
"hC	c #752500",
"hD	c #83451c",
"hE	c #7b623f",
"hF	c #550a07",
"hG	c #a50607",
"hH	c #872627",
"hI	c #947252",
"hJ	c #c78448",
"hK	c #ca7435",
"hL	c #c58043",
"hM	c #ac9b68",
"hN	c #5f100b",
"hO	c #8e0000",
"hP	c #8b5339",
"hQ	c #e8752b",
"hR	c #cf520e",
"hS	c #a26739",
"hT	c #49271e",
"hU	c #877762",
"hV	c #484c4e",
"hW	c #474747",
"hX	c #343739",
"hY	c #343636",
"hZ	c #3e342f",
"h0	c #43342c",
"h1	c #42332c",
"h2	c #392b25",
"h3	c #544c3e",
"h4	c #636551",
"h5	c #4f1a15",
"h6	c #750000",
"h7	c #9f0102",
"h8	c #8e1013",
"h9	c #7b2e29",
"h!	c #7a3e31",
"h@	c #723226",
"h#	c #6c1912",
"h$	c #5b0000",
"h%	c #5d362c",
"h^	c #7b755e",
"h&	c #5d4232",
"h*	c #4f362a",
"h(	c #605345",
"h)	c #5d6057",
"h_	c #575958",
"h+	c #484848",
"h-	c #444444",
"h=	c #424241",
"h{	c #404041",
"h}	c #3e4042",
"h|	c #3d4142",
"h[	c #3e4142",
"h]	c #3b3d3f",
"h:	c #343537",
"h;	c #494b45",
"h'	c #686e5c",
"h<	c #57483b",
"h>	c #4c0c09",
"h?	c #710000",
"h,	c #870000",
"h.	c #790000",
"h/	c #5a0606",
"i 	c #644f42",
"ia	c #707768",
"ib	c #484a49",
"ic	c #3a3f42",
"id	c #3e4245",
"ie	c #434547",
"if	c #4e4e4e",
" a b c d e f g h i j k l m n o p q r s t u v v v w x y y y y",
" y z A B C D E F G H I J K L M N O P Q R S T U V W X Y y y y",
" Z 0 1 2 3 4 5 6 7 8 9 ! @ # $ % ^ & * ( ) _ + - = { } | y y",
" [ ] : ; ' < > ? , . /a aaabacadaeafagahaiajakalamanaoap Y y",
"aqarasatau <avawaxayazaAaBaCaDaEaFaGaHaIaJaKaLaMaNaOaPaQ y x",
"aRaSaTaUaVaWaXaYaZa0a1a2a3a4a5a6a7a8a9a!a@a#a$a%a^a&a*a(a) w",
"a_a+a-a=a{a}a|a[a]a:a;a'a<a>a?a,a.a/b babbbcbdbebfaNbgbhbi v",
"bjbkblbmbnbobpbqbrbsbtbubvbwbxbybzbAbBbCbDbEbFbGbHbIbJbKbL v",
"bjbMbNbObPbQbRbSbTbUbVbWbXbYbZb0b1b2b3b4b5b6b7b8b9b!b@b#bL v",
"bjb$b%b^b&b*b(b)b_b+b-b=b{b}b|b[b]b:b;b'b<b>b?b,b.b/c amca v",
"bjcbcccdcecfcgchcicjckclcmcncocpcqcrcsctcucvcwcxcyczcAcBcC v",
"cDcEcFcGcHcIcJcKcLcMcNcOcPcQcRcScTcUcVcWcXcYcZc0c1c2c3c4c5 v",
"cDc6c7c8c9c!c@c#c$c%c^c&c*c(c)c_c+c-c=c{c}c|c[c]cxc:c;c'c< v",
"cDc>c?c,c.c/d dadbdcddde ;dfdgdhdidjdkdldmdndodpdqdrdsdtdu v",
"cDdvdwdxdydzdAdBdCdDdEdFdGdHdIdJdKdLdMdNdOdPdQdRdSdTdUdVdW v",
"dXdYdZd0d1d2d3d4d5d6d7d8d9d!d@d#d$d%d^d&d*d(d)d_d+d-d=d{d} v",
"dXd|d[d]d:d;d'd d<d>d?d,d.d/e eaebecedeeefegeheiejekelemen v",
"dXeoepeqereseteuevewexeyezeAeBeCeDeEeFeGeHeIeJeKeLeMeNeOeP v",
"dXeQeReSeTeUeVeWeXeYeZe0e1e2e3e4e5e6e7e8e9e!e@e#e$e%e^e&e* v",
"dXe(e)e_e+e-e=e{e}e|e[e]e:e;e'e<e>e?e,e.e/f fafbfcfdfefffg u",
"dXfhfifjfkflfmfnfofpfqfrfsftfufvfwfxfyfzfAfBfCfDfEfFfGfHfI u",
"dXfJfKfLfMfNfOfPfQfRfSfTfUfVfWfXfYfZf0f1f2f3f4f5f6f7f8f9f!f@",
"dXfJf#f$f%f^f&f*f(f)f_f+f-f=f{f}f|f[f]f:f;f'f<f>f?f,f.f/g ga",
"dXgbgcgdeRgegfggghgigjgkglgmgngogpgqgrf0gsgtgugvgwgxgygzgAga",
"gBgCgDgEgFgGgHgIgJgKgLgMgNgOgPgQgRgSgTgUgVgWgXgYgZg0g1g2g3g4",
"g5g6g7g8g9g!gDg@g#g$g%g^g&g*g(g)g_g+g-g=g{g}g|g[g]g:g;g'g<g>",
"g?g,g.g/h hahbhchdhehfhghhhihjhkhlhmhnhohphqhrhshthuhvhwga y",
"hxhyhzgbhAhBf$hChDhEhFd1hGhHhIhJhKhLhMhNhOhPhQhRhShThUhV y y",
"hWhxarhXhYhZh0h1h2h3h4h5h6h7h8h9h!h@h#h$h%h^h&h*h(h)h_ Z y y",
" zh+h-h=h{h}h|h[h]h:h;h'h<h>h?h,dJh.h/i iaibicidieif y y y y"
};
