/* XPM */
static char * ford_riggingAid__createSphere_xpm[] = {
"30 30 827 2",
"  	c none",
" a	c #4d4d4d",
" b	c #4b4c4d",
" c	c #474a4c",
" d	c #46494b",
" e	c #464a4c",
" f	c #494c4e",
" g	c #4b4e50",
" h	c #4c4f50",
" i	c #484c4e",
" j	c #474b4d",
" k	c #464b4d",
" l	c #464b4e",
" m	c #474c4e",
" n	c #4b4d4d",
" o	c #45494b",
" p	c #4e4e4d",
" q	c #6b5c54",
" r	c #736055",
" s	c #735f55",
" t	c #735f54",
" u	c #735e54",
" v	c #745f54",
" w	c #776157",
" x	c #7f6a5f",
" y	c #917b6a",
" z	c #96806e",
" A	c #8f7a69",
" B	c #856f62",
" C	c #816a5c",
" D	c #7d6558",
" E	c #796054",
" F	c #765c4f",
" G	c #74594b",
" H	c #735648",
" I	c #735546",
" J	c #6b5346",
" K	c #4e4d4d",
" L	c #454c4f",
" M	c #44494b",
" N	c #7e6458",
" O	c #db936e",
" P	c #fca374",
" Q	c #ffa373",
" R	c #ffa271",
" S	c #ffa06e",
" T	c #ff9f6c",
" U	c #ff9f6d",
" V	c #ffa977",
" W	c #ffb287",
" X	c #996c88",
" Y	c #7d5887",
" Z	c #bf858a",
" 0	c #f2a485",
" 1	c #f39c7a",
" 2	c #ff9d6f",
" 3	c #ff9f62",
" 4	c #ff9954",
" 5	c #ff8a47",
" 6	c #ff7d39",
" 7	c #ff742d",
" 8	c #fc6e25",
" 9	c #db6426",
" !	c #7c523e",
" @	c #434b4f",
" #	c #7a6357",
" $	c #fca373",
" %	c #ffa574",
" ^	c #ffa171",
" &	c #ff9f6f",
" *	c #ff9e6d",
" (	c #ff9e6c",
" )	c #ffa070",
" _	c #ffae7b",
" +	c #ffba8e",
" -	c #594187",
" =	c #000083",
" {	c #000087",
" }	c #01028a",
" |	c #14108d",
" [	c #3b2b8f",
" ]	c #3d2a8f",
" :	c #51348c",
" ;	c #925a7f",
" '	c #ea8963",
" <	c #ff9149",
" >	c #ff7b36",
" ?	c #ff6e26",
" ,	c #ff6919",
" .	c #fc6314",
" /	c #774f3b",
"a 	c #434b4e",
"aa	c #dc8f69",
"ab	c #ffa471",
"ac	c #ff9e6e",
"ad	c #ff9d6c",
"ae	c #ff9c6b",
"af	c #ffa372",
"ag	c #ffb581",
"ah	c #da9e8d",
"ai	c #5e468b",
"aj	c #0c0a88",
"ak	c #533e91",
"al	c #9f7392",
"am	c #ce9b95",
"an	c #3b2c98",
"ao	c #684d9a",
"ap	c #d89c8d",
"aq	c #a06a85",
"ar	c #57378d",
"as	c #2a1b98",
"at	c #88517d",
"au	c #ff8b4b",
"av	c #ff782f",
"aw	c #ff671c",
"ax	c #ff610c",
"ay	c #da5716",
"az	c #474747",
"aA	c #4a4b4c",
"aB	c #695952",
"aC	c #fd9c6a",
"aD	c #ff9d6a",
"aE	c #ff9b69",
"aF	c #ff9b68",
"aG	c #ff9c6a",
"aH	c #ffa674",
"aI	c #ffb182",
"aJ	c #835e88",
"aK	c #201987",
"aL	c #04058c",
"aM	c #c79096",
"aN	c #ffb783",
"aO	c #ffa970",
"aP	c #ffac70",
"aQ	c #df9685",
"aR	c #1a13a3",
"aS	c #d08d8a",
"aT	c #ffad68",
"aU	c #ff9b5b",
"aV	c #d07a69",
"aW	c #3b2495",
"aX	c #522f8c",
"aY	c #fb8444",
"aZ	c #ff6f23",
"a0	c #ff5f0d",
"a1	c #fd5704",
"a2	c #5f4437",
"a3	c #42484a",
"a4	c #715c51",
"a5	c #ff9a66",
"a6	c #ff9865",
"a7	c #ff9864",
"a8	c #ff9a67",
"a9	c #ffa672",
"a!	c #f4a881",
"a@	c #4c3585",
"a#	c #46358c",
"a$	c #91709c",
"a%	c #473497",
"a^	c #ffaf7e",
"a&	c #ff955d",
"a*	c #ff874b",
"a(	c #ff884e",
"a)	c #ffa360",
"a_	c #784e93",
"a+	c #3020a1",
"a-	c #fa9863",
"a=	c #ff8444",
"a{	c #ff863d",
"a}	c #fa8c50",
"a|	c #482a91",
"a[	c #643684",
"a]	c #ff7f31",
"a:	c #ff6212",
"a;	c #ff5601",
"a'	c #63402f",
"a<	c #3d4347",
"a>	c #705b50",
"a?	c #ff9660",
"a,	c #ff9560",
"a.	c #ff9662",
"a/	c #ffa26d",
"b 	c #f5a77e",
"ba	c #3d2a86",
"bb	c #5c4189",
"bc	c #ffc593",
"bd	c #7f5d9b",
"be	c #785090",
"bf	c #ffa566",
"bg	c #ff864a",
"bh	c #ff7e3d",
"bi	c #ff7d3c",
"bj	c #ff8e4b",
"bk	c #da8574",
"bl	c #0000b1",
"bm	c #b56b79",
"bn	c #ff873d",
"bo	c #ff782d",
"bp	c #f3814a",
"bq	c #29189c",
"br	c #ab5663",
"bs	c #ff711d",
"bt	c #f85707",
"bu	c #5d3d2c",
"bv	c #3a4043",
"bw	c #464a4d",
"bx	c #705a4e",
"by	c #ff925a",
"bz	c #ff925c",
"bA	c #ff9a65",
"bB	c #ffab79",
"bC	c #4e3585",
"bD	c #4c3387",
"bE	c #ffb681",
"bF	c #4f379c",
"bG	c #a66d8b",
"bH	c #ffa262",
"bI	c #ff894d",
"bJ	c #ff8343",
"bK	c #ff803f",
"bL	c #ff8547",
"bM	c #ff9e62",
"bN	c #3f2aa5",
"bO	c #593697",
"bP	c #ff8c45",
"bQ	c #ff691e",
"bR	c #ff6315",
"bS	c #ff7a26",
"bT	c #a85767",
"bU	c #301b98",
"bV	c #f67633",
"bW	c #f45d10",
"bX	c #5c3c2c",
"bY	c #393f42",
"bZ	c #70594d",
"b0	c #ff8e55",
"b1	c #ffaa70",
"b2	c #855982",
"b3	c #3a2a8a",
"b4	c #ffb386",
"b5	c #ffb57a",
"b6	c #ffb682",
"b7	c #422fa5",
"b8	c #cf8e8f",
"b9	c #ffa872",
"b!	c #fe9561",
"b@	c #ff9054",
"b#	c #ff9453",
"b$	c #ffae65",
"b%	c #a36d94",
"b^	c #150fae",
"b&	c #f98e5d",
"b*	c #ff7529",
"b(	c #ff6010",
"b)	c #fe681a",
"b_	c #f6793d",
"b+	c #2e1a9b",
"b-	c #b85c57",
"b=	c #f66618",
"b{	c #5b3d2e",
"b}	c #383e41",
"b|	c #70574b",
"b[	c #ff8c52",
"b]	c #ff9d63",
"b:	c #d18b7d",
"b;	c #261d88",
"b'	c #e3a695",
"b<	c #e0a08b",
"b>	c #ad758e",
"b?	c #825b9e",
"b,	c #1f19b2",
"b.	c #5241b0",
"b/	c #5441af",
"c 	c #503dad",
"ca	c #513cac",
"cb	c #563ea8",
"cc	c #6142a1",
"cd	c #6d4da0",
"ce	c #6246a7",
"cf	c #0808b4",
"cg	c #bf7780",
"ch	c #fe8948",
"ci	c #ff7825",
"cj	c #ff7225",
"ck	c #ff8338",
"cl	c #653986",
"cm	c #753d78",
"cn	c #f46d20",
"co	c #5c3f31",
"cp	c #383e40",
"cq	c #71584c",
"cr	c #ff8e54",
"cs	c #5e4186",
"ct	c #312693",
"cu	c #523e9d",
"cv	c #30219d",
"cw	c #3c29a1",
"cx	c #563da6",
"cy	c #322ab5",
"cz	c #aa779a",
"cA	c #c37f83",
"cB	c #c37578",
"cC	c #be7077",
"cD	c #b1687a",
"cE	c #a7617c",
"cF	c #925786",
"cG	c #724d96",
"cH	c #281cac",
"cI	c #1810af",
"cJ	c #3c249f",
"cK	c #763e7d",
"cL	c #c16458",
"cM	c #ff944e",
"cN	c #975d7e",
"cO	c #502c8b",
"cP	c #ed7029",
"cQ	c #5d4235",
"cR	c #393e40",
"cS	c #755d51",
"cT	c #ff9e5f",
"cU	c #d88f80",
"cV	c #0e0b8e",
"cW	c #3e2b94",
"cX	c #a56e84",
"cY	c #ed916c",
"cZ	c #ffa269",
"c0	c #faa47c",
"c1	c #4e3caf",
"c2	c #ef9674",
"c3	c #ff924c",
"c4	c #ff8138",
"c5	c #ff7f33",
"c6	c #ff7e30",
"c7	c #ff7c2c",
"c8	c #ff8031",
"c9	c #ff9a46",
"c!	c #8c5486",
"c@	c #5c3b98",
"c#	c #c67973",
"c$	c #6c3d85",
"c%	c #2f1b9b",
"c^	c #492f98",
"c&	c #6e4995",
"c*	c #492d98",
"c(	c #e67638",
"c)	c #5f4639",
"c_	c #3a3e41",
"c+	c #494d4f",
"c-	c #826a5a",
"c=	c #e69172",
"c{	c #1e148c",
"c}	c #493391",
"c|	c #fdaa78",
"c[	c #ff9854",
"c]	c #ff8442",
"c:	c #ff8847",
"c;	c #ee8a63",
"c'	c #4835aa",
"c<	c #e68160",
"c>	c #ff7a31",
"c?	c #ff671b",
"c,	c #ff6011",
"c.	c #ff5d0c",
"c/	c #ff5e0e",
"d 	c #ff7424",
"da	c #b05d62",
"db	c #442992",
"dc	c #ff8d48",
"dd	c #fa7d33",
"de	c #e17341",
"df	c #8a537c",
"dg	c #1d15ae",
"dh	c #3123a9",
"di	c #de7e4e",
"dj	c #674f42",
"dk	c #3d4143",
"dl	c #4b4f51",
"dm	c #927862",
"dn	c #835280",
"do	c #000094",
"dp	c #a76f87",
"dq	c #ff9a56",
"dr	c #ff7733",
"ds	c #ff6f27",
"dt	c #ff7831",
"du	c #f78350",
"dv	c #442fa7",
"dw	c #d8755d",
"dx	c #ff7528",
"dy	c #ff5f0f",
"dz	c #ff5a07",
"dA	c #ff5703",
"dB	c #fd5400",
"dC	c #f95401",
"dD	c #fb6717",
"dE	c #cb644b",
"dF	c #361f8e",
"dG	c #e3713c",
"dH	c #e35f1d",
"dI	c #df5f1d",
"dJ	c #f58942",
"dK	c #8c5f8c",
"dL	c #0008c1",
"dM	c #865583",
"dN	c #78614d",
"dO	c #434748",
"dP	c #4c5052",
"dQ	c #947963",
"dR	c #784b82",
"dS	c #000099",
"dT	c #da8f80",
"dU	c #ff904c",
"dV	c #ff7029",
"dW	c #ff691d",
"dX	c #ff7027",
"dY	c #ff8341",
"dZ	c #4f329f",
"d0	c #c46863",
"d1	c #ff7322",
"d2	c #ff5b08",
"d3	c #fe5500",
"d4	c #fb5400",
"d5	c #f65200",
"d6	c #f05101",
"d7	c #f16015",
"d8	c #d76a41",
"d9	c #301c8d",
"d!	c #ce6640",
"d@	c #dc5915",
"d#	c #d25211",
"d$	c #df7437",
"d%	c #573b9a",
"d^	c #5c48a9",
"d&	c #4f3dab",
"d*	c #695e67",
"d(	c #4d4f4d",
"d)	c #4a4f51",
"d_	c #8a6f5c",
"d+	c #c77874",
"d-	c #05059c",
"d=	c #9e6c90",
"d{	c #ff9f61",
"d}	c #ff8238",
"d|	c #ff6d24",
"d[	c #ff6d23",
"d]	c #ff8135",
"d:	c #5b3493",
"d;	c #a1546f",
"d'	c #ff731f",
"d<	c #fb5805",
"d>	c #f75100",
"d?	c #f25000",
"d,	c #ed4e00",
"d.	c #e74d00",
"d/	c #e75b13",
"e 	c #da6c3a",
"ea	c #2e1b8c",
"eb	c #b95e49",
"ec	c #d85c1a",
"ed	c #d1591a",
"ee	c #c46c4b",
"ef	c #3c2fad",
"eg	c #ca9386",
"eh	c #5445b3",
"ei	c #55537a",
"ej	c #52534d",
"ek	c #484d4f",
"el	c #7e6253",
"em	c #302099",
"en	c #0000ab",
"eo	c #57389b",
"ep	c #d27a6a",
"eq	c #ff893f",
"er	c #ff8132",
"es	c #ff8c3c",
"et	c #774286",
"eu	c #753e81",
"ev	c #ff7927",
"ew	c #f3590c",
"ex	c #ed4f01",
"ey	c #e94e00",
"ez	c #e34c00",
"eA	c #de4a00",
"eB	c #de5812",
"eC	c #db6d38",
"eD	c #321d8b",
"eE	c #a65855",
"eF	c #d6672a",
"eG	c #d87133",
"eH	c #815383",
"eI	c #644fa8",
"eJ	c #9a779d",
"eK	c #5744a9",
"eL	c #6a5c5b",
"eM	c #4a4c4c",
"eN	c #474c4f",
"eO	c #785b4c",
"eP	c #492d96",
"eQ	c #67479d",
"eR	c #2f20aa",
"eS	c #0505b6",
"eT	c #513098",
"eU	c #b1626f",
"eV	c #f4955f",
"eW	c #af6f81",
"eX	c #472c95",
"eY	c #ff8e47",
"eZ	c #f56f27",
"e0	c #ec6017",
"e1	c #e55b14",
"e2	c #df5813",
"e3	c #db5713",
"e4	c #dd6525",
"e5	c #dc7b49",
"e6	c #311f8f",
"e7	c #ad6b68",
"e8	c #e88b49",
"e9	c #c07a67",
"e!	c #2d2bba",
"e@	c #5048bb",
"e#	c #594cb1",
"e$	c #a96252",
"e%	c #654f3f",
"e^	c #414547",
"e&	c #464c4f",
"e*	c #745646",
"e(	c #ff8131",
"e)	c #62358b",
"e_	c #99628e",
"e+	c #ffa464",
"e-	c #b46773",
"e=	c #4b2b99",
"e{	c #100bb0",
"e}	c #1e16ad",
"e|	c #452fa1",
"e[	c #1a12a2",
"e]	c #a5697c",
"e:	c #c56f5d",
"e;	c #d06d49",
"e'	c #d97040",
"e<	c #dc723c",
"e>	c #d8713d",
"e?	c #d17850",
"e,	c #be7b6e",
"e.	c #2a1d9b",
"e/	c #815b90",
"f 	c #896291",
"fa	c #4a3eb0",
"fb	c #3a38c0",
"fc	c #7a5b96",
"fd	c #b56848",
"fe	c #b1511c",
"ff	c #523e35",
"fg	c #725241",
"fh	c #ff721c",
"fi	c #aa5566",
"fj	c #42289f",
"fk	c #ff7e35",
"fl	c #dd734e",
"fm	c #9d5873",
"fn	c #5f3c94",
"fo	c #100ba8",
"fp	c #0b09a1",
"fq	c #161198",
"fr	c #160f92",
"fs	c #20158d",
"ft	c #28198a",
"fu	c #25178c",
"fv	c #191195",
"fw	c #110da0",
"fx	c #0a08ae",
"fy	c #4c3aa6",
"fz	c #4a3fb2",
"fA	c #3536c4",
"fB	c #ad746f",
"fC	c #bf6933",
"fD	c #a84a18",
"fE	c #9b3909",
"fF	c #4a372d",
"fG	c #3b3f41",
"fH	c #704e3d",
"fI	c #fd6110",
"fJ	c #f67535",
"fK	c #3721a1",
"fL	c #a95a6a",
"fM	c #fd7628",
"fN	c #eb601a",
"fO	c #ec6118",
"fP	c #f16f26",
"fQ	c #fe8e44",
"fR	c #774b89",
"fS	c #583d9b",
"fT	c #d2876c",
"fU	c #ad6560",
"fV	c #97535d",
"fW	c #884c63",
"fX	c #80496a",
"fY	c #936076",
"fZ	c #896391",
"f0	c #4133ab",
"f1	c #a07a96",
"f2	c #4b46bf",
"f3	c #94667c",
"f4	c #b6612f",
"f5	c #9e4113",
"f6	c #953404",
"f7	c #913000",
"f8	c #47342b",
"f9	c #3c3f41",
"f!	c #464d50",
"f@	c #6d4c3c",
"f#	c #f45607",
"f$	c #fc6d1c",
"f%	c #ac5962",
"f^	c #2b1eaa",
"f&	c #de7347",
"f*	c #ed681f",
"f(	c #dd530e",
"f)	c #d8500b",
"f_	c #df621f",
"f+	c #bb6555",
"f-	c #281aa3",
"f=	c #d07b56",
"f{	c #d97033",
"f}	c #d06124",
"f|	c #cd6327",
"f[	c #ce6d35",
"f]	c #e38f51",
"f:	c #a77b8b",
"f;	c #3935ba",
"f'	c #4543c4",
"f<	c #8c6484",
"f>	c #b5612e",
"f?	c #9a4012",
"f,	c #903203",
"f.	c #8b2e00",
"f/	c #892d00",
"g 	c #46342b",
"ga	c #474d50",
"gb	c #6c4c3c",
"gc	c #ec4f01",
"gd	c #e95810",
"ge	c #f37228",
"gf	c #6e3f86",
"gg	c #3a28a6",
"gh	c #d26f4a",
"gi	c #e66c23",
"gj	c #d55817",
"gk	c #d0591c",
"gl	c #db7133",
"gm	c #442892",
"gn	c #724279",
"go	c #d47032",
"gp	c #c15b25",
"gq	c #c66227",
"gr	c #c97340",
"gs	c #ad7573",
"gt	c #584aaf",
"gu	c #2d34ce",
"gv	c #816293",
"gw	c #b46535",
"gx	c #984013",
"gy	c #8c3204",
"gz	c #862d00",
"gA	c #842c00",
"gB	c #832b00",
"gC	c #45332b",
"gD	c #624b40",
"gE	c #df4b01",
"gF	c #e04e04",
"gG	c #df5a15",
"gH	c #e36e30",
"gI	c #693f88",
"gJ	c #3126ae",
"gK	c #8c5275",
"gL	c #c96942",
"gM	c #d66d32",
"gN	c #e07e3d",
"gO	c #b06f6c",
"gP	c #2b20a9",
"gQ	c #c37f65",
"gR	c #bd765b",
"gS	c #81527a",
"gT	c #5842a0",
"gU	c #3835bc",
"gV	c #383ac8",
"gW	c #916d8d",
"gX	c #b1683e",
"gY	c #974217",
"gZ	c #893105",
"g0	c #832c00",
"g1	c #802a00",
"g2	c #7e2a00",
"g3	c #792901",
"g4	c #3f342e",
"g5	c #3d3f41",
"g6	c #4c4d4e",
"g7	c #4a4b4b",
"g8	c #b84810",
"g9	c #de4800",
"g!	c #d34a06",
"g@	c #d55615",
"g#	c #dd6a28",
"g$	c #a55a5d",
"g%	c #4c349d",
"g^	c #3b2daa",
"g&	c #563b98",
"g*	c #785088",
"g(	c #8f658b",
"g)	c #3932b4",
"g_	c #433ab3",
"g+	c #483eb2",
"g-	c #3735bd",
"g=	c #735ea6",
"g{	c #876fa5",
"g}	c #6057bb",
"g|	c #ae6c4b",
"g[	c #98461b",
"g]	c #873106",
"g:	c #802b00",
"g;	c #7d2900",
"g'	c #792800",
"g<	c #7a2700",
"g>	c #65290b",
"g?	c #343536",
"g,	c #3f4040",
"g.	c #634637",
"g/	c #cb4503",
"h 	c #d34400",
"ha	c #c94604",
"hb	c #c74c0f",
"hc	c #cf5b1a",
"hd	c #ce652c",
"he	c #ac5d4e",
"hf	c #814c71",
"hg	c #694486",
"hh	c #604293",
"hi	c #715294",
"hj	c #5144b1",
"hk	c #4c48c0",
"hl	c #ab8694",
"hm	c #ab8897",
"hn	c #655ec2",
"ho	c #92636f",
"hp	c #9d4e21",
"hq	c #873309",
"hr	c #7f2a00",
"hs	c #7a2900",
"ht	c #782800",
"hu	c #772600",
"hv	c #6f2602",
"hw	c #3e2e26",
"hx	c #343739",
"hy	c #414141",
"hz	c #4d4c4c",
"hA	c #40474a",
"hB	c #5b4031",
"hC	c #a23f0e",
"hD	c #bb3f02",
"hE	c #bb4002",
"hF	c #b84207",
"hG	c #b7470f",
"hH	c #ba5016",
"hI	c #be571c",
"hJ	c #bc5b22",
"hK	c #ba5f28",
"hL	c #bd6733",
"hM	c #b8704a",
"hN	c #845f84",
"hO	c #6256b3",
"hP	c #5d55bd",
"hQ	c #8e5f6b",
"hR	c #9d5124",
"hS	c #87370f",
"hT	c #7d2c03",
"hU	c #752700",
"hV	c #60270c",
"hW	c #3c2d25",
"hX	c #2f3335",
"hY	c #3a3a3a",
"hZ	c #444444",
"h0	c #4a4a4a",
"h1	c #3e4346",
"h2	c #383a3b",
"h3	c #45352e",
"h4	c #493328",
"h5	c #483228",
"h6	c #473328",
"h7	c #47342a",
"h8	c #49362d",
"h9	c #4a382f",
"h!	c #4b3a31",
"h@	c #4d3d35",
"h#	c #55453c",
"h$	c #645444",
"h%	c #635958",
"h^	c #60575a",
"h&	c #5c4c40",
"h*	c #4a3c35",
"h(	c #41332b",
"h)	c #3e2f28",
"h_	c #3d2f28",
"h+	c #3c2f28",
"h-	c #382f2a",
"h=	c #2f3131",
"h{	c #303335",
"h}	c #383737",
"h|	c #404040",
"h[	c #484848",
"h]	c #4c4c4c",
"h:	c #494949",
"h;	c #424343",
"h'	c #393c3e",
"h<	c #34383a",
"h>	c #323638",
"h?	c #323637",
"h,	c #333638",
"h.	c #36393a",
"h/	c #3b3e3f",
"i 	c #414242",
"ia	c #414241",
"ib	c #3b3d3e",
"ic	c #343738",
"id	c #353738",
"ie	c #373838",
"if	c #3b3b3b",
"ig	c #4b4b4b",
" a a a a b c d e e e e c f g h g i j j k k k l l m n a a a a",
" a a a o p q r s t u v w x y z A B C D E F G H I J K L a a a",
" a a M N O P Q R S T U V W X Y Z 0 1 2 3 4 5 6 7 8 9 ! @ a a",
" a o # $ % ^ & * ( ) _ + - = { } | [ ] : ; ' < > ? , . /a  a",
" b aaaabacadaeadafagahaiajakalamanaoapaqarasatauavawaxayazaA",
" caBaCaDaEaFaGaHaIaJaKaLaMaNaOaPaQaRaSaTaUaVaWaXaYaZa0a1a2a3",
" ea4a5a6a7a8a9a!a@a#a$a%a^a&a*a(a)a_a+a-a=a{a}a|a[a]a:a;a'a<",
" ea>a?a,a.a/b babbbcbdbebfbgbhbibjbkblbmbn ?bobpbqbrbsbtbubv",
"bwbxbybzbAbBbCbDaIbEbFbGbHbIbJbKbLbMbNbObPbQbRbSbTbUbVbWbXbY",
"bwbZb0bzb1b2b3b4b5b6b7b8b9b!byb@b#b$b%b^b&b*b(b)b_b+b-b=b{b}",
" kb|b[b]b:b;b'b<b>b?b,b.b/c cacbcccdcecfcgchcicjckclcmcncocp",
" kcqcraPcsctcucvcwcxcyczcAcBcCcDcEcFcGcHcIcJcKcLcMcNcOcPcQcR",
" mcScTcUcVcWcXcYcZc0c1c2c3c4c5c6c7c8c9c!c@c#c$c%c^c&c*c(c)c_",
"c+c-c=c{c}c|c[c]c:c;c'c<c>c?bRc,c.c/d dadbdcdddedfdgdhdidjdk",
"dldmdndodpdqdrdsdtdudvdwdxdydzdAdBdCdDdEdFdGdHdIdJdKdLdMdNdO",
"dPdQdRdSdTdUdVdWdXdYdZd0d1d2d3d4d5d6d7d8d9d!d@d#d$d%d^d&d*d(",
"d)d_d+d-d=d{d}d|d[d]d:d;d'd<d>d?d,d.d/e eaebecedeeefegeheiej",
"ekela&emeneoepeqereseteuevewexeyezeAeBeCeDeEeFeGeHeIeJeKeLeM",
"eNeO 5ePeQeReSeTeUeVeWeXeYeZe0e1e2e3e4e5e6e7e8e9e!e@e#e$e%e^",
"e&e*e(e)e_e+e-e=e{e}e|e[e]e:e;e'e<e>e?e,e.e/f fafbfcfdfeffdk",
"e&fgfhfifjdcd]fkflfmfnfofpfqfrfsftfufvfwfxfyfzfAfBfCfDfEfFfG",
"e&fHfIfJfKfLfMfNfOfPfQfRfSfTfUfVfWfXfYfZf0f1f2f3f4f5f6f7f8f9",
"f!f@f#f$f%f^f&f*f(f)f_f+f-f=f{f}f|f[f]f:f;f'f<f>f?f,f.f/g f9",
"gagbgcgdgegfggghgigjgkglgmgngogpgqgrgsgtgugvgwgxgygzgAgBgCf9",
"ekgDgEgFgGgHgIgJgKgLgMgNgOgPgQgRgSgTgUgVgWgXgYgZg0g1g2g3g4g5",
"g6g7g8g9g!g@g#g$g%g^g&g*g(g)g_g+g-g=g{g}g|g[g]g:g;g'g<g>g?g,",
" a lg.g/h hahbhchdhehfhghhhihjhkhlhmhnhohphqhrhshthuhvhwhxhy",
" ahzhAhBhChDhEhFhGhHhIhJhKhLhMhNhOhPhQhRhShThthUhvhVhWhXhYhZ",
" a ah0h1h2h3h4h5h6h7h8h9h!h@h#h$h%h^h&h*h(h)h_h+h-h=h{h}h|h[",
" a ah]h:h;h'h<h>h>h>h?h?h?h,h.h/i iaibh.icicicicidieifhyazig"
};
