/* XPM */
static char * ford_riggingAid__create4Arrowhead_xpm[] = {
"30 30 790 2",
"  	c none",
" a	c #4d4d4d",
" b	c #4b4c4d",
" c	c #474a4c",
" d	c #46494b",
" e	c #464a4c",
" f	c #464a4d",
" g	c #464b4d",
" h	c #464b4e",
" i	c #474c4e",
" j	c #4b4d4d",
" k	c #45494b",
" l	c #4e4e4e",
" m	c #6c5d55",
" n	c #766359",
" o	c #776359",
" p	c #766258",
" q	c #746055",
" r	c #735e53",
" s	c #735d52",
" t	c #735c51",
" u	c #735c50",
" v	c #735b4f",
" w	c #735b4e",
" x	c #735a4d",
" y	c #73594c",
" z	c #73584b",
" A	c #73584a",
" B	c #735749",
" C	c #735647",
" D	c #735546",
" E	c #6b5347",
" F	c #4e4d4d",
" G	c #454c4f",
" H	c #44494b",
" I	c #7e6458",
" J	c #db946f",
" K	c #fda679",
" L	c #ffb081",
" M	c #ffb586",
" N	c #ffb783",
" O	c #ffac7b",
" P	c #ffa271",
" Q	c #ff9d6a",
" R	c #ff9864",
" S	c #ff965e",
" T	c #ff9259",
" U	c #ff8f55",
" V	c #ff8c51",
" W	c #ff894c",
" X	c #ff8547",
" Y	c #ff8241",
" Z	c #ff7e3c",
" 0	c #ff7a36",
" 1	c #ff7630",
" 2	c #ff7229",
" 3	c #fc6d24",
" 4	c #db6426",
" 5	c #7c523d",
" 6	c #434b4f",
" 7	c #7a6357",
" 8	c #fca273",
" 9	c #ffa776",
" !	c #ffaf7e",
" @	c #c0858b",
" #	c #543c90",
" $	c #916791",
" %	c #e5a18c",
" ^	c #ffb481",
" &	c #ffae77",
" *	c #ffa16c",
" (	c #ff9762",
" )	c #ff915a",
" _	c #ff8c53",
" +	c #ff884d",
" -	c #ff8548",
" =	c #ff8243",
" {	c #ff7e3d",
" }	c #ff7a37",
" |	c #ff7732",
" [	c #ff732c",
" ]	c #ff7027",
" :	c #ff6c22",
" ;	c #ff6a1a",
" '	c #fc6416",
" <	c #78503c",
" >	c #444b4e",
" ?	c #dc8f69",
" ,	c #ffa370",
" .	c #ffa171",
" /	c #ffb580",
"a 	c #74528f",
"aa	c #4c3b97",
"ab	c #665098",
"ac	c #332596",
"ad	c #4f3995",
"ae	c #98688d",
"af	c #e79c80",
"ag	c #ffac73",
"ah	c #ffa366",
"ai	c #ff9359",
"aj	c #ff8345",
"ak	c #ff8141",
"al	c #ff8040",
"am	c #ff7f3e",
"an	c #ff7e3b",
"ao	c #ff7d37",
"ap	c #ff7c34",
"aq	c #ff7c31",
"ar	c #ff7c2c",
"as	c #ff771f",
"at	c #de6323",
"au	c #4b4b4b",
"av	c #4a4c4c",
"aw	c #695952",
"ax	c #fd9c6a",
"ay	c #ff9c6a",
"az	c #ff9e6d",
"aA	c #ffb47e",
"aB	c #845d91",
"aC	c #826098",
"aD	c #ffcc92",
"aE	c #e79f88",
"aF	c #98678c",
"aG	c #503894",
"aH	c #362797",
"aI	c #5a3e94",
"aJ	c #a97087",
"aK	c #ef936b",
"aL	c #ff8d50",
"aM	c #ff8346",
"aN	c #ff8848",
"aO	c #ff9350",
"aP	c #ff9154",
"aQ	c #fd8b54",
"aR	c #ee8154",
"aS	c #de7757",
"aT	c #cd6e5c",
"aU	c #a95866",
"aV	c #ad5660",
"aW	c #ee6931",
"aX	c #6b5142",
"aY	c #715c51",
"aZ	c #ff9a66",
"a0	c #ff9b68",
"a1	c #ffb179",
"a2	c #845c91",
"a3	c #6d4d94",
"a4	c #ffb47d",
"a5	c #ffa16d",
"a6	c #ffa76c",
"a7	c #ffaa74",
"a8	c #e39b85",
"a9	c #966c97",
"a!	c #0e0ca5",
"a@	c #663f8b",
"a#	c #ff9451",
"a$	c #ff8846",
"a%	c #d9785e",
"a^	c #643c82",
"a&	c #41288b",
"a*	c #3f278d",
"a(	c #311d8f",
"a)	c #351f8d",
"a_	c #392290",
"a+	c #4e3190",
"a-	c #1d13a7",
"a=	c #a54d60",
"a{	c #7b583e",
"a}	c #404548",
"a|	c #705b50",
"a[	c #ff9660",
"a]	c #ff955f",
"a:	c #ffad73",
"a;	c #845a8f",
"a'	c #644493",
"a<	c #ffab70",
"a>	c #ff925a",
"a?	c #ffa96f",
"a,	c #916598",
"a.	c #3627a3",
"a/	c #c97e79",
"b 	c #ff8c4b",
"ba	c #ff8a43",
"bb	c #b2666e",
"bc	c #130e9c",
"bd	c #b3717f",
"be	c #d07967",
"bf	c #e17552",
"bg	c #f77d45",
"bh	c #fd884b",
"bi	c #ff945b",
"bj	c #3f28a4",
"bk	c #cc6450",
"bl	c #73533e",
"bm	c #3c4244",
"bn	c #705a4f",
"bo	c #ff9159",
"bp	c #ff925c",
"bq	c #ffa86c",
"br	c #8f5f8c",
"bs	c #6c4892",
"bt	c #ffa769",
"bu	c #ff8c52",
"bv	c #ff8446",
"bw	c #ff884a",
"bx	c #fd975f",
"by	c #3d269e",
"bz	c #986692",
"bA	c #ffa962",
"bB	c #ff8546",
"bC	c #ff9f5d",
"bD	c #513597",
"bE	c #aa6377",
"bF	c #ff8b3a",
"bG	c #ff7022",
"bH	c #ff6b1d",
"bI	c #ff7d2d",
"bJ	c #af5f6e",
"bK	c #462c9e",
"bL	c #fb7730",
"bM	c #654839",
"bN	c #3a4042",
"bO	c #70594d",
"bP	c #ff8e54",
"bQ	c #ff8e56",
"bR	c #ffa365",
"bS	c #9b6587",
"bT	c #674492",
"bU	c #ffa669",
"bV	c #ff8142",
"bW	c #ff8f4e",
"bX	c #c57776",
"bY	c #2b1da9",
"bZ	c #e2896e",
"b0	c #ff9351",
"b1	c #ff9750",
"b2	c #9f5f7e",
"b3	c #2d1b9f",
"b4	c #cd6853",
"b5	c #ff6e1c",
"b6	c #ff5a07",
"b7	c #fd5d0d",
"b8	c #ff7827",
"b9	c #613991",
"b!	c #975272",
"b@	c #fb6d1e",
"b#	c #5d4032",
"b$	c #393e41",
"b%	c #70584c",
"b^	c #ff8a4e",
"b&	c #ff884c",
"b*	c #ff894e",
"b(	c #ff9e60",
"b)	c #a86c84",
"b_	c #5a3e97",
"b+	c #ffb577",
"b-	c #ff9d5f",
"b=	c #ff8a4b",
"b{	c #ff7f3f",
"b}	c #ff7e3e",
"b|	c #ff954b",
"b[	c #885089",
"b]	c #5034a0",
"b:	c #f39c68",
"b;	c #6f4490",
"b'	c #2716a1",
"b<	c #d87254",
"b>	c #ff7624",
"b?	c #ff5e0e",
"b,	c #fc5906",
"b.	c #fb6618",
"b/	c #e06f46",
"c 	c #3828aa",
"ca	c #d56c47",
"cb	c #ea5e15",
"cc	c #593c2d",
"cd	c #383e41",
"ce	c #70574a",
"cf	c #ff8445",
"cg	c #ff9a58",
"ch	c #a16682",
"ci	c #49359e",
"cj	c #976b98",
"ck	c #4b2f9c",
"cl	c #e48467",
"cm	c #ff8843",
"cn	c #ff7834",
"co	c #ff7b37",
"cp	c #fe8c4c",
"cq	c #59379b",
"cr	c #281db1",
"cs	c #46289a",
"ct	c #e87a4b",
"cu	c #fe6316",
"cv	c #fe6414",
"cw	c #ff6f1c",
"cx	c #ff8031",
"cy	c #965679",
"cz	c #593897",
"cA	c #ef7129",
"cB	c #dd530d",
"cC	c #563a2b",
"cD	c #705649",
"cE	c #ff8140",
"cF	c #ff914d",
"cG	c #b97078",
"cH	c #0002ab",
"cI	c #4932a1",
"cJ	c #573ca3",
"cK	c #492d9f",
"cL	c #ff9353",
"cM	c #ff7a35",
"cN	c #ff6f28",
"cO	c #ff782d",
"cP	c #ea7649",
"cQ	c #af5966",
"cR	c #fd7b3a",
"cS	c #ff7020",
"cT	c #fd6317",
"cU	c #e86f3c",
"cV	c #7f447c",
"cW	c #d27d68",
"cX	c #5b40a2",
"cY	c #a25a69",
"cZ	c #e7651c",
"c0	c #d54b06",
"c1	c #55382a",
"c2	c #705548",
"c3	c #ff7c39",
"c4	c #ff813f",
"c5	c #f08355",
"c6	c #9b5878",
"c7	c #f59469",
"c8	c #fc9f6b",
"c9	c #2f1fa8",
"c!	c #885087",
"c@	c #ff8b3c",
"c#	c #ff6c24",
"c$	c #ff6619",
"c%	c #ff6d17",
"c^	c #ff6414",
"c&	c #fc6115",
"c*	c #ff721f",
"c(	c #dc6f49",
"c)	c #432aa0",
"c_	c #4b35a6",
"c+	c #352db4",
"c-	c #4033af",
"c=	c #d56d40",
"c{	c #d65513",
"c}	c #cc4501",
"c|	c #53382a",
"c[	c #393f41",
"c]	c #705446",
"c:	c #ff742f",
"c;	c #ff7530",
"c'	c #ff8336",
"c<	c #ff7e3a",
"c>	c #ff8d47",
"c?	c #d47d6f",
"c,	c #1f16ae",
"c.	c #c56962",
"c/	c #ff7222",
"d 	c #ff5d0c",
"da	c #ff5804",
"db	c #fd5603",
"dc	c #f95a0b",
"dd	c #fe6d1e",
"de	c #b85d5a",
"df	c #1e15ae",
"dg	c #854e7f",
"dh	c #f98c48",
"di	c #764888",
"dj	c #864c75",
"dk	c #dc631f",
"dl	c #ca4a0a",
"dm	c #c44100",
"dn	c #52382b",
"do	c #3a3f41",
"dp	c #705345",
"dq	c #ff722a",
"dr	c #ff7029",
"ds	c #ff722c",
"dt	c #ff782c",
"du	c #ff732a",
"dv	c #ff712b",
"dw	c #ff823b",
"dx	c #ff9b56",
"dy	c #3f2aa6",
"dz	c #7b3f7d",
"dA	c #ff721b",
"dB	c #fe5804",
"dC	c #fb5300",
"dD	c #f55201",
"dE	c #f9600f",
"dF	c #c45c48",
"dG	c #2215a8",
"dH	c #a05b71",
"dI	c #f07a34",
"dJ	c #dd6326",
"dK	c #dc6220",
"dL	c #d55b19",
"dM	c #c74c0f",
"dN	c #c14303",
"dO	c #bd3e00",
"dP	c #50372b",
"dQ	c #464c4f",
"dR	c #705244",
"dS	c #ff7028",
"dT	c #d56b50",
"dU	c #f37c48",
"dV	c #ff893d",
"dW	c #ed8150",
"dX	c #472999",
"dY	c #452497",
"dZ	c #eb713c",
"d0	c #fc6312",
"d1	c #f65402",
"d2	c #f25000",
"d3	c #ed5001",
"d4	c #f15f10",
"d5	c #b4564e",
"d6	c #37229c",
"d7	c #e07d4e",
"d8	c #df6b2d",
"d9	c #d45817",
"d!	c #cf520f",
"d@	c #c4490c",
"d#	c #bd4305",
"d$	c #b93e01",
"d%	c #b53c00",
"d^	c #4f372b",
"d&	c #705142",
"d*	c #ff671a",
"d(	c #ff681c",
"d)	c #ff752a",
"d_	c #e8784e",
"d+	c #120b97",
"d-	c #663c87",
"d=	c #d98365",
"d{	c #2e1b9c",
"d}	c #673682",
"d|	c #fb7b36",
"d[	c #fd6a1a",
"d]	c #f35a0e",
"d:	c #f1580a",
"d;	c #ec5508",
"d'	c #e45006",
"d<	c #e1540e",
"d>	c #ea6c25",
"d?	c #61347e",
"d,	c #573289",
"d.	c #ea813e",
"d/	c #cb693c",
"e 	c #b35437",
"ea	c #c14f16",
"eb	c #b74106",
"ec	c #b13b00",
"ed	c #ae3a00",
"ee	c #4d362b",
"ef	c #705040",
"eg	c #ff6212",
"eh	c #ff6618",
"ei	c #ff7f2d",
"ej	c #89496f",
"ek	c #53348e",
"el	c #5f3a8f",
"em	c #934a6d",
"en	c #ff7c2b",
"eo	c #f76519",
"ep	c #ef5d15",
"eq	c #f4671b",
"er	c #e5682d",
"es	c #e3672a",
"et	c #e15b16",
"eu	c #d7500d",
"ev	c #d95916",
"ew	c #d36936",
"ex	c #311c98",
"ey	c #7d4e83",
"ez	c #442d9c",
"eA	c #442c99",
"eB	c #bc5c2e",
"eC	c #b3450c",
"eD	c #aa3800",
"eE	c #a73700",
"eF	c #4c362b",
"eG	c #3b3f41",
"eH	c #704f3e",
"eI	c #ff5d0b",
"eJ	c #ff7f35",
"eK	c #3f228a",
"eL	c #bb6869",
"eM	c #f6834a",
"eN	c #d86541",
"eO	c #ff7021",
"eP	c #f15f16",
"eQ	c #eb5c15",
"eR	c #f66e20",
"eS	c #c06150",
"eT	c #392095",
"eU	c #45258a",
"eV	c #d76a37",
"eW	c #d55817",
"eX	c #ca4c0e",
"eY	c #d35c19",
"eZ	c #a9574c",
"e0	c #33219e",
"e1	c #5c4199",
"e2	c #402fa5",
"e3	c #b4603d",
"e4	c #ae4610",
"e5	c #a23600",
"e6	c #9f3400",
"e7	c #4a352b",
"e8	c #464c50",
"e9	c #704d3c",
"e!	c #ff5a06",
"e@	c #ff6d1a",
"e#	c #d0664d",
"e$	c #2d1992",
"e%	c #f27840",
"e^	c #f96b1f",
"e&	c #f55e0e",
"e*	c #ea570d",
"e(	c #e75b14",
"e)	c #f57122",
"e_	c #ad5a5d",
"e+	c #1910aa",
"e-	c #855280",
"e=	c #3c2798",
"e{	c #5b3281",
"e}	c #dd6c29",
"e|	c #c44e12",
"e[	c #bd480d",
"e]	c #c35419",
"e:	c #cb6e39",
"e;	c #b17066",
"e'	c #372cab",
"e<	c #ae5f40",
"e>	c #a74612",
"e?	c #9a3300",
"e,	c #983200",
"e.	c #49352b",
"e/	c #464d50",
"f 	c #6f4d3c",
"fa	c #fc5a09",
"fb	c #ff7623",
"fc	c #703a75",
"fd	c #6a3778",
"fe	c #ff7424",
"ff	c #e9550a",
"fg	c #e44c00",
"fh	c #e2520a",
"fi	c #e56724",
"fj	c #924e6c",
"fk	c #241aab",
"fl	c #a65e65",
"fm	c #ed823c",
"fn	c #c27057",
"fo	c #1a11a8",
"fp	c #8d4d64",
"fq	c #c85b1e",
"fr	c #b44209",
"fs	c #af3f07",
"ft	c #b8551d",
"fu	c #a35d51",
"fv	c #4232a2",
"fw	c #ab5d3a",
"fx	c #9f4312",
"fy	c #933100",
"fz	c #902f00",
"fA	c #48342b",
"fB	c #3c3f41",
"fC	c #6e4d3d",
"fD	c #f75f12",
"fE	c #f37535",
"fF	c #321c91",
"fG	c #be6051",
"fH	c #ef661b",
"fI	c #e05007",
"fJ	c #dc4d06",
"fK	c #e25e16",
"fL	c #b35d54",
"fM	c #1d1ab5",
"fN	c #b76e68",
"fO	c #df7230",
"fP	c #c85b25",
"fQ	c #d97436",
"fR	c #a3656e",
"fS	c #2d1fa4",
"fT	c #b35a38",
"fU	c #b0440b",
"fV	c #a53801",
"fW	c #ab4914",
"fX	c #9f5747",
"fY	c #4332a0",
"fZ	c #a3593a",
"f0	c #984012",
"f1	c #8c2f00",
"f2	c #892d00",
"f3	c #46342b",
"f4	c #474c4f",
"f5	c #6f5040",
"f6	c #f96a1b",
"f7	c #ab585c",
"f8	c #2f1d98",
"f9	c #ec7e43",
"f!	c #e56826",
"f@	c #e16019",
"f#	c #e2631c",
"f$	c #e7742f",
"f%	c #d47f5a",
"f^	c #4233ac",
"f&	c #8e5879",
"f*	c #cd6126",
"f(	c #c15117",
"f)	c #bd643e",
"f_	c #573b95",
"f+	c #533b9a",
"f-	c #c37142",
"f=	c #b0511d",
"f{	c #a2400f",
"f}	c #a74d1d",
"f|	c #9c5a4b",
"f[	c #3f31a4",
"f]	c #9c573e",
"f:	c #923f13",
"f;	c #842c00",
"f'	c #822a00",
"f<	c #45332b",
"f>	c #484c4f",
"f?	c #675247",
"f,	c #f07027",
"f.	c #572e86",
"f/	c #845384",
"g 	c #f18d51",
"ga	c #cc6d4c",
"gb	c #b05e57",
"gc	c #93536d",
"gd	c #7c4e85",
"ge	c #63489f",
"gf	c #3a34b9",
"gg	c #674087",
"gh	c #c4581c",
"gi	c #bd5112",
"gj	c #8d4c58",
"gk	c #1116c2",
"gl	c #705296",
"gm	c #9a656e",
"gn	c #a75f45",
"go	c #ae5c2b",
"gp	c #b66732",
"gq	c #9e665d",
"gr	c #3b32ae",
"gs	c #975741",
"gt	c #8c3d13",
"gu	c #7e2a00",
"gv	c #792800",
"gw	c #3f342e",
"gx	c #3d3f41",
"gy	c #4c4d4d",
"gz	c #545351",
"gA	c #c16638",
"gB	c #371b9a",
"gC	c #412fa7",
"gD	c #4532a6",
"gE	c #4533a6",
"gF	c #4735a5",
"gG	c #5d3f96",
"gH	c #704786",
"gI	c #8c5470",
"gJ	c #a45c58",
"gK	c #b8592f",
"gL	c #b24812",
"gM	c #ad440f",
"gN	c #a9512c",
"gO	c #8e545f",
"gP	c #62438b",
"gQ	c #4235a8",
"gR	c #4236aa",
"gS	c #553f99",
"gT	c #765384",
"gU	c #856181",
"gV	c #453bae",
"gW	c #92533b",
"gX	c #843810",
"gY	c #7a2700",
"gZ	c #65280a",
"g0	c #343536",
"g1	c #3f4040",
"g2	c #4c5053",
"g3	c #755a4b",
"g4	c #a25053",
"g5	c #964d66",
"g6	c #ad5e59",
"g7	c #c46642",
"g8	c #ce6733",
"g9	c #cf6529",
"g!	c #cc6021",
"g@	c #c5591c",
"g#	c #bc5015",
"g$	c #b0440d",
"g%	c #a63b06",
"g^	c #a23906",
"g&	c #a3400d",
"g*	c #aa4d18",
"g(	c #ae5824",
"g)	c #a75b34",
"g_	c #97584b",
"g+	c #784e6f",
"g-	c #564197",
"g=	c #483cab",
"g{	c #5f458b",
"g}	c #8d4826",
"g|	c #7e3008",
"g[	c #6f2602",
"g]	c #3e2e26",
"g:	c #343739",
"g;	c #414141",
"g'	c #484e51",
"g<	c #70543f",
"g>	c #b65a23",
"g?	c #c9581a",
"g,	c #c45115",
"g.	c #bc4b11",
"g/	c #b6460d",
"h 	c #b04109",
"ha	c #ab3d06",
"hb	c #a53903",
"hc	c #a13701",
"hd	c #9c3500",
"he	c #983301",
"hf	c #943302",
"hg	c #923405",
"hh	c #90370b",
"hi	c #903c11",
"hj	c #934317",
"hk	c #984b1d",
"hl	c #995228",
"hm	c #915031",
"hn	c #894726",
"ho	c #7a3613",
"hp	c #622c10",
"hq	c #3c2d26",
"hr	c #2f3335",
"hs	c #3a3a3a",
"ht	c #444444",
"hu	c #414648",
"hv	c #3b3d3d",
"hw	c #473830",
"hx	c #4b352a",
"hy	c #483328",
"hz	c #463227",
"hA	c #463127",
"hB	c #453127",
"hC	c #443127",
"hD	c #443128",
"hE	c #433128",
"hF	c #423128",
"hG	c #413028",
"hH	c #403027",
"hI	c #403028",
"hJ	c #40322a",
"hK	c #43352e",
"hL	c #453831",
"hM	c #473a32",
"hN	c #44372f",
"hO	c #3c332e",
"hP	c #303232",
"hQ	c #303334",
"hR	c #383737",
"hS	c #404040",
"hT	c #484848",
"hU	c #4c4c4c",
"hV	c #494949",
"hW	c #424243",
"hX	c #393c3d",
"hY	c #34383a",
"hZ	c #323638",
"h0	c #333638",
"h1	c #333738",
"h2	c #343637",
"h3	c #343638",
"h4	c #343738",
"h5	c #353738",
"h6	c #373838",
"h7	c #3b3b3b",
"h8	c #474747",
" a a a a b c d d d d e e e e e f f g g g h h h h i j a a a a",
" a a a k l m n o p q r s s t u v w x y z A B C D E F G a a a",
" a a H I J K L M N O P Q R S T U V W X Y Z 0 1 2 3 4 5 6 a a",
" a k 7 8 9 ! @ # $ % ^ & * ( ) _ + - = { } | [ ] : ; ' < > a",
" b a ? , . /a aaabacadaeafagahai +ajakalamanaoapaqarasatauav",
" cawaxayazaAaBaCaDaEaFaGaHaIaJaKaLaMaNaOaPaQaRaSaTaUaVaWaX H",
" eaYaZ Ra0a1a2a3a4a5a6a7a8a9a!a@a#a$a%a^a&a*a(a)a_a+a-a=a{a}",
" ea|a[a] (a:a;a'a< ) _a>a?a,a.a/b babbbcbdbebfbgbhbibjbkblbm",
" fbna>bobpbqbrbsbtbubvbwbxbybzbAaMbBbCbDbEbFbGbHbIbJbKbLbMbN",
" fbObP _bQbRbSbTbU V =bVbWbXbYbZb0b1b2b3b4b5b6b7b8b9b!b@b#b$",
" gb%b^b&b*b(b)b_b+b-b=b{b}b|b[b]b:b;b'b<b>b?b,b.b/c cacbcccd",
" gce Xcf Xcgchcicjckclcmcncocpcqcrcsctb>cucvcwcxcyczcAcBcCb$",
" gcDcEamalcFcGcHcIcJcKcLcMcNcOcPcQcRcScTb5cUcVcWcXcYcZc0c1b$",
" hc2c3 } }c4c5c6c7c8c9c!c@c#c$ ;c%c^c&c*c(c)c_c+c-c=c{c}c|c[",
" hc] | 1c:c;cMc'c<c>c?c,c.c/d dadbdcdddedfdgdhdidjdkdldmdndo",
" hdpdqdrdrdsdtdudvdwdxdydzdAdBdCdDdEdFdGdHdIdJdKdLdMdNdOdPdo",
"dQdR : :dS 0dTdUdVdWdXdYdZd0d1d2d3d4d5d6d7d8d9d!d@d#d$d%d^do",
"dQd&d*d(d)d_d+d-d=d{d}d|d[d]d:d;d'd<d>d?d,d.d/e eaebecedeedo",
"dQefegeheiejekelb'emeneoepeqereseteuevewexeyezeAeBeCeDeEeFeG",
"dQeHeIeheJeKeLeMeNeOePeQeReSeTeUeVeWeXeYeZe0e1e2e3e4e5e6e7eG",
"e8e9e!e@e#e$e%e^e&e*e(e)e_e+e-e=e{e}e|e[e]e:e;e'e<e>e?e,e.eG",
"e/f fafbfcfdfefffgfhfifjfkflfmfnfofpfqfrfsftfufvfwfxfyfzfAfB",
"e/fCfDfEfFfGfHfIfJfKfLfMfNfOfPfQfRfSfTfUfVfWfXfYfZf0f1f2f3fB",
"f4f5f6f7f8f9f!f@f#f$f%f^f&f*f(f)f_f+f-f=f{f}f|f[f]f:f;f'f<fB",
"f>f?f,f.f/g gagbgcgdgegfggghgigjgkglgmgngogpgqgrgsgtgugvgwgx",
"gygzgAgBgCgDgEgFgGgHgIgJgKgLgMgNgOgPgQgRgSgTgUgVgWgXgYgZg0g1",
" ag2g3g4g5g6g7g8g9g!g@g#g$g%g^g&g*g(g)g_g+g-g=g{g}g|g[g]g:g;",
" a lg'g<g>g?g,g.g/h hahbhchdhehfhghhhihjhkhlhmhnhohphqhrhsht",
" a aauhuhvhwhxhyhzhAhBhChDhEhFhGhHhHhIhJhKhLhMhNhOhPhQhRhShT",
" a ahUhVhWhXhYhZhZhZhZh0h0h0h0h0h1h1h0h0h0h2h3h4h5h6h7g;h8au"
};
