/* XPM */
static char * ford_riggingAid__createCircle1Arrowhead_xpm[] = {
"30 30 783 2",
"  	c none",
" a	c #4d4d4d",
" b	c #4b4c4d",
" c	c #474a4c",
" d	c #46494b",
" e	c #464a4c",
" f	c #464a4d",
" g	c #464b4d",
" h	c #464b4e",
" i	c #474c4e",
" j	c #4b4d4d",
" k	c #45494b",
" l	c #4e4e4d",
" m	c #6b5c54",
" n	c #736055",
" o	c #735f55",
" p	c #735f54",
" q	c #735e54",
" r	c #735e53",
" s	c #735d52",
" t	c #735c51",
" u	c #755e52",
" v	c #796154",
" w	c #7c6355",
" x	c #775e52",
" y	c #755b4e",
" z	c #73584a",
" A	c #735748",
" B	c #735647",
" C	c #735546",
" D	c #6b5347",
" E	c #4e4d4d",
" F	c #454c4f",
" G	c #44494b",
" H	c #7e6458",
" I	c #db936e",
" J	c #fca374",
" K	c #ffa373",
" L	c #ffa271",
" M	c #ffa06e",
" N	c #ff9e6c",
" O	c #ff9c69",
" P	c #ff9a65",
" Q	c #ff9762",
" R	c #ff955e",
" S	c #ff945c",
" T	c #ff9760",
" U	c #f8976c",
" V	c #ffa263",
" W	c #ff9153",
" X	c #ff8444",
" Y	c #ff7c39",
" Z	c #ff7730",
" 0	c #ff7229",
" 1	c #fc6d24",
" 2	c #db6427",
" 3	c #7c523e",
" 4	c #434b4f",
" 5	c #7a6357",
" 6	c #fca373",
" 7	c #ffa574",
" 8	c #ffa171",
" 9	c #ff9f6f",
" !	c #ff9e6d",
" @	c #ff9c6a",
" #	c #ff9a68",
" $	c #ff9864",
" %	c #ff9662",
" ^	c #ff9560",
" &	c #ff955f",
" *	c #ffaa71",
" (	c #895a7f",
" )	c #2e2086",
" _	c #885881",
" +	c #ee946d",
" -	c #ff9a56",
" =	c #ff8645",
" {	c #ff7935",
" }	c #ff7129",
" |	c #ff6b20",
" [	c #ff6817",
" ]	c #fc6314",
" :	c #774f3b",
" ;	c #434b4e",
" '	c #dc8f69",
" <	c #ffa471",
" >	c #ff9e6e",
" ?	c #ff9d6c",
" ,	c #ff9b68",
" .	c #ff9966",
" /	c #ff9763",
"a 	c #ff9f69",
"aa	c #ffa96f",
"ab	c #ffa778",
"ac	c #da9483",
"ad	c #3a2a8b",
"ae	c #885e8a",
"af	c #46318d",
"ag	c #261992",
"ah	c #825282",
"ai	c #ee8d63",
"aj	c #ff8f46",
"ak	c #ff7830",
"al	c #ff6a1f",
"am	c #ff6315",
"an	c #ff600c",
"ao	c #da5716",
"ap	c #474747",
"aq	c #4a4b4c",
"ar	c #695952",
"as	c #fd9c6a",
"at	c #ff9d6a",
"au	c #ff9b69",
"av	c #ff9865",
"aw	c #ff9663",
"ax	c #ff9d69",
"ay	c #ffac73",
"az	c #e2967d",
"aA	c #865a86",
"aB	c #35248c",
"aC	c #22188f",
"aD	c #5f3e8a",
"aE	c #fda372",
"aF	c #ffa36a",
"aG	c #b97379",
"aH	c #4b3296",
"aI	c #2f1f9d",
"aJ	c #8b5381",
"aK	c #ef7a45",
"aL	c #ff6c1f",
"aM	c #ff5f0f",
"aN	c #ff5b07",
"aO	c #fd5704",
"aP	c #5f4437",
"aQ	c #42484a",
"aR	c #715c51",
"aS	c #ff9a66",
"aT	c #ff9965",
"aU	c #ffa46d",
"aV	c #fca87a",
"aW	c #805787",
"aX	c #1f168e",
"aY	c #4b348b",
"aZ	c #ad7281",
"a0	c #e69072",
"a1	c #ff9660",
"a2	c #ff8c4f",
"a3	c #ff894e",
"a4	c #ffa15c",
"a5	c #ffb376",
"a6	c #75529b",
"a7	c #0000b3",
"a8	c #c4635a",
"a9	c #ff6e1a",
"a!	c #ff5b08",
"a@	c #ff5601",
"a#	c #ff5400",
"a$	c #63402f",
"a%	c #3d4447",
"a^	c #705b50",
"a&	c #ff945e",
"a*	c #ff925c",
"a(	c #ff9561",
"a)	c #ffa76d",
"a_	c #da937e",
"a+	c #37268b",
"a-	c #3c298d",
"a=	c #c38382",
"a{	c #ffad75",
"a}	c #ffab69",
"a|	c #ffa05d",
"a[	c #ff8e51",
"a]	c #ff8849",
"a:	c #ff934c",
"a;	c #e48968",
"a'	c #5b3b9b",
"a<	c #2216a9",
"a>	c #995779",
"a?	c #f67838",
"a,	c #ff6314",
"a.	c #fe5703",
"a/	c #fc5400",
"b 	c #f85200",
"ba	c #5d3d2d",
"bb	c #3a4043",
"bc	c #705a4f",
"bd	c #ff925a",
"be	c #ff9159",
"bf	c #ff9058",
"bg	c #ff8f57",
"bh	c #ff925d",
"bi	c #ffa66b",
"bj	c #c9867f",
"bk	c #17108d",
"bl	c #765089",
"bm	c #feaa7b",
"bn	c #ffb06f",
"bo	c #ffa26e",
"bp	c #cd7f7b",
"bq	c #a46483",
"br	c #f89569",
"bs	c #fd9961",
"bt	c #945a84",
"bu	c #1f13ac",
"bv	c #62388f",
"bw	c #e17e5b",
"bx	c #ff883b",
"by	c #ff7728",
"bz	c #ff6c16",
"bA	c #fa5c0c",
"bB	c #f45404",
"bC	c #f05000",
"bD	c #5b3b2b",
"bE	c #393f42",
"bF	c #70594d",
"bG	c #ff8e54",
"bH	c #ff8d53",
"bI	c #ff8c52",
"bJ	c #ff8e56",
"bK	c #ffa065",
"bL	c #d18a7b",
"bM	c #19128d",
"bN	c #906088",
"bO	c #ffb277",
"bP	c #ffab6e",
"bQ	c #c27c81",
"bR	c #4d34a4",
"bS	c #3929ac",
"bT	c #2c23b2",
"bU	c #7451a1",
"bV	c #4c37aa",
"bW	c #3c27a5",
"bX	c #bb6a6c",
"bY	c #ff8b42",
"bZ	c #ff8237",
"b0	c #ff8535",
"b1	c #ca6455",
"b2	c #b1545a",
"b3	c #f16824",
"b4	c #ef580b",
"b5	c #ea4e00",
"b6	c #593a2a",
"b7	c #383e41",
"b8	c #70584c",
"b9	c #ff8a4e",
"b!	c #ff884d",
"b@	c #ff894f",
"b#	c #ff965b",
"b$	c #ee9973",
"b%	c #271a8e",
"b^	c #805589",
"b&	c #ffb374",
"b*	c #ffa570",
"b(	c #815597",
"b)	c #3024b0",
"b_	c #94608d",
"b+	c #f19d72",
"b-	c #7b57a1",
"b=	c #2524bb",
"b{	c #995f86",
"b}	c #f9864c",
"b|	c #ff7f31",
"b[	c #ff762d",
"b]	c #fb7d3a",
"b:	c #84477d",
"b;	c #2418ab",
"b'	c #1812b0",
"b<	c #c4614f",
"b>	c #f06114",
"b?	c #e24d02",
"b,	c #58392a",
"b.	c #70574a",
"b/	c #ff8547",
"c 	c #ff8b50",
"ca	c #ffa265",
"cb	c #5e3c88",
"cc	c #49318e",
"cd	c #ffad74",
"ce	c #ffa66d",
"cf	c #69479e",
"cg	c #4130ac",
"ch	c #e1896c",
"ci	c #ff934a",
"cj	c #ff8845",
"ck	c #ec7e54",
"cl	c #e47a57",
"cm	c #ff8336",
"cn	c #ff6e22",
"co	c #ff691a",
"cp	c #f47131",
"cq	c #61348c",
"cr	c #3b27a5",
"cs	c #cc8075",
"ct	c #5338a0",
"cu	c #944e6d",
"cv	c #ee671b",
"cw	c #db4c04",
"cx	c #56392a",
"cy	c #393e41",
"cz	c #705649",
"cA	c #ff8040",
"cB	c #ff8344",
"cC	c #ff9555",
"cD	c #c27876",
"cE	c #140e95",
"cF	c #e59379",
"cG	c #8e5b91",
"cH	c #382aae",
"cI	c #ed8d64",
"cJ	c #ff863e",
"cK	c #ff712c",
"cL	c #ff6c23",
"cM	c #ff6d20",
"cN	c #ff6c1b",
"cO	c #ff6214",
"cP	c #ff5b09",
"cQ	c #ff6511",
"cR	c #d26349",
"cS	c #2e1da5",
"cT	c #e4845f",
"cU	c #ff9950",
"cV	c #664194",
"cW	c #844977",
"cX	c #e8671e",
"cY	c #d54a05",
"cZ	c #55382a",
"c0	c #705548",
"c1	c #ff7d3a",
"c2	c #ff995c",
"c3	c #472d8c",
"c4	c #855586",
"c5	c #ffac67",
"c6	c #d18178",
"c7	c #2b21b1",
"c8	c #d8806e",
"c9	c #ff863c",
"c!	c #ff6d24",
"c@	c #ff6417",
"c#	c #ff6111",
"c$	c #ff5d0d",
"c%	c #ff5a07",
"c^	c #ff5602",
"c&	c #fb6314",
"c*	c #e47041",
"c(	c #2e1ba0",
"c)	c #cc705c",
"c_	c #f88742",
"c+	c #69418e",
"c-	c #844a76",
"c=	c #e1651e",
"c{	c #cd4805",
"c}	c #53382a",
"c|	c #393f41",
"c[	c #705446",
"c]	c #ff7934",
"c:	c #ff8945",
"c;	c #d57d69",
"c'	c #1e1495",
"c<	c #e78d6f",
"c>	c #ffa260",
"c?	c #57389e",
"c,	c #764992",
"c.	c #ff8e41",
"c/	c #ff6d25",
"d 	c #ff5e0d",
"da	c #ff5703",
"db	c #fd5500",
"dc	c #f95200",
"dd	c #f35201",
"de	c #f26116",
"df	c #e3713f",
"dg	c #311d9c",
"dh	c #bc675d",
"di	c #f28542",
"dj	c #573898",
"dk	c #8c4f70",
"dl	c #d9601b",
"dm	c #c54404",
"dn	c #52372a",
"do	c #3a3f41",
"dp	c #705345",
"dq	c #ff7731",
"dr	c #ff8f47",
"ds	c #844d7b",
"dt	c #51328c",
"du	c #e28368",
"dv	c #3624a7",
"dw	c #e27c5d",
"dx	c #ff772b",
"dy	c #ff6112",
"dz	c #ff5805",
"dA	c #fe5501",
"dB	c #fb5400",
"dC	c #f65200",
"dD	c #eb5003",
"dE	c #ed6319",
"dF	c #ce6a4a",
"dG	c #2315a1",
"dH	c #cb7359",
"dI	c #de7f4f",
"dJ	c #4130a7",
"dK	c #a65b5b",
"dL	c #ce5818",
"dM	c #be4102",
"dN	c #50372a",
"dO	c #464c4e",
"dP	c #705243",
"dQ	c #ff752e",
"dR	c #ff8c48",
"dS	c #4b2c8a",
"dT	c #995979",
"dU	c #ff9e50",
"dV	c #ab6176",
"dW	c #4d2f9c",
"dX	c #ff833e",
"dY	c #ff671a",
"dZ	c #ff5905",
"d0	c #f75200",
"d1	c #f25100",
"d2	c #ed4f00",
"d3	c #e74d00",
"d4	c #e35108",
"d5	c #ee6b22",
"d6	c #985165",
"d7	c #331f9b",
"d8	c #e5854f",
"d9	c #b36c69",
"d!	c #3e30aa",
"d@	c #c3663e",
"d#	c #c14e13",
"d$	c #b63d00",
"d%	c #4f362a",
"d^	c #464c4f",
"d&	c #705142",
"d*	c #ff742a",
"d(	c #f8824b",
"d)	c #362091",
"d_	c #c66f67",
"d+	c #ff9647",
"d-	c #8a4b7f",
"d=	c #6f3e8a",
"d{	c #ff7d2d",
"d}	c #ff5e0e",
"d|	c #f35100",
"d[	c #ee4f00",
"d]	c #e94e00",
"d:	c #e34c00",
"d;	c #df4c02",
"d'	c #dd5713",
"d<	c #e97532",
"d>	c #3f248f",
"d?	c #6f4382",
"d,	c #ef8d4a",
"d.	c #724d90",
"d/	c #624292",
"e 	c #ca6327",
"ea	c #b4440b",
"eb	c #ae3900",
"ec	c #4d362b",
"ed	c #705041",
"ee	c #ff7124",
"ef	c #eb784c",
"eg	c #2e1b95",
"eh	c #da755a",
"ei	c #ff8e3d",
"ej	c #84457c",
"ek	c #6e3b86",
"el	c #ff7929",
"em	c #f75b0c",
"en	c #f35000",
"eo	c #ee5000",
"ep	c #e54c00",
"eq	c #e04b00",
"er	c #db4a01",
"es	c #d7500c",
"et	c #e46a23",
"eu	c #9f585f",
"ev	c #1e13a0",
"ew	c #cb7a5c",
"ex	c #ca7c5e",
"ey	c #3931b4",
"ez	c #a35e5b",
"eA	c #bd541a",
"eB	c #ab3c05",
"eC	c #a63700",
"eD	c #4c362b",
"eE	c #3b3f41",
"eF	c #704f3f",
"eG	c #ff6c1c",
"eH	c #eb7546",
"eI	c #2d1a98",
"eJ	c #d87055",
"eK	c #ff8735",
"eL	c #a25269",
"eM	c #4b2994",
"eN	c #fe7b32",
"eO	c #f05d12",
"eP	c #ea4e01",
"eQ	c #e54b00",
"eR	c #e04a00",
"eS	c #db4900",
"eT	c #d74902",
"eU	c #d44f0c",
"eV	c #dd631f",
"eW	c #c46a49",
"eX	c #170e9d",
"eY	c #825079",
"eZ	c #e88e4d",
"e0	c #6b4b97",
"e1	c #59409b",
"e2	c #c1632e",
"e3	c #ab4410",
"e4	c #a23701",
"e5	c #9f3400",
"e6	c #4a352b",
"e7	c #464c50",
"e8	c #704e3d",
"e9	c #ff6412",
"e!	c #fb7737",
"e@	c #311c98",
"e#	c #b96160",
"e$	c #ff8132",
"e%	c #d76b4a",
"e^	c #2b18a1",
"e&	c #ce6c53",
"e*	c #f36e22",
"e(	c #e2540e",
"e)	c #dc4d06",
"e_	c #d84b05",
"e+	c #d44d0a",
"e-	c #d35515",
"e=	c #de6924",
"e{	c #c36948",
"e}	c #2f1c92",
"e|	c #563689",
"e[	c #e18a4f",
"e]	c #a16975",
"e:	c #3832b7",
"e;	c #aa6150",
"e'	c #b2501a",
"e<	c #9f3906",
"e>	c #9a3300",
"e?	c #983200",
"e,	c #49352b",
"e.	c #464d50",
"e/	c #6f4d3b",
"f 	c #fd5b0a",
"fa	c #ff7729",
"fb	c #552e8b",
"fc	c #7d437c",
"fd	c #ff7f33",
"fe	c #f7772f",
"ff	c #6e397d",
"fg	c #3b239a",
"fh	c #dd7547",
"fi	c #ed7128",
"fj	c #e1641f",
"fk	c #dd621e",
"fl	c #d76f37",
"fm	c #8e4f64",
"fn	c #1b119c",
"fo	c #5c3986",
"fp	c #d98651",
"fq	c #b97664",
"fr	c #3c35b7",
"fs	c #855474",
"ft	c #b75a22",
"fu	c #9f3e0d",
"fv	c #963301",
"fw	c #933100",
"fx	c #903000",
"fy	c #48342b",
"fz	c #3c3f41",
"fA	c #6d4c3b",
"fB	c #f45505",
"fC	c #fc6d1c",
"fD	c #a15266",
"fE	c #2a19a3",
"fF	c #ea7a43",
"fG	c #eb6f2c",
"fH	c #e37036",
"fI	c #552e89",
"fJ	c #2718a3",
"fK	c #7b4576",
"fL	c #a4585b",
"fM	c #9b535d",
"fN	c #784270",
"fO	c #392191",
"fP	c #1d13a0",
"fQ	c #835176",
"fR	c #db874d",
"fS	c #b97662",
"fT	c #463bb1",
"fU	c #6d4c8a",
"fV	c #b75f2a",
"fW	c #9f4112",
"fX	c #933403",
"fY	c #8e2f00",
"fZ	c #8c2e00",
"f0	c #892d00",
"f1	c #46342b",
"f2	c #474d50",
"f3	c #6c4c3b",
"f4	c #ec4f01",
"f5	c #eb5b12",
"f6	c #e97135",
"f7	c #321ea1",
"f8	c #794580",
"f9	c #f17c34",
"f!	c #df692b",
"f@	c #de6f33",
"f#	c #934e64",
"f$	c #48298d",
"f%	c #382195",
"f^	c #372194",
"f&	c #472b8d",
"f*	c #7d4c75",
"f(	c #c37757",
"f)	c #dc884a",
"f_	c #9e6972",
"f+	c #3f38b6",
"f-	c #6c4c8c",
"f=	c #b35f30",
"f{	c #9e4415",
"f}	c #913405",
"f|	c #8b2e00",
"f[	c #872d00",
"f]	c #842c00",
"f:	c #832b00",
"f;	c #45332b",
"f'	c #484d4f",
"f<	c #624b40",
"f>	c #df4b01",
"f?	c #e05007",
"f,	c #e7641c",
"f.	c #b86154",
"f/	c #1c15af",
"g 	c #8b5177",
"ga	c #e17739",
"gb	c #db6e2f",
"gc	c #da7030",
"gd	c #d67239",
"ge	c #cb7143",
"gf	c #cb7546",
"gg	c #d67e44",
"gh	c #d88246",
"gi	c #bb765b",
"gj	c #6d4f94",
"gk	c #3d37b8",
"gl	c #805477",
"gm	c #b15d2b",
"gn	c #9b4215",
"go	c #8e3306",
"gp	c #872e01",
"gq	c #802b00",
"gr	c #7e2a00",
"gs	c #792901",
"gt	c #3f342e",
"gu	c #3d3f41",
"gv	c #4c4d4e",
"gw	c #4a4b4b",
"gx	c #b84810",
"gy	c #de4900",
"gz	c #d44f0d",
"gA	c #e06621",
"gB	c #a85b5b",
"gC	c #2a1fac",
"gD	c #533698",
"gE	c #a05c64",
"gF	c #c16b48",
"gG	c #c76e41",
"gH	c #c57046",
"gI	c #b96e52",
"gJ	c #9e636a",
"gK	c #6c4d91",
"gL	c #3c36b7",
"gM	c #5341a2",
"gN	c #9d5e53",
"gO	c #aa5623",
"gP	c #953e13",
"gQ	c #8a3205",
"gR	c #7d2a00",
"gS	c #792900",
"gT	c #7a2700",
"gU	c #65290b",
"gV	c #343536",
"gW	c #3f4040",
"gX	c #634637",
"gY	c #cb4503",
"gZ	c #d34600",
"g0	c #cb4d0d",
"g1	c #d5601d",
"g2	c #c06442",
"g3	c #6c4284",
"g4	c #3a2ca9",
"g5	c #4534a7",
"g6	c #513ba1",
"g7	c #4c3ba6",
"g8	c #3e35b2",
"g9	c #473aac",
"g!	c #624693",
"g@	c #945b5d",
"g#	c #ae5d2f",
"g$	c #a04a1a",
"g%	c #90380c",
"g^	c #882f03",
"g&	c #832c00",
"g*	c #7b2900",
"g(	c #782800",
"g)	c #772600",
"g_	c #6f2602",
"g+	c #3e2e26",
"g-	c #343739",
"g=	c #414141",
"g{	c #4d4c4c",
"g}	c #40474a",
"g|	c #5b4031",
"g[	c #a23f0e",
"g]	c #bb4104",
"g:	c #bd460a",
"g;	c #c25116",
"g'	c #c86023",
"g<	c #bb6239",
"g>	c #a35b51",
"g?	c #93565f",
"g,	c #93575f",
"g.	c #9d5b53",
"g/	c #ac5e3c",
"h 	c #ae5927",
"ha	c #a24c1a",
"hb	c #933d10",
"hc	c #8a3307",
"hd	c #842d02",
"he	c #7f2b00",
"hf	c #7c2900",
"hg	c #752700",
"hh	c #60270c",
"hi	c #3c2d25",
"hj	c #2f3335",
"hk	c #3a3a3a",
"hl	c #444444",
"hm	c #4a4a4a",
"hn	c #3e4346",
"ho	c #383a3b",
"hp	c #45352e",
"hq	c #4a3429",
"hr	c #4a362c",
"hs	c #4d3a31",
"ht	c #544136",
"hu	c #5b4739",
"hv	c #5e4b3b",
"hw	c #59473a",
"hx	c #514037",
"hy	c #4a3a32",
"hz	c #44342c",
"hA	c #413129",
"hB	c #403028",
"hC	c #3e2f28",
"hD	c #3d2f28",
"hE	c #3c2f28",
"hF	c #382f2a",
"hG	c #2f3131",
"hH	c #303335",
"hI	c #383737",
"hJ	c #404040",
"hK	c #484848",
"hL	c #4c4c4c",
"hM	c #494949",
"hN	c #424343",
"hO	c #393c3e",
"hP	c #34383a",
"hQ	c #323638",
"hR	c #333738",
"hS	c #343839",
"hT	c #35393a",
"hU	c #36393a",
"hV	c #353839",
"hW	c #343738",
"hX	c #333638",
"hY	c #353738",
"hZ	c #373838",
"h0	c #3b3b3b",
"h1	c #4b4b4b",
" a a a a b c d e e e e e e e e f g g g g g h h h i j a a a a",
" a a a k l m n o p q r s s t t u v w x y z A B C D E F a a a",
" a a G H I J K L M N O P Q R S T O U V W X Y Z 0 1 2 3 4 a a",
" a k 5 6 7 8 9 ! @ # $ % ^ & P * ( ) _ + - = { } | [ ] : ; a",
" b a ' < > ? @ , . / Q $a aaabacadaeafagahaiajakalamanaoapaq",
" carasatau #av / %awaxayazaAaBaCaDaEaFaGaHaIaJaKaLaMaNaOaPaQ",
" eaRaSaT $ % ^ & %aUaVaWaXaYaZa0a1a2a3a4a5a6a7a8a9a!a@a#a$a%",
" ea^a1 &a&a*a*a(a)a_a+a-a=a{a}a|a[a]a:a;a'a<a>a?a,a.a/b babb",
" fbcbdbebfbgbhbibjbkblbmbnbobpbqbrbsbtbubvbwbxbybzbAbBbCbDbE",
" fbFbGbHbIbJbKbLbMbNbObPbQbRbSbTbUbVbWbXbYbZb0b1b2b3b4b5b6b7",
" gb8b9b!b@b#b$b%b^b&b*b(b)b_b+b-b=b{b}b|b[b]b:b;b'b<b>b?b,b7",
" gb.b/b/c cacbcccdcecfcgchcicjckclcmcncocpcqcrcsctcucvcwcxcy",
" gczcAcBcCcDcEcFa}cGcHcIcJcKcLcMcNcOcPcQcRcScTcUcVcWcXcYcZcy",
" hc0c1cBc2c3c4c5c6c7c8c9c!c@c#c$c%c^a/c&c*c(c)c_c+c-c=c{c}c|",
" hc[c]c:c;c'c<c>c?c,c.c/cOd a!dadbdcdddedfdgdhdidjdkdldmdndo",
" hdpdqdrdsdta4dudvdwdxdycPdzdAdBdCbCdDdEdFdGdHdIdJdKdLdMdNdo",
"dOdPdQdRdSdTdUdVdWdXdYdZa@dBd0d1d2d3d4d5d6d7d8d9d!d@d#d$d%do",
"d^d&d*d(d)d_d+d-d=d{d}a/d0d|d[d]d:d;d'd<d>d?d,d.d/e eaebecdo",
"d^edeeefegeheiejekelemeneob5epeqereseteuevewexeyezeAeBeCeDeE",
"d^eFeGeHeIeJeKeLeMeNeOePeQeReSeTeUeVeWeXeYeZe0e1e2e3e4e5e6eE",
"e7e8e9e!e@e#e$e%e^e&e*e(e)e_e+e-e=e{e}e|e[e]e:e;e'e<e>e?e,eE",
"e.e/f fafbfcfdfefffgfhfifjfke=flfmfnfofpfqfrfsftfufvfwfxfyfz",
"e.fAfBfCfDfEfFfGfHfIfJfKfLfMfNfOfPfQfRfSfTfUfVfWfXfYfZf0f1fz",
"f2f3f4f5f6f7f8f9f!f@f#f$f%f^f&f*f(f)f_f+f-f=f{f}f|f[f]f:f;fz",
"f'f<f>f?f,f.f/g gagbgcgdgegfggghgigjgkglgmgngogpf]gqgrgsgtgu",
"gvgwgxgygzgAgBgCgDgEgFgGgHgIgJgKgLgMgNgOgPgQf]gqgRgSgTgUgVgW",
" a hgXgYgZg0g1g2g3g4g5g6g7g8g9g!g@g#g$g%g^g&grg*g(g)g_g+g-g=",
" ag{g}g|g[g]g:g;g'g<g>g?g,g.g/h hahbhchdhehfg(hgg_hhhihjhkhl",
" a ahmhnhohphqhrhshthuhvhvhwhxhyhzhAhBhChChDhDhEhFhGhHhIhJhK",
" a ahLhMhNhOhPhQhQhRhShThUhVhWhXhXhXhRhWhWhWhWhWhYhZh0g=aph1"
};
