/* XPM */
static char * ford_riggingAid__create2Arrowhead_xpm[] = {
"30 30 729 2",
"  	c none",
" a	c #4d4d4d",
" b	c #4b4c4d",
" c	c #474a4c",
" d	c #46494b",
" e	c #464a4c",
" f	c #464a4d",
" g	c #464b4d",
" h	c #464b4e",
" i	c #474c4e",
" j	c #4b4d4d",
" k	c #45494b",
" l	c #4f4d4d",
" m	c #6b5b53",
" n	c #735f55",
" o	c #735f54",
" p	c #735e54",
" q	c #735e53",
" r	c #735d52",
" s	c #735c51",
" t	c #735c50",
" u	c #735b4f",
" v	c #735b4e",
" w	c #735a4d",
" x	c #73594c",
" y	c #73584b",
" z	c #73584a",
" A	c #735749",
" B	c #735647",
" C	c #735546",
" D	c #6b5347",
" E	c #4e4d4d",
" F	c #454c4f",
" G	c #4e4e4e",
" H	c #81695c",
" I	c #dc9873",
" J	c #fda77a",
" K	c #ffa779",
" L	c #ffa475",
" M	c #ffa271",
" N	c #ff9f6d",
" O	c #ff9d69",
" P	c #ff9a65",
" Q	c #ff9761",
" R	c #ff955e",
" S	c #ff9259",
" T	c #ff8f56",
" U	c #ff8c51",
" V	c #ff894c",
" W	c #ff8547",
" X	c #ff8241",
" Y	c #ff7e3c",
" Z	c #ff7a36",
" 0	c #ff7630",
" 1	c #ff722a",
" 2	c #fc6d25",
" 3	c #db6427",
" 4	c #7c523e",
" 5	c #434b4f",
" 6	c #494c4e",
" 7	c #826c60",
" 8	c #ffb384",
" 9	c #ffba8c",
" !	c #ffba8b",
" @	c #ffb987",
" #	c #ffb582",
" $	c #ffb07d",
" %	c #ffaa77",
" ^	c #ffa471",
" &	c #ff9e6c",
" *	c #ff9a66",
" (	c #ff955f",
" )	c #ff9058",
" _	c #ff8c52",
" +	c #ff884d",
" -	c #ff8243",
" =	c #ff7e3d",
" {	c #ff7a37",
" }	c #ff7732",
" |	c #ff732c",
" [	c #ff6f26",
" ]	c #ff6a20",
" :	c #ff6817",
" ;	c #fc6314",
" '	c #774f3b",
" <	c #434b4e",
" >	c #4c4c4d",
" ?	c #555453",
" ,	c #e29f7c",
" .	c #956993",
" /	c #483594",
"a 	c #584096",
"aa	c #634895",
"ab	c #986c93",
"ac	c #b17c90",
"ad	c #d3918b",
"ae	c #eca085",
"af	c #ffab7f",
"ag	c #ffab78",
"ah	c #ffa56b",
"ai	c #ff945c",
"aj	c #ff8a50",
"ak	c #ff8548",
"al	c #ff7e3e",
"am	c #ff7a38",
"an	c #ff7733",
"ao	c #ff732d",
"ap	c #ff6f27",
"aq	c #ff6b20",
"ar	c #ff671a",
"as	c #ff6214",
"at	c #ff600c",
"au	c #da5716",
"av	c #474747",
"aw	c #4a4b4c",
"ax	c #484b4c",
"ay	c #72635a",
"az	c #fbac85",
"aA	c #322496",
"aB	c #89689c",
"aC	c #a67e99",
"aD	c #705095",
"aE	c #604396",
"aF	c #433099",
"aG	c #32249d",
"aH	c #2d21a0",
"aI	c #44319f",
"aJ	c #4d369d",
"aK	c #815592",
"aL	c #f59368",
"aM	c #ff8b4e",
"aN	c #ff8142",
"aO	c #ff7632",
"aP	c #ff6314",
"aQ	c #ff5f0e",
"aR	c #ff5b08",
"aS	c #fd5704",
"aT	c #5f4437",
"aU	c #42484a",
"aV	c #77645a",
"aW	c #ffb482",
"aX	c #513a98",
"aY	c #9c729a",
"aZ	c #ffc68b",
"a0	c #ffb37d",
"a1	c #ffb07a",
"a2	c #ffaa7c",
"a3	c #f3a07f",
"a4	c #d8928a",
"a5	c #cc9796",
"a6	c #5943a6",
"a7	c #0e09ab",
"a8	c #e38a6e",
"a9	c #ff8a49",
"a!	c #ff7d3c",
"a@	c #ff7936",
"a#	c #ff7631",
"a$	c #ff722c",
"a%	c #ff6e26",
"a^	c #ff661a",
"a&	c #ff5e0d",
"a*	c #ff5a07",
"a(	c #ff5702",
"a)	c #ff5400",
"a_	c #63402f",
"a+	c #3d4447",
"a-	c #746056",
"a=	c #ffb279",
"a{	c #7d5794",
"a}	c #795596",
"a|	c #ffb179",
"a[	c #ff9966",
"a]	c #ff965f",
"a:	c #ff9861",
"a;	c #ffa96d",
"a'	c #c68990",
"a<	c #3629ab",
"a>	c #c8888b",
"a?	c #ff9b5f",
"a,	c #ff7935",
"a.	c #ff752f",
"a/	c #ff712a",
"b 	c #ff6e25",
"ba	c #ff6a1f",
"bb	c #ff6619",
"bc	c #ff6213",
"bd	c #ff5e0c",
"be	c #ff5906",
"bf	c #fe5501",
"bg	c #fc5400",
"bh	c #f85200",
"bi	c #5d3d2c",
"bj	c #3a4043",
"bk	c #725d52",
"bl	c #ffa96f",
"bm	c #ab748d",
"bn	c #4a339b",
"bo	c #ffa975",
"bp	c #ff945d",
"bq	c #ff8b51",
"br	c #ff894e",
"bs	c #ff9857",
"bt	c #a86884",
"bu	c #241baf",
"bv	c #e59b83",
"bw	c #ff9c5b",
"bx	c #ff7f3f",
"by	c #ff7530",
"bz	c #ff7028",
"bA	c #ff6d23",
"bB	c #ff691d",
"bC	c #ff6517",
"bD	c #ff6112",
"bE	c #ff5d0b",
"bF	c #ff5805",
"bG	c #fe5500",
"bH	c #f95300",
"bI	c #f45100",
"bJ	c #f04f00",
"bK	c #5b3b2b",
"bL	c #393f42",
"bM	c #715a4f",
"bN	c #ffa166",
"bO	c #c98485",
"bP	c #2d1fa2",
"bQ	c #f69e78",
"bR	c #ff945a",
"bS	c #ff874a",
"bT	c #ff8447",
"bU	c #ff8345",
"bV	c #ff884b",
"bW	c #ff9a5d",
"bX	c #7f5091",
"bY	c #1c13ae",
"bZ	c #d98571",
"b0	c #ff8e46",
"b1	c #ff671b",
"b2	c #ff6416",
"b3	c #ff6011",
"b4	c #ff5c0a",
"b5	c #ff5804",
"b6	c #fd5400",
"b7	c #f75200",
"b8	c #f15000",
"b9	c #ed4f00",
"b!	c #ea4d00",
"b@	c #593a2b",
"b#	c #383e41",
"b$	c #70584d",
"b%	c #ff975c",
"b^	c #ee9778",
"b&	c #2b1ea5",
"b*	c #cf8580",
"b(	c #ff995c",
"b)	c #ff8344",
"b_	c #ff8646",
"b+	c #ff9c57",
"b-	c #7c4c90",
"b=	c #1a11ae",
"b{	c #dc8167",
"b}	c #ff873b",
"b|	c #ff6d25",
"b[	c #ff5f0f",
"b]	c #f65200",
"b:	c #f05000",
"b;	c #ea4e00",
"b'	c #e64c00",
"b<	c #e24b00",
"b>	c #583a2b",
"b?	c #70574b",
"b,	c #ff8e52",
"b.	c #ffa269",
"b/	c #5035a0",
"c 	c #ba7b8b",
"ca	c #ffa96a",
"cb	c #ff965b",
"cc	c #ff8f4e",
"cd	c #ff8141",
"ce	c #ff7f3c",
"cf	c #ff954e",
"cg	c #7c498b",
"ch	c #1c12ac",
"ci	c #d8785f",
"cj	c #ff7f30",
"ck	c #ff5b09",
"cl	c #ff5601",
"cm	c #fb5300",
"cn	c #f45200",
"co	c #ee4f00",
"cp	c #e84e00",
"cq	c #de4a00",
"cr	c #db4900",
"cs	c #56392b",
"ct	c #393e41",
"cu	c #705649",
"cv	c #ff8748",
"cw	c #ff9e5e",
"cx	c #5c3b9c",
"cy	c #8c639e",
"cz	c #c48791",
"cA	c #4c33a3",
"cB	c #b46d7d",
"cC	c #ff954c",
"cD	c #ff7c39",
"cE	c #ff722b",
"cF	c #ff7027",
"cG	c #ff7730",
"cH	c #ff8d42",
"cI	c #894d80",
"cJ	c #1d12a9",
"cK	c #cf6e5a",
"cL	c #ff7a25",
"cM	c #fd5e10",
"cN	c #f85503",
"cO	c #f25100",
"cP	c #e74d00",
"cQ	c #e04b00",
"cR	c #d74800",
"cS	c #d34600",
"cT	c #55392b",
"cU	c #705547",
"cV	c #ff7f3e",
"cW	c #ff9651",
"cX	c #9e648a",
"cY	c #251eb6",
"cZ	c #3027b2",
"c0	c #815a9c",
"c1	c #261fb2",
"c2	c #a76680",
"c3	c #ff9045",
"c4	c #ff6e23",
"c5	c #ff8433",
"c6	c #9d536f",
"c7	c #1d11a4",
"c8	c #bb605c",
"c9	c #ff7724",
"c!	c #f15b10",
"c@	c #eb5104",
"c#	c #e54c00",
"c$	c #df4a00",
"c%	c #d94800",
"c^	c #cf4500",
"c&	c #cc4300",
"c*	c #53382b",
"c(	c #393f41",
"c)	c #705446",
"c_	c #ff7934",
"c+	c #ff8741",
"c-	c #cc766e",
"c=	c #3523aa",
"c{	c #af6d84",
"c}	c #ffa75e",
"c|	c #c97a73",
"c[	c #2f22ae",
"c]	c #905586",
"c:	c #ff8940",
"c;	c #ff7127",
"c'	c #ff6215",
"c<	c #ff5e0e",
"c>	c #ff6315",
"c?	c #ff7b26",
"c,	c #ae5a62",
"c.	c #130ca5",
"c/	c #a65763",
"d 	c #fb7324",
"da	c #e45710",
"db	c #dd4c04",
"dc	c #d74902",
"dd	c #d24803",
"de	c #cc4602",
"df	c #c74301",
"dg	c #c44100",
"dh	c #52382b",
"di	c #3a3f41",
"dj	c #705345",
"dk	c #ff732b",
"dl	c #ff803d",
"dm	c #fb8349",
"dn	c #ff8340",
"do	c #ff7b38",
"dp	c #ff863a",
"dq	c #e07d5b",
"dr	c #3424ab",
"ds	c #6c4090",
"dt	c #ff833a",
"du	c #ff6c1c",
"dv	c #fe5b09",
"dw	c #fb5604",
"dx	c #f65d10",
"dy	c #ff7624",
"dz	c #ae5b5f",
"dA	c #100ba4",
"dB	c #a8595e",
"dC	c #f07126",
"dD	c #d85818",
"dE	c #d45615",
"dF	c #d95a13",
"dG	c #cc5010",
"dH	c #c14507",
"dI	c #bd3f00",
"dJ	c #50372b",
"dK	c #464c4f",
"dL	c #705243",
"dM	c #ff6f23",
"dN	c #ff681d",
"dO	c #ff7929",
"dP	c #ec7c4b",
"dQ	c #4229a1",
"dR	c #5c3593",
"dS	c #f97b38",
"dT	c #fd6819",
"dU	c #f25608",
"dV	c #ed5204",
"dW	c #e95810",
"dX	c #f67124",
"dY	c #a7585e",
"dZ	c #150d9f",
"d0	c #9c5663",
"d1	c #ea7d3a",
"d2	c #d17042",
"d3	c #713a69",
"d4	c #b1553a",
"d5	c #c24e11",
"d6	c #b73e02",
"d7	c #4f362a",
"d8	c #705142",
"d9	c #ff6618",
"d!	c #ff6010",
"d@	c #ff5d0c",
"d#	c #ff5e0f",
"d$	c #ff6f1d",
"d%	c #f47a40",
"d^	c #3e259f",
"d&	c #4d2c96",
"d*	c #f67a38",
"d(	c #f2661a",
"d)	c #e4520a",
"d_	c #df4d05",
"d+	c #db530f",
"d-	c #e96d24",
"d=	c #a1565c",
"d{	c #100ba0",
"d}	c #8a5779",
"d|	c #5a3a89",
"d[	c #0003ad",
"d]	c #77436d",
"d:	c #c75c1d",
"d;	c #b03e05",
"d'	c #4d362a",
"d<	c #705040",
"d>	c #ff6212",
"d?	c #ff6111",
"d,	c #ff5c0b",
"d.	c #fb5501",
"d/	c #f7580a",
"e 	c #fb691b",
"ea	c #ed763d",
"eb	c #4a2a95",
"ec	c #3f2399",
"ed	c #dd7040",
"ee	c #e8651c",
"ef	c #d74f0b",
"eg	c #d24905",
"eh	c #ce4f10",
"ei	c #dd6822",
"ej	c #9f5557",
"ek	c #22159b",
"el	c #5c3e8c",
"em	c #654590",
"en	c #4b2c88",
"eo	c #c26128",
"ep	c #aa3f09",
"eq	c #4b352a",
"er	c #3b3f41",
"es	c #704f3f",
"et	c #ff5d0a",
"eu	c #ee5001",
"ev	c #ea5409",
"ew	c #ee6319",
"ex	c #ed7535",
"ey	c #56308b",
"ez	c #2817a1",
"eA	c #ca6948",
"eB	c #df651f",
"eC	c #ca4d0e",
"eD	c #c44607",
"eE	c #c14a0e",
"eF	c #c8591c",
"eG	c #bb5d34",
"eH	c #cf7845",
"eI	c #875577",
"eJ	c #3a2496",
"eK	c #b9602f",
"eL	c #a5400d",
"eM	c #464c50",
"eN	c #704e3d",
"eO	c #ff5501",
"eP	c #f55200",
"eQ	c #e94e00",
"eR	c #e04c01",
"eS	c #dc4e07",
"eT	c #df5c17",
"eU	c #e6712f",
"eV	c #703e7b",
"eW	c #1c11a5",
"eX	c #a95c57",
"eY	c #d56522",
"eZ	c #be490f",
"e0	c #b74005",
"e1	c #b24006",
"e2	c #b2460d",
"e3	c #bc5a22",
"e4	c #92555d",
"e5	c #37269e",
"e6	c #ae5e36",
"e7	c #a14211",
"e8	c #49352b",
"e9	c #464d50",
"e!	c #6f4d3c",
"e@	c #fc5300",
"e#	c #f95200",
"e$	c #ec4f00",
"e%	c #e44c00",
"e^	c #dc4900",
"e&	c #d34700",
"e*	c #cf4906",
"e(	c #d05415",
"e)	c #df6f2a",
"e_	c #7e4873",
"e+	c #0c08ac",
"e-	c #9b565c",
"e=	c #c55c20",
"e{	c #af4009",
"e}	c #a73700",
"e|	c #a33700",
"e[	c #ab4915",
"e]	c #a15945",
"e:	c #3327a6",
"e;	c #9b5646",
"e'	c #9e4414",
"e<	c #49352c",
"e>	c #6e4c3c",
"e?	c #ec4e00",
"e,	c #e04a00",
"e.	c #d74700",
"e/	c #ce4400",
"f 	c #c94300",
"fa	c #c54200",
"fb	c #c24405",
"fc	c #c35117",
"fd	c #d87639",
"fe	c #84567e",
"ff	c #0b08b0",
"fg	c #a15549",
"fh	c #b14a12",
"fi	c #a13803",
"fj	c #9c3502",
"fk	c #a04313",
"fl	c #a45a3b",
"fm	c #3c2ea3",
"fn	c #8f5452",
"fo	c #9b4718",
"fp	c #48372e",
"fq	c #3c3f41",
"fr	c #474d50",
"fs	c #6c4c3c",
"ft	c #e34b00",
"fu	c #da4900",
"fv	c #d64700",
"fw	c #d24600",
"fx	c #ce4500",
"fy	c #c54100",
"fz	c #c04000",
"fA	c #bc3e00",
"fB	c #b73d00",
"fC	c #b7470f",
"fD	c #c76a37",
"fE	c #815580",
"fF	c #1f19ae",
"fG	c #ad6c5d",
"fH	c #ba6029",
"fI	c #a84c19",
"fJ	c #a14716",
"fK	c #a25022",
"fL	c #ae673e",
"fM	c #4c3a9f",
"fN	c #734a6e",
"fO	c #994a1b",
"fP	c #48372f",
"fQ	c #3c3f40",
"fR	c #484d4f",
"fS	c #624b40",
"fT	c #df4b01",
"fU	c #bc3f00",
"fV	c #b33b00",
"fW	c #ae3b01",
"fX	c #b5490d",
"fY	c #9b524b",
"fZ	c #0708b8",
"f0	c #59439f",
"f1	c #92667d",
"f2	c #8b5766",
"f3	c #8f5556",
"f4	c #91554f",
"f5	c #995d4f",
"f6	c #ab7155",
"f7	c #624c98",
"f8	c #65457d",
"f9	c #92491c",
"f!	c #433832",
"f@	c #4c4d4e",
"f#	c #4a4b4b",
"f$	c #b84810",
"f%	c #de4800",
"f^	c #b83d00",
"f&	c #b33c00",
"f*	c #af3b00",
"f(	c #aa3900",
"f)	c #a63801",
"f_	c #aa420b",
"f+	c #a04f34",
"f-	c #553586",
"f=	c #503793",
"f{	c #4131a0",
"f}	c #4133a3",
"f|	c #4335a6",
"f[	c #4136a9",
"f]	c #4339ab",
"f:	c #493eab",
"f;	c #423bb4",
"f'	c #6f466a",
"f<	c #7a4220",
"f>	c #383939",
"f?	c #3f3f40",
"f,	c #634637",
"f.	c #cb4403",
"f/	c #d34400",
"g 	c #c84200",
"ga	c #c34100",
"gb	c #bf3f00",
"gc	c #ba3e00",
"gd	c #b63d00",
"ge	c #b13b00",
"gf	c #ad3900",
"gg	c #a83800",
"gh	c #a43600",
"gi	c #a03500",
"gj	c #9e3906",
"gk	c #a14313",
"gl	c #ab5420",
"gm	c #ac5b2c",
"gn	c #a55a33",
"go	c #9f5835",
"gp	c #9a573a",
"gq	c #95563e",
"gr	c #8e5546",
"gs	c #89534b",
"gt	c #854d45",
"gu	c #834424",
"gv	c #483a32",
"gw	c #36393a",
"gx	c #414141",
"gy	c #4d4c4c",
"gz	c #40474a",
"gA	c #5b4031",
"gB	c #a23f0e",
"gC	c #bb3f02",
"gD	c #bb3e00",
"gE	c #b23b00",
"gF	c #ad3a00",
"gG	c #a93900",
"gH	c #a43700",
"gI	c #a03600",
"gJ	c #9c3400",
"gK	c #983300",
"gL	c #943302",
"gM	c #913404",
"gN	c #8f3608",
"gO	c #8d380c",
"gP	c #8b390f",
"gQ	c #893a10",
"gR	c #873a12",
"gS	c #853b13",
"gT	c #833c14",
"gU	c #7f3b16",
"gV	c #6e391a",
"gW	c #45372f",
"gX	c #333638",
"gY	c #3b3b3a",
"gZ	c #444444",
"g0	c #4a4a4a",
"g1	c #3e4346",
"g2	c #383a3b",
"g3	c #45352e",
"g4	c #493329",
"g5	c #483328",
"g6	c #473228",
"g7	c #463228",
"g8	c #453228",
"g9	c #443128",
"g!	c #433128",
"g@	c #423128",
"g#	c #413028",
"g$	c #403027",
"g%	c #402f27",
"g^	c #3f2f27",
"g&	c #3e2f27",
"g*	c #3e2f28",
"g(	c #3e3029",
"g)	c #3d3029",
"g_	c #39302b",
"g+	c #303132",
"g-	c #313435",
"g=	c #383837",
"g{	c #404040",
"g}	c #484848",
"g|	c #4c4c4c",
"g[	c #494949",
"g]	c #424343",
"g:	c #393c3e",
"g;	c #34383a",
"g'	c #323638",
"g<	c #333738",
"g>	c #343738",
"g?	c #343638",
"g,	c #353637",
"g.	c #373738",
"g/	c #3b3a3a",
"h 	c #4b4b4b",
" a a a a b c d e e e e e e e e f f g g g h h h h i j a a a a",
" a a a k l m n o p q q r r s t u v w x y z A B C D E F a a a",
" a G i H I J K L M N O P Q R S T U V W X Y Z 0 1 2 3 4 5 a a",
" a 6 7 8 9 ! @ # $ % ^ & * ( ) _ + W - = { } | [ ] : ; ' < a",
" > ? , . /a aaabacadaeafagahaiajak -alamanaoapaqarasatauavaw",
"axayazaAaBaCaDaEaFaGaHaIaJaKaLaMaN = {aO | [aqaraPaQaRaSaTaU",
" eaVaWaXaYaZa0a1a2a3a4a5a6a7a8a9a!a@a#a$a% ]a^asa&a*a(a)a_a+",
" ea-a=a{a}a|a[ (a]a:a;a'a<a>a?aNa,a.a/b babbbcbdbebfbgbhbibj",
" ebkblbmbnbobpbqbr +bsbtbubvbwbxbybzbAbBbCbDbEbFbGbHbIbJbKbL",
" ebMbNbObPbQbRbSbTbUbVbWbXbYbZb0a#bAb1b2b3b4b5b6b7b8b9b!b@b#",
" fb$b%b^b&b*b(bSb)bxalb_b+b-b=b{b}b|b2b[aRa(bgb]b:b;b'b<b>b#",
" gb?b,b.b/c cacbcccda@ancecfcgchcicja^ckclcmcncocpb<cqcrcsct",
" gcucvcwcxcyczcAcBcCcDcEcFcGcHcIcJcKcLcMcNcOb9cPcQcrcRcScTct",
" hcUcVcWcXcYcZc0c1c2c3cG ]b1c4c5c6c7c8c9c!c@c#c$c%cSc^c&c*c(",
" hc)c_c+c-c=c{c}c|c[c]c:c;c'c<c>c?c,c.c/d dadbdcdddedfdgdhdi",
" hdjdkaOdldmdndodpdqdrdsdtdudvdwdxdydzdAdBdCdDdEdFdGdHdIdJdi",
"dKdLbAbAb|dMbaa^dNdOdPdQdRdSdTdUdVdWdXdYdZd0d1d2d3d4d5d6d7di",
"dKd8ard9b2bcd!d@b4d#d$d%d^d&d*d(d)d_d+d-d=d{d}d|d[d]d:d;d'di",
"dKd<d>d?c<d,a*b5bfd.d/e eaebecedeeefegeheiejekelemeneoepeqer",
"dKesetaRbea(bfcmb7cOeuevewexeyezeAeBeCeDeEeFeGeHeIeJeKeLeqer",
"eMeNa(eObgbHePb8b9eQc#eReSeTeUeVeWeXeYeZe0e1e2e3e4e5e6e7e8er",
"e9e!e@e#cnb:e$cpe%cQe^cRe&e*e(e)e_e+e-e=e{e}e|e[e]e:e;e'e<er",
"e9e>bIb:e?cPe%e,cre.cSe/f fafbfcfdfefffgfhfifjfkflfmfnfofpfq",
"frfse?cPftc$fufvfwfxf fyfzfAfBfCfDfEfFfGfHfIfJfKfLfMfNfOfPfQ",
"fRfSfTe,fufvfwfxf fafzfUfBfVfWfXfYfZf0f1f2f3f4f5f6f7f8f9f!fQ",
"f@f#f$f%fwfxf fafzfUf^f&f*f(f)f_f+f-f=f{f}f|f[f]f:f;f'f<f>f?",
" a hf,f.f/g gagbgcgdgegfggghgigjgkglgmgngogpgqgrgsgtgugvgwgx",
" agygzgAgBgCgDgdgEgFgGgHgIgJgKgLgMgNgOgPgQgRgSgTgUgVgWgXgYgZ",
" a ag0g1g2g3g4g5g6g7g8g9g9g!g@g#g$g%g^g&g*g*g(g)g_g+g-g=g{g}",
" a ag|g[g]g:g;g'g'g'g'gXgXgXgXgXg<g<g<g>g>g>g>g?g,g.g/gxavh "
};
